<svg id="eb5f13d2-cb5f-4d51-b71c-ce2a272cd62b" data-name="Calque 1" xmlns="http://www.w3.org/2000/svg" viewBox="0 0 74.69 31.78"><defs><style>.aa13767a-1a7d-45c1-bfae-21f93b000acc{fill:#363636;}</style></defs><path class="aa13767a-1a7d-45c1-bfae-21f93b000acc" d="M74.69,18.33c0-.1,0-.21-.07-.31s-.09-.16-.13-.25a.1.1,0,0,1,0-.05l-.06-.07a2.41,2.41,0,0,0-.6-.52,7.12,7.12,0,0,0-1.47-.67,33,33,0,0,0-5.84-1.27c-.88-.13-1.74-.24-2.59-.33a1.49,1.49,0,0,1-1.31-1.48V12.26l0-7.7a1.49,1.49,0,0,0-.34-.95h0a1.47,1.47,0,0,0-.86-.51C58.56,2.52,55.71,2,52.86,1.48c-1.51-.28-3-.54-4.55-.79S45.29.2,43.72,0h-.11L16.54,1.22l-1.69.07h-.23a1.11,1.11,0,0,0-.23,0h0l-.32,0H14a1.45,1.45,0,0,0-.81.29,1.91,1.91,0,0,0-.45.57,3.63,3.63,0,0,0-.33,1.12,16.28,16.28,0,0,0-.05,2.07l0,4,0,4.11a1.47,1.47,0,0,1-1.32,1.47c-.93.11-1.88.23-2.84.38a33.75,33.75,0,0,0-5.84,1.29,7.25,7.25,0,0,0-1.48.68,5,5,0,0,0-.46.37,1.17,1.17,0,0,1,0-.3,1,1,0,0,0,0,.32v0A1.59,1.59,0,0,0,.19,18a2.53,2.53,0,0,0-.14.29l0,.19a.89.89,0,0,0,0,.13v.08l0,.16a.77.77,0,0,0,.1.28,3.11,3.11,0,0,0,1.35,1.12c.08.1.15.21.23.32v0l.05,0a11.9,11.9,0,0,0,.93,1.11A16.7,16.7,0,0,0,7.64,25a29.43,29.43,0,0,0,4.71,1.64l.07,0c.15,0,.3.09.45.12l.17.11,0,0a24.92,24.92,0,0,0,2.3,1.18A43.49,43.49,0,0,0,26,31a75,75,0,0,0,11.33.81,76.28,76.28,0,0,0,11.34-.87A43.17,43.17,0,0,0,59.37,28a20.79,20.79,0,0,0,2.34-1.22,1.53,1.53,0,0,1,.37-.16,30.87,30.87,0,0,0,5.14-1.79,16.73,16.73,0,0,0,5-3.34,11.62,11.62,0,0,0,1.26-1.59,3.47,3.47,0,0,0,.45-.26,3.18,3.18,0,0,0,.36-.3l.17-.18c0-.08.11-.19.16-.29l.07-.15s0-.07,0-.1l0-.1v-.05A.92.92,0,0,0,74.69,18.33ZM64.25,15.39l2.13.35A41.09,41.09,0,0,1,71,16.82l-1-.19L66.62,16l-2.87-.55A1.67,1.67,0,0,1,64.25,15.39ZM60.91,4.73h0l0,7.54,0,2.29V15l0,2.69V19l0,1.48,0,.9-.7.06c-.09-6.71-.2-10.89-.2-10.89s-.08,4.08-.13,10.92l-.43,0c-.08-3.73-.18-6-.18-6s-.08,2.25-.14,6c-.23,0-.45.05-.69.06a18.21,18.21,0,0,0-.21-2.29c-.11-.68-.2-1-.2-1s0,.36.08,1,.06,1.35,0,2.32q-3.44.27-6.94.43c-4.63.2-9.35.34-14.06.32-1.88,0-3.77,0-5.64,0v0l0-1.06.08-2.13.11-3.29v0l0-.92c0-.33,0-.67,0-1v-.15q.11-3.68.12-7.33a2.89,2.89,0,0,0,0-.88,2.57,2.57,0,0,0-.2-.65h.86C32.87,12.94,33,18,33,18s.07-4.92.12-13.14h.41c-.09.86-.11,1.65-.13,2.34s0,1.36,0,1.88c0,1,0,1.61,0,1.61s0-.56.09-1.58c0-.51.07-1.14.13-1.87s.12-1.51.25-2.39h.57c0,1.2,0,2.29,0,3.25s0,1.83,0,2.52,0,1.24,0,1.61c0,.18,0,.32,0,.41l0,.14,0-.13c0-.09,0-.23.06-.41,0-.36.1-.89.13-1.58s.07-1.54.1-2.52,0-2.08.08-3.3l.78,0c.08,1.36.17,2.21.17,2.21s.09-.83.16-2.21l.88,0a.62.62,0,0,0,0,.28.48.48,0,0,0,.08.18.58.58,0,0,1,0-.18.81.81,0,0,1,.15-.29c9.6-.22,16.85-.46,20.94-.6C59.29,4.12,60.93,4.06,60.91,4.73ZM43.45,1.47h.26c1.42.22,2.88.5,4.33.77l4.51.87,3.91.75c-5.27-.14-14.29-.34-26.21-.5l-.16-.05H30c-2.65-.36-5.3-.74-8-1-.9-.12-1.81-.23-2.72-.33Zm-30.55,18V18.13l0-3v-.42l0-2.3v-.07l.13-3,.17-4a13.91,13.91,0,0,1,.14-1.91,2.58,2.58,0,0,1,.27-.77c.12-.18.2-.23.26-.23,2.63.45,5.25.91,7.87,1.32S27,4.59,29.66,5l0,0,.11,0,.2.13a1.06,1.06,0,0,1,.28.28,1.16,1.16,0,0,1,.15.81V6.4q0,3.69.17,7.36V14l0,.91,0,1v.06l.13,3.22.09,2.13L31,22.35h-.56c-.1-6.33-.2-10.27-.2-10.27s-.08,3.83-.12,10.26h-.56c0-1.3-.1-2.37-.17-3.16-.08-1-.16-1.53-.16-1.53s0,.53.05,1.51c0,.79,0,1.86,0,3.17-2,0-4-.1-5.92-.18-3.06-.13-6.08-.31-9-.57a1.38,1.38,0,0,1-.39-.09c-.1-9.69-.22-15.77-.22-15.77s-.08,5.83-.11,15.59a1.47,1.47,0,0,1-.62-1.2Zm-.06,0,0,2h0c0-.48-.07-1.11-.14-1.91ZM8.3,15.88c.81-.15,1.6-.28,2.38-.4a1.48,1.48,0,0,1,1.71,1.45v2.38s0,.17,0,.37l0,0v.05a1.47,1.47,0,0,1-1.64,1.46h0l-.38,0-.47-.05-.16,0-.3,0L8.81,21l2-.55s-.95.15-2.59.46c-.73-.11-1.46-.23-2.17-.37.86-.25,1.6-.43,2.17-.55l1-.18.34-.06-.34,0-1,.1a22.31,22.31,0,0,0-2.79.55L4.1,20.11c1.27-.42,2.34-.73,3.16-.94l1.29-.33L9,18.73l-.45.08c-.3.05-.74.12-1.3.24-.92.18-2.17.47-3.68.92l-.18,0c-.33-.1-.66-.2-1-.32a37.57,37.57,0,0,1,5.09-1.4c.72-.14,1.28-.23,1.66-.29l.59-.08-.58.05c-.37,0-.93.1-1.65.2A32.86,32.86,0,0,0,2,19.41H2a3.29,3.29,0,0,1-.56-.29,1.27,1.27,0,0,1,.44-.3,4.34,4.34,0,0,1,.5-.2l.52-.18c.68-.23,1.33-.42,1.94-.59,1.23-.34,2.3-.57,3.18-.74s1.58-.27,2-.33l.73-.1-.71.06c-.47,0-1.16.11-2,.24s-2,.33-3.22.63c-.62.16-1.29.33-2,.55l-.53.16c-.17.06-.36.12-.55.2a2.16,2.16,0,0,0-.54.35s0,0-.05.06a1,1,0,0,1-.22-.24s0-.05,0-.08,0,0,0,0h0l0-.16s0,0,0-.05l0,0a9.39,9.39,0,0,1,1.59-.66c.73-.23,1.44-.39,2.1-.55l3.41-.81L11,15.6l-2.9.58-3.43.7c-.63.13-1.32.26-2,.46h0A34.39,34.39,0,0,1,8.3,15.88ZM5.25,22.37l-.08,0,.09,0Zm61.64,1.48a28,28,0,0,1-2.71.84l-1,.26a1.75,1.75,0,0,0-.32.12,14.46,14.46,0,0,1-1.55.71,15.22,15.22,0,0,1-1.67.82l-.26.12h0a77.47,77.47,0,0,1-15,2.23c-1.65.05-2.93,0-3.79,0l-1.31-.05L40.6,29c.88.05,2.18.1,3.84.08A63.13,63.13,0,0,0,56.1,27.83c-.74.21-1.49.4-2.26.57-1.75.4-3.54.71-5.36,1a85.16,85.16,0,0,1-11.1.7,85.36,85.36,0,0,1-11.12-.65c-1.82-.23-3.61-.53-5.36-.93-.55-.12-1.1-.25-1.64-.39a62.78,62.78,0,0,0,11.11,1c1.67,0,3-.05,3.84-.1l1.34-.09L34.24,29c-.86,0-2.14.06-3.79,0a65.5,65.5,0,0,1-13.94-1.83v.07L15.83,27l-.41-.17,2.27.38c.68.1,1.35.2,2,.28l1.87.18c1.2.1,2.29.16,3.27.21,2,.09,3.51.11,4.55.1l1.18,0H31l-.4,0-1.15-.05c-1-.05-2.53-.15-4.47-.34-1-.1-2-.21-3.22-.37-.59-.07-1.21-.16-1.84-.26s-1.29-.22-2-.36L15.31,26l-.63-.14c-.62-.15-1.33-.32-2.11-.53l-.06,0,0,0-.09-.07v.08l.09,0v0l-.09,0h0l-.22-.05A54.4,54.4,0,0,1,6.31,23.3l0,0A16.54,16.54,0,0,1,4,22c.49.27.95.49,1.39.68a5.8,5.8,0,0,0,1.19.5c.48.14,1,.25,1.41.35l2.6.57c1.63.34,3,.59,4.2.79s2.06.33,2.67.42l.94.13-.91-.16c-.6-.1-1.48-.27-2.63-.49s-2.54-.52-4.16-.9c-.81-.19-1.68-.39-2.6-.63-.46-.11-.93-.23-1.4-.38a6.52,6.52,0,0,1-.83-.33l.6.19.32.09-.3-.12-.84-.35-.33-.15.9.26c.5.13.89.21,1.16.27l.41.08-.39-.11c-.26-.07-.64-.19-1.12-.35a25.31,25.31,0,0,1-2.87-1.16l-.08,0c1.17.42,2.26.79,3.28,1.09,1.46.43,2.74.73,3.79.94s1.89.32,2.45.4l.87.1-.84-.13c-.55-.1-1.36-.23-2.4-.47a49.8,49.8,0,0,1-6.31-1.94,50.35,50.35,0,0,0,5,1.06l.44.07h0l.44.06.43.06,1.9.28.16,0,.19,0c0,.1.08.12.11,0h.07c3.36.43,6.81.73,10.3.94,2.25.14,4.51.23,6.78.29l1.15,0c2.07.05,4.15.07,6.22.08h.85c2.39,0,4.78-.07,7.16-.16,2.06-.07,4.11-.16,6.14-.3,3.26-.21,6.48-.51,9.62-.91l1.36-.18,1.74-.26.45-.07.4-.06h.07l.43-.08c1.43-.25,2.85-.52,4.23-.87a48.5,48.5,0,0,1-5.5,1.68c-1,.25-1.85.39-2.4.49l-.83.14.86-.11c.56-.08,1.39-.19,2.44-.41s2.34-.53,3.79-1c1-.31,2.15-.69,3.34-1.14a25.67,25.67,0,0,1-3,1.25c-.48.17-.86.29-1.12.36l-.39.12.41-.09,1.16-.28a22.66,22.66,0,0,0,3.28-1.18c-.17.14-.35.29-.54.43a25.61,25.61,0,0,1-3.21,1.17c-.47.15-1,.27-1.4.39-.92.24-1.79.46-2.6.65-1.62.39-3,.69-4.16.92s-2,.41-2.62.52l-.91.17.94-.14c.61-.09,1.52-.24,2.67-.44s2.57-.47,4.19-.82c.82-.18,1.68-.37,2.6-.59.37-.09,1.8-.41,2.59-.61A18.75,18.75,0,0,1,66.89,23.85ZM71.3,21.5l-.33.24Zm1.59-2.32a32.73,32.73,0,0,0-5.69-1.32c-.72-.11-1.28-.16-1.66-.19L65,17.62l.58.08c.38.06,1,.14,1.67.28a36.19,36.19,0,0,1,5.23,1.4c-.36.14-.74.26-1.12.38-1.59-.47-2.9-.76-3.85-.94l-1.3-.23-.45-.07.45.1,1.3.32c.85.22,2,.53,3.32,1-.41.11-.83.21-1.25.3a21.67,21.67,0,0,0-3-.58c-.43-.05-.76-.07-1-.09l-.34,0,.34.05,1,.18c.62.12,1.42.31,2.37.59-.69.14-1.39.26-2.1.37C65,20.39,64,20.23,64,20.23s.8.23,2.17.58l-.88.13L65,21l-.16,0-.46.05L64,21.1l-1.47.16V18.5l0-1.66a1.46,1.46,0,0,1,1.19-1.43l2.89.67,3.42.78c.66.15,1.37.31,2.1.53a9.16,9.16,0,0,1,1.28.5,1.28,1.28,0,0,1,.33.33c.09.13.07.19,0,.36,0,0,0,0,0,0l-.08.08-.1-.11a2.22,2.22,0,0,0-.54-.34,5.17,5.17,0,0,0-.55-.19l-.54-.17c-.7-.2-1.36-.38-2-.52-1.25-.3-2.33-.48-3.22-.61s-1.57-.19-2-.23L64,16.48l.72.09c.48.06,1.17.16,2,.31s2,.39,3.19.72c.62.16,1.27.36,2,.58l.52.17a4.5,4.5,0,0,1,.51.2,1.5,1.5,0,0,1,.49.35h0A3,3,0,0,1,72.89,19.18Z"/></svg>