<svg xmlns="http://www.w3.org/2000/svg" viewBox="0 0 14.82 14.81"><defs><style>.cls-1{fill:#fff;}</style></defs><g id="Calque_2" data-name="Calque 2"><g id="ef82a877-3193-40de-a75e-f2e7184318d4"><path class="cls-1" d="M14.81,4.37a5.33,5.33,0,0,0-.34-1.81,3.69,3.69,0,0,0-.86-1.31A3.64,3.64,0,0,0,12.29.39a5.27,5.27,0,0,0-1.8-.34c-.79,0-1,0-3.06,0H4.37a5.81,5.81,0,0,0-1.8.35,3.64,3.64,0,0,0-1.32.86A3.69,3.69,0,0,0,.39,2.52,5.26,5.26,0,0,0,.05,4.36c0,.8,0,1,0,3.07v3.06a5.81,5.81,0,0,0,.35,1.8,3.74,3.74,0,0,0,2.17,2.17,5.28,5.28,0,0,0,1.8.35h6.13a5.28,5.28,0,0,0,1.8-.35,3.74,3.74,0,0,0,2.17-2.17,5.81,5.81,0,0,0,.35-1.8V7.43C14.77,5.42,14.85,5.16,14.81,4.37Zm-1.33,6.06a4.33,4.33,0,0,1-.26,1.38,2.45,2.45,0,0,1-1.41,1.41,4.06,4.06,0,0,1-1.38.25h-6a4.06,4.06,0,0,1-1.38-.25,2.29,2.29,0,0,1-.85-.56,2.4,2.4,0,0,1-.55-.85,3.84,3.84,0,0,1-.26-1.38v-6a3.84,3.84,0,0,1,.26-1.38,2.42,2.42,0,0,1,1.4-1.4,4,4,0,0,1,1.37-.26h6a3.84,3.84,0,0,1,1.38.26,2.44,2.44,0,0,1,.86.55,2.4,2.4,0,0,1,.55.85,4.33,4.33,0,0,1,.26,1.38v3C13.47,9.43,13.51,9.65,13.48,10.43Z"/><path class="cls-1" d="M7.43,3.61a3.82,3.82,0,1,0,3.81,3.83h0A3.82,3.82,0,0,0,7.43,3.61Zm0,6.29A2.48,2.48,0,1,1,9.9,7.41v0A2.49,2.49,0,0,1,7.43,9.9Z"/><path class="cls-1" d="M12.29,3.46a.9.9,0,1,1-.91-.89h0A.89.89,0,0,1,12.29,3.46Z"/></g></g></svg>