<svg id="bfa42c2d-17b2-45f0-98e3-77b3912aa0a5" data-name="Calque 1" xmlns="http://www.w3.org/2000/svg" viewBox="0 0 56.23 37.77"><defs><style>.a75eddd7-7930-4c0a-914f-865d96cbaefb{fill:#363636;}</style></defs><path class="a75eddd7-7930-4c0a-914f-865d96cbaefb" d="M48.89,31.14a1.79,1.79,0,0,0,0-.68c.23-.21.41-.39.58-.56a19.33,19.33,0,0,0,3-3.92,26.65,26.65,0,0,0,2.45-5.84h0c.12-.42.24-.85.35-1.28l0-.06,0,0s0,0,0-.06c.24-1,.41-1.84.54-2.55l.11-.12L55.79,16l0-.08c.1-.39.2-.83.3-1.33h-.06c.06-.28.13-.59.18-.93h0v-.1a2.88,2.88,0,0,0-.08-1l0-.4a.07.07,0,0,0,0,0s-.05,0,0,0v0L56,12a4.23,4.23,0,0,0-.23-.48l-.06-.1a2,2,0,0,0-.12-.19L55.38,11A7.44,7.44,0,0,0,53.5,9.3a15.71,15.71,0,0,0-2.1-1.16l-.56-.24-.15-.07L50,7.55a5.82,5.82,0,0,0-.53-.38l0,0,0,0h0A5,5,0,0,0,48,6.87l-.86-.26-.26-.07-.22-.06C46,6.31,45.38,6.15,44.74,6c0-.24,0-.44,0-.62a5,5,0,0,0-.33-1.63c-.06-.15-.12-.27-.16-.35l-.1-.19h0l-.11-.17a2.68,2.68,0,0,0-.22-.32,4.63,4.63,0,0,0-1.25-1.11,7.71,7.71,0,0,0-2.4-1A13.06,13.06,0,0,0,36.83.33a15.62,15.62,0,0,0-4,.59,8.88,8.88,0,0,0-3.95,2.24A8,8,0,0,0,28,4.33h-1.8a12,12,0,0,0-1-.93,15.94,15.94,0,0,0-2.66-1.8v0h-.07l-.66-.34A13,13,0,0,0,18.62.17,8.08,8.08,0,0,0,16,.06a4.89,4.89,0,0,0-1.6.51c-.15.08-.25.15-.33.2l-.18.12h0L13.75,1a2.64,2.64,0,0,0-.29.25,4.6,4.6,0,0,0-1,1.37c0,.08-.09.17-.13.27h0V3a5.08,5.08,0,0,0-.25.72h0v0a9.37,9.37,0,0,0-.28,1.4c0,.24-.06.49-.07.76l-.63.14L11,6,10.71,6A8,8,0,0,0,8,5.69a5,5,0,0,0-1.69.44A1.46,1.46,0,0,0,6,6.32l-.19.11h0l-.18.12a3.78,3.78,0,0,0-.31.25,5,5,0,0,0-1.1,1.36L4,8.47a13.94,13.94,0,0,0-1.28.75A7.68,7.68,0,0,0,.85,10.89l-.19.26a1.22,1.22,0,0,0-.12.19.41.41,0,0,0-.05.09,2.78,2.78,0,0,0-.24.49A.61.61,0,0,0,.2,12a.88.88,0,0,0-.07.23l0,.12,0,.06a1.66,1.66,0,0,0,0,.28l0,.32a1.85,1.85,0,0,0,0,.25s0,.07,0,.11a1.36,1.36,0,0,0,.05.36l0,.1.06.24c0,.07.05.13.07.19a2.83,2.83,0,0,0,.17.4c.06.44.13.91.22,1.39h0l0,0c.06.34.12.68.19,1l-.11.1.17.16q.12.59.27,1.17c.08.35.18.73.29,1.15h0c.09.34.2.7.32,1.08l0,0,0,0c.11.36.24.74.38,1.12l0,.07h0c.3.8.62,1.53.95,2.23l0,.07.09.05c.24.5.49,1,.76,1.45a19.44,19.44,0,0,0,2.95,4l.35.34a1.48,1.48,0,0,0,.13.21,1.16,1.16,0,0,0,0,.18l0,.24a1,1,0,0,0,0,.18v.09a3.1,3.1,0,0,0,.9,1.81,10.21,10.21,0,0,0,3.38,2.16,32.35,32.35,0,0,0,8,2.09,61.33,61.33,0,0,0,8.5.63,61,61,0,0,0,8.5-.6,32.5,32.5,0,0,0,8-2.08A10.15,10.15,0,0,0,48,33,3,3,0,0,0,48.89,31.14ZM47.3,32.42c0-.06,0-.12,0-.17a8.29,8.29,0,0,0,.65-.57C47.71,32,47.5,32.21,47.3,32.42Zm-.38.78a7.06,7.06,0,0,1-.73.48,2,2,0,0,0,.05-.24h0c.12-.08.31-.21.53-.38a3.44,3.44,0,0,0,.34-.26,2,2,0,0,1-.14.3A.41.41,0,0,1,46.92,33.2ZM46.74,33l-.49.43h0a1.78,1.78,0,0,0,0-.31V33a10.58,10.58,0,0,0,1-.64.49.49,0,0,1,0,.12.34.34,0,0,1,0,.1A6,6,0,0,1,46.74,33Zm1.78-3.42c.22-.1.45-.21.69-.34l0,0c0,.05-.1.11-.16.16s-.25.25-.39.37l-.64.41c.13-.14.25-.28.37-.43Zm1.94-2.72a1,1,0,0,1,.08-.14A7.85,7.85,0,0,0,51.76,26c-.23.36-.46.71-.7,1a6.42,6.42,0,0,1-1.34.95l.38-.56.18-.29Zm1.25-2.31a5.24,5.24,0,0,0,.72-.43l.28-.22-.19.45a12.14,12.14,0,0,1-1.08.73l.19-.37ZM52.46,17l-.35.19v-.08l-.78,0a3.63,3.63,0,0,0,.19-.52l.64,0h.47a1.64,1.64,0,0,1,0,.22v0l-.06,0Zm-2.8,1L50,18l.31,0-.23.09-.82.31Zm1.39-.25a.35.35,0,0,1,.05-.08c0-.11.11-.22.16-.32l.52.05Zm.82-4.54c0-.21,0-.41,0-.6l.57.06v.05h0c0,.15.06.31.08.47l-.64,0Zm.4-1.23c0,.15.07.3.1.46l-.56.06a5.25,5.25,0,0,0-.14-.71h0a3.84,3.84,0,0,1,.56.18Zm-.4-3c.16.08.31.17.46.26l-.21.11L51.89,9h0Zm3,2.35v0c-.64.43-1.17.76-1.55,1l-.64.39.68-.3c.39-.19.94-.46,1.6-.85l.16.38a2.73,2.73,0,0,1-.34.34l0-.19-.08-.31,0,.31,0,.23a6.32,6.32,0,0,1-.86.68.59.59,0,0,0,0-.14l-.05-.29,0,.28a1.09,1.09,0,0,0,0,.18l-.16.1-.41.24c0-.05,0-.09,0-.13l0-.22v.22s0,.1,0,.16l-.07,0-.19.1.2-.07.06,0c0,.11,0,.25,0,.41s0,.44-.07.71l-.09.05.09,0c0,.21-.07.43-.12.67L53,14.47a1.1,1.1,0,0,1,0-.18c0-.19-.05-.35-.07-.51h0c-.07-.44-.15-.86-.24-1.27l.1-.18h-.14l-.12-.44.55-.31c.24-.13.55-.3.93-.47,0,.12,0,.18,0,.18v-.2l.53-.24Zm0,7.55,0,.06c0-.2.11-.4.15-.58v0l.05,0c0,.1-.06.2-.08.3A2.29,2.29,0,0,0,54.86,18.79Zm-1.09,2.69c0,.06-.09.11-.13.16.08-.27.15-.5.2-.71l.17-.1Zm-.21.57-.34.91h0c.11-.31.2-.6.29-.87Zm-.67,1.83h0a1.74,1.74,0,0,1-.1.19v0C52.84,24,52.86,24,52.89,23.88Zm1.35-3.13,0-.1,0,0-.17.48Zm.17-.57c.1-.29.18-.58.26-.85l0,0-.26.85Zm.72-2.43,0,.05c.08-.36.15-.67.21-.92l.07-.08c-.07.31-.15.64-.24,1ZM51.89,14c.19,0,.44.08.74.16l0,.51a4.7,4.7,0,0,0-.79-.1.76.76,0,0,1,0-.15C51.88,14.27,51.88,14.14,51.89,14Zm3.68-1.18v0c0,.07,0,.14,0,.22-.22.23-.45.44-.66.63,0-.12,0-.24,0-.36a6.9,6.9,0,0,0,.64-.67Zm-.17,3.86,0,0v0l.08-.1A1.16,1.16,0,0,0,55.4,16.68Zm0-2.51a2.11,2.11,0,0,1-.16.34l-.15.25-.19.25a2,2,0,0,1-.27.32h0a5.89,5.89,0,0,0,.19-.75,5.23,5.23,0,0,0,.69-.82c0,.09,0,.19,0,.29Zm-1.84,2.1a8.59,8.59,0,0,0,.26-.88,6.4,6.4,0,0,0,.72-.54,7.81,7.81,0,0,1-.37.93A7.68,7.68,0,0,1,53.53,16.27Zm1.11-1.93a.85.85,0,0,1,0,.17,5.1,5.1,0,0,1-.78.73q.06-.32.09-.6c.22-.13.48-.3.77-.51A1.55,1.55,0,0,1,54.64,14.34Zm.23-.35a3.24,3.24,0,0,0,.31-.24c-.11.17-.22.33-.33.47A1.79,1.79,0,0,0,54.87,14Zm-.94.52,0-.43a7.44,7.44,0,0,0,.81-.61c0,.13,0,.26,0,.39C54.43,14.12,54.16,14.33,53.93,14.51Zm-.19.13c-.18.14-.34.24-.45.32,0-.18,0-.36,0-.52l.49-.27A4.2,4.2,0,0,1,53.74,14.64Zm-.45.35a4.34,4.34,0,0,0,.43-.24,6.91,6.91,0,0,1-.17.69l-.36.24q.06-.36.09-.69Zm-.21,1.1h0c0-.12,0-.25.08-.37l.34-.17a7.39,7.39,0,0,1-.41,1l0,0c0-.16,0-.31,0-.47Zm2.59-.75c0,.16-.07.31-.11.44l0,.06c0-.15.08-.32.12-.5Zm-.77-2.26a.57.57,0,0,1,0-.13c0-.17,0-.33,0-.47s.26-.21.4-.34c.07.17.12.28.14.34Q55.14,12.81,54.9,13.08Zm-.11-.14v.26A8.87,8.87,0,0,1,54,14v-.31c0-.22,0-.41,0-.57a5.73,5.73,0,0,0,.86-.55C54.79,12.65,54.79,12.79,54.79,12.94Zm-.93.69a3.46,3.46,0,0,1,0,.43c-.2.15-.38.27-.5.35v-.6c0-.17,0-.32,0-.44s.27-.11.45-.2l.12-.06C53.87,13.26,53.87,13.43,53.86,13.63Zm1.55-1.44c0,.05,0,.09.05.13v0a1,1,0,0,0-.08.11q0-.11-.09-.39l.05,0ZM54,10.85a3.75,3.75,0,0,0-.09-.56h0c.15.12.28.25.41.37Zm-.38-.73-.49.21,0-.15c0-.12-.06-.25-.1-.4l.22,0,.31.23Zm-1,.5a3.06,3.06,0,0,0-.05-.36,2.12,2.12,0,0,0-.09-.31l.41-.13a2.84,2.84,0,0,1,.16.38c0,.06,0,.11,0,.16Zm.34-1.06,0-.05.05,0Zm-.16.07-.37.18a2.14,2.14,0,0,0-.12-.28l-.05-.08.29-.08-.06-.14.1.06C52.64,9.41,52.71,9.52,52.77,9.63ZM52,10a3.85,3.85,0,0,0-.14-.46L52,9.51a2,2,0,0,1,.24.38l-.15.1-.13.08A.09.09,0,0,0,52,10Zm-.19-.59c0-.13-.11-.25-.18-.39a3.07,3.07,0,0,1,.31.32Zm-.15.07-.08.05L51.26,9h.09C51.46,9.19,51.56,9.35,51.64,9.5Zm0,.09c.08.16.15.31.2.44l0,.1-.05,0c-.09-.19-.18-.37-.28-.55Zm.25.58a3.47,3.47,0,0,1,.1.34l.05.17,0-.17c0-.09,0-.21-.06-.37l.15-.07.17-.07.11.27a3.39,3.39,0,0,1,.11.37l-.08,0-.31.19c-.06-.17-.13-.33-.2-.5l-.08-.18Zm.57.61.06,0,0,.14v-.15l.53-.2a.64.64,0,0,0,0,.09l0,.16v-.16a.31.31,0,0,1,0-.1l.57-.18a5.06,5.06,0,0,1,.19.53v0a9.94,9.94,0,0,0-.92.6l-.51.4a9.37,9.37,0,0,0-.32-1Zm0,2.61c0,.14,0,.28.05.43s0,0,0,.08a6,6,0,0,0-.72,0c0-.22,0-.43,0-.63Zm-.69,1.29a5.6,5.6,0,0,1,.81.26c0,.19,0,.37,0,.56l-.9,0A7.55,7.55,0,0,0,51.86,14.68Zm-.1.9.92.19,0,.61-.49,0-.6.06c0-.18.1-.37.14-.55Zm3.11.49L55,16l.13-.15a2.11,2.11,0,0,0,.19-.23h0c0,.37-.1.7-.14,1l-.09.17a6.22,6.22,0,0,1-.45.53c.11-.36.21-.74.32-1.15Zm.25,1c0,.33-.07.52-.07.52l.17-.62,0,0q-.1.39-.27,1c-.27.26-.54.48-.78.67.11-.29.22-.61.34-1A4.62,4.62,0,0,0,55.12,17.08Zm-.28,1.26-.22.72a8,8,0,0,1-1,.86c.08-.17.18-.39.29-.65s.12-.28.18-.44A5,5,0,0,0,54.84,18.34Zm-1.32,1.81a6.75,6.75,0,0,0,.95-.65l-.32.94-.22.18,0-.13L54.1,20l-.16.49-.06.19a4.32,4.32,0,0,1-.89.53c.09-.28.16-.53.22-.75a.83.83,0,0,1,0-.15l.24-.13-.08.2Zm.19.86.07,0-.28.83a4.64,4.64,0,0,1-1,.78c.17-.46.31-.88.42-1.24A4.45,4.45,0,0,0,53.71,21Zm-.54,1.34.17-.12c-.12.34-.27.72-.43,1.12a4,4,0,0,1-.58.58,4.07,4.07,0,0,1-.53.38l.06-.13c.15-.32.28-.63.4-.93s.13-.34.19-.5A3.53,3.53,0,0,0,53.17,22.35Zm-.82,2.37c-.11.24-.22.48-.33.74a7.64,7.64,0,0,1-1.35,1l.12-.19c.18-.34.37-.65.53-1C51.63,25.14,52,25,52.35,24.72Zm-1.81,3c-.26.33-.54.66-.81,1s-.67.43-1,.6c.28-.35.54-.71.79-1.06A6.14,6.14,0,0,0,50.54,27.7Zm-2.69,2.75c-.11.09-.22.18-.34.26a1.29,1.29,0,0,0,.16-.17Zm-3.71,3.11.38-.15a3.25,3.25,0,0,0,.43-.18l.17-.07c0,.05,0,.1.05.15a.17.17,0,0,0,0,.07c-.31.15-.56.25-.74.32l-.3.11v0A.62.62,0,0,0,44.14,33.56Zm1.12-.27c0-.06,0-.11-.08-.16.34-.15.68-.32,1-.5v.17a8.73,8.73,0,0,1-.87.51l-.06,0Zm1-.59,0-.08a8.78,8.78,0,0,0,1-.59,7.45,7.45,0,0,1-.95.74S46.23,32.72,46.23,32.7Zm2-1.41,0,0,.24-.25,0,0a.53.53,0,0,1,0,.13s0,0,0,0l-.07.09-.06-.05ZM51.4,8.64l.22.11,0,0-.09.05-.14-.22ZM51,8.45l-.08.06a3.48,3.48,0,0,1,.36.44l-.07,0c-.15-.23-.3-.45-.46-.65ZM47.27,7A6,6,0,0,1,48,7h.14a4.89,4.89,0,0,1,1.26.24,5.71,5.71,0,0,1,.52.38,5.6,5.6,0,0,1,.55.54l0,0,0,0a7.9,7.9,0,0,1,.92,1.36.74.74,0,0,0-.22-.05h-.13l.09.09c.05.06.13.14.2.24l.12-.13a5.3,5.3,0,0,1,.27.59.92.92,0,0,0-.29,0,.38.38,0,0,0-.16.06l.15,0a1,1,0,0,1,.33.18l0-.09c.06.16.11.32.17.47a4.28,4.28,0,0,0-.51.06,3.64,3.64,0,0,0,.57.22v-.06c0,.14.08.29.13.44a2.53,2.53,0,0,0-.48,0h-.07a1.37,1.37,0,0,0-.07-.24,4.63,4.63,0,0,0-.16-.44l-.07-.14.06.14c0,.1.09.24.14.43s.05.16.07.26l-.13,0,.14,0c0,.2.08.45.11.73l-.32,0,.33,0c0,.18,0,.37,0,.58v.05l-.24,0,.24.06c0,.21,0,.43,0,.67l-.3,0,.3.05c0,.13,0,.25,0,.38a1.49,1.49,0,0,1,0,.21h-.26l.26.06c0,.27-.06.54-.12.83h-.3l.29.07a2.82,2.82,0,0,1-.07.31c-.05.21-.11.43-.18.65l-.41,0a3.32,3.32,0,0,0,.38.05,4.16,4.16,0,0,1-.23.54l-.66.05.6.08a2.12,2.12,0,0,1-.11.21c-.07.11-.14.23-.22.34l-.19,0-.49.06-.34,0,.26-.37.09-.14.08-.14.15-.28c.09-.19.18-.36.25-.54l.1-.26.08-.25c.06-.17.1-.33.14-.48A6.38,6.38,0,0,0,51,14c0-.17,0-.29,0-.38v0c0,.08,0,.2,0,.36a6.24,6.24,0,0,1-.23,1.39,6.59,6.59,0,0,1-.94,2,6.73,6.73,0,0,1-1,1.16c-.37.13-.76.25-1.16.37.15-.2.27-.39.37-.54.21-.35.31-.55.31-.55s-.13.18-.38.49-.37.43-.64.7c-.74.21-1.52.41-2.35.6-1.3.3-2.65.56-4.09.78-.4-.55-.68-.88-.68-.88s.14.35.42.92l-.5.07a4.14,4.14,0,0,1-.8-1.49,4.45,4.45,0,0,1-.13-.55l0-.19v.19c0,.13,0,.31.06.56a4,4,0,0,0,.61,1.52l-.34.05-.23,0a2.39,2.39,0,0,1-.13-.21l.19-.05h-.21a5.84,5.84,0,0,1-.36-.76,1.34,1.34,0,0,1-.07-.18h0A7.45,7.45,0,0,1,38.26,18c0-.25,0-.5-.07-.74l.11,0h-.11a8.88,8.88,0,0,1,.14-1.95c0-.21.08-.4.13-.57h0c.11-.47.23-.84.32-1.11s.12-.33.16-.42l.06-.15-.06.14a3.66,3.66,0,0,0-.18.41,9.72,9.72,0,0,0-.38,1.13l-.85.13,0-.06c.08-.23.17-.47.27-.71l.38-.19.31-.15-.34.06-.26.06.28-.57c.59-.23.93-.39.93-.39s-.29,0-.79.14l.13-.24.21-.34c.47-.18.75-.31.75-.31l-.6.08.1-.15c.12-.18.25-.37.39-.55.49-.23.78-.39.78-.39s-.21,0-.58.12l.41-.51,0,0,.66-.31.34-.19-.65.16.39-.33v0c.71-.32,1.13-.56,1.13-.56s-.24,0-.65.15c.33-.27.68-.53,1-.77a12.76,12.76,0,0,1,2.1-1.12l.07,0c.36-.15.67-.26,1-.35A7.69,7.69,0,0,1,47.27,7ZM31.57,19.88a2.68,2.68,0,0,1-.21.43,3.22,3.22,0,0,1-.91,1l-2.35,0h-.22c-1.08,0-2.17,0-3.26-.06-.37-.52-.6-.81-.6-.81s.13.3.39.8l-1,0a4.15,4.15,0,0,1-.82-1,4.24,4.24,0,0,1-.51-1.3A5.28,5.28,0,0,1,22,18c0-.21,0-.32,0-.32s0,.11,0,.31a4,4,0,0,0,0,.9,4.22,4.22,0,0,0,.43,1.38,4.52,4.52,0,0,0,.63.91l-.78-.05a6.74,6.74,0,0,1-.94-2.07,8.24,8.24,0,0,1-.26-2.37,10.08,10.08,0,0,1,.27-2.08,13.86,13.86,0,0,1,.51-1.7,22.62,22.62,0,0,1,1-2.27c.25-.51.39-.77.39-.77s-.15.25-.4.74a22.51,22.51,0,0,0-1,2.21,12.12,12.12,0,0,0-.9,3.8,8,8,0,0,0,0,1.19,8.12,8.12,0,0,0,.19,1.27,7.09,7.09,0,0,0,.85,2l-.28,0-.2,0a5.31,5.31,0,0,1-.92-.35l-.09-.2a1.63,1.63,0,0,0,.41.05l.26,0,.09,0H21.1l-.25,0a2.61,2.61,0,0,1-.53-.22c0-.07-.05-.15-.08-.22a2.58,2.58,0,0,0,.49.06H21L20.75,20a4.62,4.62,0,0,1-.6-.25c0-.08,0-.16-.07-.25s0-.1,0-.15c.62.11,1,.15,1,.15s-.39-.17-1.05-.41a3.91,3.91,0,0,1-.07-.39c.53.09.87.12.87.12s-.33-.15-.91-.37c0-.17,0-.33,0-.5.61.12,1,.16,1,.16s-.37-.17-1-.4V17.3c.49,0,.8,0,.8,0s-.29-.11-.79-.25c0-.1,0-.21,0-.29s0-.09,0-.13l.51-.07.29-.07-.29,0-.48,0c0-.19.06-.37.09-.56l.73-.11s-.25,0-.69-.1c0-.15.07-.31.11-.47.36,0,.58-.1.58-.1L20.2,15v0a.25.25,0,0,1,0-.07c0-.14.08-.29.13-.44a3.5,3.5,0,0,0,.53-.1l-.47-.09c0-.1.07-.21.11-.31l.43-.05.23-.06-.23,0-.35-.06.12-.34c.42-.08.67-.15.67-.15s-.21,0-.58-.07c.06-.15.13-.29.19-.44a3.27,3.27,0,0,0,.54-.17,3.6,3.6,0,0,0-.43-.07c.08-.15.15-.31.23-.46.32-.05.51-.1.51-.1l-.41-.09.26-.49.16-.05.15,0-.14-.06-.07,0c.09-.16.19-.31.28-.46l.13-.08,0,0a12,12,0,0,1,1.72-2.08A1.85,1.85,0,0,1,24,8.43l.13.06a1.12,1.12,0,0,0,.06-.23,4.88,4.88,0,0,1,.45-.37h.12V7.8a7,7,0,0,1,1.07-.66l.21-.1a7.31,7.31,0,0,1,.9-.3,4.18,4.18,0,0,1,.68-.11h.69l.21,0a3,3,0,0,1,.39.08h0v0l.25,0a5.31,5.31,0,0,1,1.28.61,7.35,7.35,0,0,1,1.91,1.85,11.27,11.27,0,0,1,.8,1.23l-.26-.1a3.35,3.35,0,0,0,.43.47l0,0c.09.16.17.33.25.5a.81.81,0,0,0-.27-.08h-.23l.2.09a1.28,1.28,0,0,1,.41.38l0-.05.21.49a1,1,0,0,0-.29-.08h-.22c0-.07-.07-.14-.11-.2l-.18-.3a1.51,1.51,0,0,0-.14-.21L33,11.18l.1.17.13.21.17.29c0,.07.07.14.1.22h0a7,7,0,0,1,.34.86h-.1l.12,0c.07.23.14.47.2.74a.65.65,0,0,0-.18,0h-.09l.08,0,.22.09,0,.16q0,.22.09.48l-.18,0h-.09l.09,0,.19.08c0,.2.06.41.08.64l-.16,0H34l.1,0,.16.06c0,.27,0,.57,0,.87h-.14l.09,0h0c0,.28,0,.57,0,.87h-.08l-.1,0h.18l0,.45,0,.31h0l-.39,0a4.53,4.53,0,0,0,.08-.49,6.27,6.27,0,0,0,0-1.53c0-.17-.06-.3-.07-.39l0-.13,0,.13c0,.08,0,.21,0,.38a6.15,6.15,0,0,1,0,1.5,4.91,4.91,0,0,1-.1.5l-.07.27-.09.28a6.2,6.2,0,0,1-1.42,2.36,5.35,5.35,0,0,1-.55.51l-.77,0a3,3,0,0,0,.78-1.39l0-.16Zm-11.91,1-.26,0h.25ZM18,18.28l.16.06.12.05A5.62,5.62,0,0,1,18,19l-.29-.1.15-.27C17.88,18.51,17.94,18.4,18,18.28Zm.84-3.69c0-.08,0-.16-.05-.24.16,0,.33,0,.53.06a7.11,7.11,0,0,1,.09,1.14l-.46-.06A7.64,7.64,0,0,0,18.82,14.59Zm.37-.69.06.27h-.53a6.1,6.1,0,0,0-.37-1.08c.21.1.46.22.72.37A3.45,3.45,0,0,1,19.19,13.9Zm.2,1.91a1.85,1.85,0,0,1,0,.23c0,.19-.08.39-.12.62l-.34-.09a6.57,6.57,0,0,0,0-.88Zm-.16,1.08c0,.1,0,.2,0,.3s0,.12,0,.18v.09l0,.15h0l-.36-.11a6.94,6.94,0,0,0,.13-.75ZM19.38,20c0,.13.06.26.1.39l-.26-.12C19.28,20.15,19.33,20.06,19.38,20Zm-.3-2.15c-.07.23-.13.43-.2.62l-.37-.1a4.79,4.79,0,0,0,.21-.68Zm-.28.81c-.08.2-.18.39-.28.59-.12-.06-.24-.1-.34-.14a5.51,5.51,0,0,0,.28-.61Zm-.66.54.31.18c-.12.21-.25.42-.38.62l-.36-.09a5.49,5.49,0,0,0,.39-.64Zm1,1.25.4.08.1.3h-.06L19,20.63Zm.82-6.78.25-.07h0A3.25,3.25,0,0,0,20,14l-.09-.3S19.94,13.66,19.94,13.64Zm.31-.17h-.37l-.12-.33a2.1,2.1,0,0,0,.39-.11l.28-.12-.3,0h-.45c0-.1-.09-.2-.14-.3.36-.06.65-.12.87-.17l.39-.1C20.6,12.72,20.42,13.09,20.25,13.47ZM17.94,11.2a4.88,4.88,0,0,0-1-.36l-.31-.08a7,7,0,0,0-.57-.69,2.66,2.66,0,0,0-.23-.24l.26.08a4.53,4.53,0,0,1,1.51.89Zm-1-.28a5.81,5.81,0,0,1,1.29.7l.12.19.21.4a5.46,5.46,0,0,0-.85-.36l-.41-.11-.19-.33c-.13-.2-.25-.39-.38-.56Zm.73,1a5.94,5.94,0,0,1,1.07.63c.09.2.17.41.25.63-.27-.11-.51-.19-.71-.25l-.06-.12A3.74,3.74,0,0,0,18,12.4l-.08-.14.07.14a3.22,3.22,0,0,1,.21.42l0,.12-.07,0-.36-.1a8.91,8.91,0,0,0-.48-1ZM18.13,13l.17.08a6.32,6.32,0,0,1,.34,1.1h-.42c-.07-.29-.14-.57-.23-.84a4.72,4.72,0,0,0-.16-.45Zm.11,1.27.44.07a1.43,1.43,0,0,0,0,.22,8.2,8.2,0,0,1,.09.92l-.42-.05a8.54,8.54,0,0,0-.15-1.16Zm.57,1.38a6.93,6.93,0,0,1,0,.89l-.38-.06c0-.23,0-.46,0-.68a2.44,2.44,0,0,1,0-.27Zm-.43.93.36.12a5,5,0,0,1-.15.73v0l-.28-.07h0C18.31,17.1,18.35,16.84,18.38,16.58Zm-.11.89.28.11c-.07.23-.15.47-.24.7l-.13,0-.18,0a5.56,5.56,0,0,0,.24-.76Zm-.59,1.43.26.15a7,7,0,0,1-.49.76l-.39-.09A4.11,4.11,0,0,0,17.68,18.9Zm-.64.84.35.15c-.11.14-.22.28-.34.41l-.33,0-.25,0a3.29,3.29,0,0,0,.41-.33A1.29,1.29,0,0,0,17,19.74Zm-.63.55.28.06.25.07-.15.16h0l-.67-.09Zm.82.21.34.12,0,.05-.21,0-.2,0Zm.49-.06-.37-.08c.1-.12.19-.24.28-.37l.33.14Zm3.11.57h-.16v0ZM24.25,7.88h.21L24.24,8A.86.86,0,0,0,24.25,7.88Zm2-2.5,0,0a4.23,4.23,0,0,1,.25.42,3,3,0,0,0-.77.08,2.74,2.74,0,0,0-.29-.46A3.13,3.13,0,0,1,26.22,5.38Zm2.07.35.76-.13.26,0a4.92,4.92,0,0,0-.19.58l-.13,0a5.4,5.4,0,0,0-.84,0C28.19,6,28.24,5.86,28.29,5.73Zm-.22.63c.37-.07.68-.11.91-.13h.12c0,.13-.07.27-.09.41H29a2.83,2.83,0,0,0-.4-.07l-.21,0H28Zm-1-.9.37-.16c-.07.14-.13.28-.19.42Zm.4-.21a5.21,5.21,0,0,0-.53,0L26.72,5l1-.17C27.59,5,27.52,5.1,27.45,5.25Zm-.82.83.15.3L26,6.63a2.86,2.86,0,0,0-.21-.58A3.47,3.47,0,0,1,26.63,6.08Zm.25.54v0a5.44,5.44,0,0,0-.86.29,5.07,5.07,0,0,0-.83.43c0-.16-.08-.3-.12-.44l.32,0A10.41,10.41,0,0,0,26.88,6.62Zm11.69,4.81,0-.1.09,0ZM38.07,18c0,.27.08.55.14.83l-.05,0a.83.83,0,0,1-.26,0l-.44,0h-.05a4.64,4.64,0,0,1-.11-.51,2.6,2.6,0,0,1,.31-.07l.27-.06-.27,0-.34,0a5.61,5.61,0,0,1-.06-.59h.07l.55-.17.2-.06C38,17.54,38.05,17.76,38.07,18Zm-4.39,2.5h0a5.09,5.09,0,0,0,.3-.5c.19,0,.43.07.71.14,0,.11-.08.21-.13.32C34.18,20.45,33.9,20.47,33.68,20.49Zm.92-6.58a1.67,1.67,0,0,0-.45-.18c-.07-.26-.14-.5-.22-.71h0a1.63,1.63,0,0,1,.47.32C34.5,13.53,34.55,13.72,34.6,13.91Zm1.85,6.19,0,0c-.07-.09-.15-.19-.23-.31l.16-.08c0,.08,0,.16.07.25l.06.17ZM35.63,19c0-.16,0-.32,0-.48.13.16.26.3.38.43l-.42.07Zm.54-.12-.32-.47.24-.1C36.11,18.5,36.14,18.69,36.17,18.88Zm-.12-1.24-.12-.19.12,0v.23Zm0-.75L36,16.72l.11,0C36.08,16.75,36.08,16.82,36.07,16.89Zm0-.31h-.21l0-.05.25,0A.34.34,0,0,0,36.1,16.58Zm-.47.2.15,0,.28.3a1.93,1.93,0,0,1,0,.24h-.21L35.65,17A1.94,1.94,0,0,1,35.63,16.78Zm0,.75.08,0,.3.34c0,.1,0,.2,0,.31l-.37.05,0,0C35.69,18,35.69,17.75,35.68,17.53Zm-.16,2.17c0-.13,0-.26.07-.39l.33.37A1.7,1.7,0,0,1,35.52,19.7Zm.26-.49a2.35,2.35,0,0,0,.38-.14l.06.06c0,.16.07.31.11.45h0l-.22.06Zm.49-3.65,0,.07a6,6,0,0,1-.79.08,2.21,2.21,0,0,0-.05-.25,1.53,1.53,0,0,0,.84-.09l.07,0A1.74,1.74,0,0,0,36.27,15.56ZM35,15.78c0,.06,0,.11,0,.17a2.51,2.51,0,0,1,0,.27,2.24,2.24,0,0,0-.49-.1h-.07c0-.28,0-.55,0-.82a3.51,3.51,0,0,1,.52.31ZM35.45,20l.11.11h-.13A.36.36,0,0,1,35.45,20Zm.22-.09a1.89,1.89,0,0,0,.38-.11l.29.3a3.58,3.58,0,0,1-.49,0Zm.72-5.14.09,0c0,.14-.1.29-.14.44l-.11,0a1.71,1.71,0,0,1-.88-.11.5.5,0,0,0,0-.13l.4-.09a3.56,3.56,0,0,0,.49-.09Zm-1.69-.5c0,.11,0,.23.08.34a2.61,2.61,0,0,0-.47-.16c0-.16-.06-.32-.1-.47l0-.13A2,2,0,0,1,34.7,14.29Zm.14.66c0,.13,0,.26.07.39a2.72,2.72,0,0,0-.49-.14h0l-.09-.6A2.22,2.22,0,0,1,34.84,15Zm-.31,1.27a2.32,2.32,0,0,1,.53.24v.11l0,.52a2.21,2.21,0,0,0-.57-.08h0c0-.28,0-.55,0-.82Zm0,.89a2.23,2.23,0,0,1,.58.2c0,.2,0,.39,0,.58-.24,0-.46,0-.64-.05,0-.08,0-.16,0-.24s0-.33,0-.5Zm.55,1c0,.1,0,.21,0,.31s0,.17,0,.25c-.25,0-.47-.06-.64-.07h0c0-.22.05-.43.07-.64A5.56,5.56,0,0,1,35.07,18.14Zm-.71.59c.16,0,.37.09.62.17l-.09.44a3.31,3.31,0,0,0-.67,0,3.9,3.9,0,0,0,.13-.57Zm-.18.69a6,6,0,0,1,.65.14c0,.12-.07.24-.11.36a4.92,4.92,0,0,0-.72,0s0,0,0-.06A2.78,2.78,0,0,0,34.18,19.42Zm1.11,1.19.06.05h-.09Zm.09-.23.43,0,.23.2-.44.06Zm.64-.05a3.45,3.45,0,0,0,.43-.1l.12.11a.42.42,0,0,0,0,.1v0l-.41.05ZM37.46,19h0a2.66,2.66,0,0,0,.45-.07.72.72,0,0,0,.26-.11l0,0a5.78,5.78,0,0,0,.18.65l-.77.12C37.57,19.41,37.51,19.23,37.46,19Zm.36-1.75-.57.07h0c0-.12,0-.23,0-.34s0-.25,0-.39l.37-.14.31-.1h-.32l-.34,0c0-.1,0-.2,0-.31l0-.22a4.67,4.67,0,0,0,.54-.19,3.33,3.33,0,0,0,.35-.15A8.56,8.56,0,0,0,38,17.27Zm.36-1.72-.37.07-.49.08a2.82,2.82,0,0,1,.07-.31c0-.11,0-.21.07-.31.45-.15.76-.28.91-.34,0,.15-.08.31-.12.49A3,3,0,0,0,38.18,15.57Zm-1.25-1.84-.35.06h-.07a3.6,3.6,0,0,0,.52-.26C37,13.6,37,13.66,36.93,13.73Zm-.68.16.12,0,.2,0,.27,0c-.09.2-.18.41-.26.62a1.65,1.65,0,0,1-.41.14,3.58,3.58,0,0,1-.94,0l0-.12c.43-.14.68-.25.68-.25s-.28,0-.74,0a2.76,2.76,0,0,1-.08-.27l.18-.06A3.21,3.21,0,0,0,36.25,13.89Zm-2.26-1H33.9a6.49,6.49,0,0,0-.37-.85h0a.6.6,0,0,1,.18.07,1.1,1.1,0,0,1,.49.44c0,.13.09.27.14.41A1.27,1.27,0,0,0,34,12.94Zm-1.7,8a5.77,5.77,0,0,0,.88-1.24l.09-.16.07-.15c.05-.11.1-.21.14-.31s.16-.4.21-.6l.08-.29.06-.28v0l.38.07h0c0,.22,0,.45-.09.68h-.23l.22,0c0,.21-.1.43-.17.64a2.88,2.88,0,0,0-.36.05l.33,0-.12.3-.1.21-.31,0,.27,0a4.29,4.29,0,0,1-.4.58h0a4.88,4.88,0,0,1-.7.66l-.59,0C32.1,21.14,32.2,21,32.29,20.93Zm.74.26h0ZM34.27,21c-.59.06-1,.13-1.21.16a4.7,4.7,0,0,0,.52-.58h.1l.75.08C34.38,20.77,34.33,20.89,34.27,21Zm.86,0,0-.09.4-.11.22.16-.67.06Zm.79-.05-.17-.2.44-.12.08.06.29.2Zm.7-.06-.29-.27,0,0,.33-.1.17.38Zm1.8-1.4a1,1,0,0,0,0,.16l.12.3-.78.06a2.33,2.33,0,0,1-.11-.28Zm-.54.68c.4-.11.65-.2.71-.22.06.14.12.27.19.41h0c-.21,0-.48,0-.81,0C37.93,20.32,37.9,20.27,37.88,20.21Zm.89.28h0l.11.2-.78.09-.09-.19A5.44,5.44,0,0,0,38.77,20.49ZM39.86,10h.07l-.07,0ZM41.59,8.7l.31.05L41.5,9l-.11.08v0h-.08Zm2.14-1.9a4.67,4.67,0,0,0,.72.22V7.1c0,.12-.07.24-.1.36l-.83,0C43.6,7.21,43.67,7,43.73,6.8Zm-.26.71.57.16c-.29.12-.58.24-.86.38A4.74,4.74,0,0,0,43.47,7.51Zm2.66-.86h0a4.13,4.13,0,0,0-.75.3,3.56,3.56,0,0,0-.35.22l.38-.13a5.19,5.19,0,0,1,1.09-.19l0-.09L47,6.9a9.32,9.32,0,0,0-1.66.32l-.19,0c-.19.06-.4.13-.62.22a.29.29,0,0,1,0-.09c0-.1.05-.2.07-.3h0v0c0-.08,0-.15,0-.22h0A5.74,5.74,0,0,1,45.7,6.7V6.53l.39.11Zm-.69-.19a3.64,3.64,0,0,0-.79.26l.06-.44ZM31.77,1.94a1.57,1.57,0,0,0,.27,0,.49.49,0,0,0,.14-.06l-.13,0h0c.3-.14.62-.28,1-.41A14.39,14.39,0,0,1,36.84.62a12,12,0,0,1,3.3.19,7.15,7.15,0,0,1,2.38.9l.22.15a4.62,4.62,0,0,1,.92.82l.09.11h0A2.7,2.7,0,0,1,44,3.1l.11.17.09.18a3,3,0,0,1,.15.34,4.31,4.31,0,0,1,.3,1.35,1,1,0,0,0-.21.13.64.64,0,0,0,.22.13c0,.17,0,.36,0,.57a.59.59,0,0,0-.38,0A.5.5,0,0,0,44.1,6l.13,0a.7.7,0,0,1,.28.15l.1-.19h0s0,.07,0,.1a.22.22,0,0,0,0,.08c0,.19-.05.38-.09.58h0v0a5.77,5.77,0,0,0-.77,0,4.42,4.42,0,0,0,.13-1.12,3.6,3.6,0,0,0-.07-.7c0-.16,0-.24,0-.24l0,.23a5,5,0,0,1,0,.7,4.63,4.63,0,0,1-.22,1.07A4.25,4.25,0,0,1,43,7.91c-.43,0-.7,0-.7,0s.28.09.74.2l-.74.4v0l-.59.09a6.34,6.34,0,0,0,.59-1.09,6.14,6.14,0,0,0,.27-.77l.07-.28-.09.26c-.07.17-.17.42-.33.73A6.1,6.1,0,0,1,41,9.11l-.4,0h-.32l.3.09.23,0a4.84,4.84,0,0,1-.48.4l0,.05a2.49,2.49,0,0,1-.87.19l-.33,0-.11,0,.1,0a2.07,2.07,0,0,0,.33.09h.08l-.28.12a4.76,4.76,0,0,0,.56.06h.06l-.2.17a3.35,3.35,0,0,1-1.27.28l.1,0,.28,0a3,3,0,0,0,.51,0l-.19.18-.3.29a1.92,1.92,0,0,0-.38,0,1.57,1.57,0,0,0-.25.06l.15,0-.55.1-.29,0a1.24,1.24,0,0,0,.28.07,3,3,0,0,0,.72,0c-.17.18-.32.36-.47.55a4.14,4.14,0,0,0-.74.09,2.94,2.94,0,0,0-.41.1h.41c.15,0,.35,0,.57,0-.14.19-.28.38-.4.56-.65.06-1,.12-1,.12s.33.06.9.11l-.16.26a3.4,3.4,0,0,1-.93.37,3.12,3.12,0,0,1-1.26,0l-.06-.17a4.85,4.85,0,0,0,.53-.19,3.41,3.41,0,0,0-.61,0c-.05-.15-.1-.29-.16-.43a3,3,0,0,0,.36-.12,2.26,2.26,0,0,0-.46-.14l-.2-.47a14,14,0,0,0-1.8-3,8.4,8.4,0,0,0-2-1.85,5.86,5.86,0,0,0-1.29-.6,4,4,0,0,1,.09-.5h0a5.92,5.92,0,0,1,.26-.81,6.11,6.11,0,0,1,.64-1.16l.09-.13.1-.11.18-.23c.14-.14.25-.29.39-.41l.19-.18L31.42,3l.38-.28A5.67,5.67,0,0,1,33,2.09c.14-.06.26-.09.34-.12l.11,0-.11,0-.34.1a5.62,5.62,0,0,0-1.24.57,6.16,6.16,0,0,0-1.62,1.45,5.51,5.51,0,0,0-.71,1.19,2,2,0,0,0-.11.26l-.28,0h-.66l.15-.34a.41.41,0,0,0,.05-.09l.6-.13.38-.06-.38,0h-.47c.08-.15.17-.3.26-.44l0-.06c.57-.07.9-.14.9-.14s-.27,0-.76,0c.08-.12.16-.22.24-.32.52-.11.83-.2.83-.2l-.63,0,.4-.42.4-.06.3,0L30.41,3,30.2,3l.46-.37a4.74,4.74,0,0,1,.55-.12l.26,0-.25-.06-.21,0,.12-.09ZM27.91,4.42c-.08.12-.15.24-.21.35l-1.18,0-.26-.3Zm-1.86.71a2.56,2.56,0,0,0-.7.2l-.06-.08c-.13-.15-.26-.29-.4-.43h0c.22,0,.54,0,.92,0C25.9,4.93,26,5,26.05,5.13Zm-.86-1c.1.1.2.21.29.32h0l.11.13a5.39,5.39,0,0,0-.73.15l-.07,0q-.28-.25-.57-.48l.2,0a4.12,4.12,0,0,1,.45-.08l.28,0Zm-12.81-1a.52.52,0,0,0,.21-.09A.32.32,0,0,0,12.67,3h-.1l-.1,0,.11-.26c.09-.18.17-.33.26-.48a4.85,4.85,0,0,1,.69-.87,2.74,2.74,0,0,1,.27-.25L14,1l.18-.11a3.39,3.39,0,0,1,.32-.19A4.71,4.71,0,0,1,16,.18a7.18,7.18,0,0,1,2.55.15,12.15,12.15,0,0,1,2.7,1h0a.61.61,0,0,0-.16.08h.17a1.15,1.15,0,0,1,.4.13v0h0L22,1.7a.74.74,0,0,0-.16.12.4.4,0,0,0-.13.14l0,0,.06,0,.15-.08a1.45,1.45,0,0,1,.34-.07l.6.37a1,1,0,0,0-.18.09.72.72,0,0,0-.15.13l0,.06.05,0,.17-.07a.72.72,0,0,1,.45,0c.19.13.39.27.57.41l-.25.07a.7.7,0,0,0-.19.12,1,1,0,0,1,.21,0A1,1,0,0,1,24,3.1v0l.34.28a2.53,2.53,0,0,0-.35.14l-.2.13-.06,0a1.94,1.94,0,0,1,.29-.08,2,2,0,0,1,.53,0,3.45,3.45,0,0,1,.28.26l.13.12-.14,0a3.54,3.54,0,0,0-.44.16l-.22.12h0a21.18,21.18,0,0,0-2-1.4c-.56-.35-1-.61-1.31-.77l-.47-.25.45.26c.29.18.72.45,1.25.82A22,22,0,0,1,24,4.35l.54.48,0,0h.06a6.52,6.52,0,0,1,.5.54l0,0-.16.1-.08.06.09,0,.2-.06a2.47,2.47,0,0,1,.29.47L25.31,6a2.81,2.81,0,0,0-.38.18l-.13.08.13,0c.09,0,.23-.08.4-.12l.2,0a3.33,3.33,0,0,1,.21.63l-.35.09-.33.09a4.13,4.13,0,0,0-.35-.76,4.35,4.35,0,0,0-.62-.79,5.25,5.25,0,0,0-.49-.41l-.18-.12.16.14c.1.1.26.24.43.44a4.53,4.53,0,0,1,.81,1.55h0c0,.15.08.31.11.47l.26,0a4.68,4.68,0,0,0-.4.27v0a2.28,2.28,0,0,0-.55.14,1.51,1.51,0,0,0-.11-.42A1.62,1.62,0,0,0,24,7.07L23.93,7l0,.1a1.07,1.07,0,0,1,.08.28,1.93,1.93,0,0,1,0,.49L24,7.9h.09a1.67,1.67,0,0,1-.11.41l-.17.15a13.85,13.85,0,0,0-2.26,2.7l0,0h0v0l-.38.61h0l-.28.5-.4,0-1,0c-.06-.13-.14-.26-.21-.39.88-.09,1.41-.17,1.41-.17s-.57,0-1.55-.06l-.16-.26.89-.12.46-.05-.45,0a8.5,8.5,0,0,0-1.06,0c-.08-.11-.17-.22-.25-.34l.75-.07.44,0-.43-.06a7.31,7.31,0,0,0-.95-.06l-.21-.26c.67-.1,1.08-.18,1.08-.18s-.48,0-1.28,0l-.33-.34.44,0,.35-.06-.34,0-.68-.08L17,9.33l.33,0a1.77,1.77,0,0,0,.31-.07,2.14,2.14,0,0,1-.3,0,3.27,3.27,0,0,1-.66-.15l-.35-.28h.26l.23,0a1.35,1.35,0,0,0-.2-.11A1.79,1.79,0,0,0,16,8.55c-.33-.25-.68-.49-1-.72a5.05,5.05,0,0,1-1-1.89,6.83,6.83,0,0,1-.15-.67l0-.23v.23a4.19,4.19,0,0,0,.07.68,5.2,5.2,0,0,0,.58,1.57L14,7.26c-.21-.12-.42-.22-.64-.33a4.88,4.88,0,0,1-.61-2.07,4.17,4.17,0,0,1,0-.62l0-.22-.05.21a5.17,5.17,0,0,0-.07.62,4.24,4.24,0,0,0,.08,1l-.24,0a3.2,3.2,0,0,1-.57,0c0-.12,0-.24,0-.36a6.2,6.2,0,0,0,.65-.23,4.66,4.66,0,0,0-.63,0V5.16c0-.11,0-.22,0-.33a3.79,3.79,0,0,0,.59-.24,4.3,4.3,0,0,0-.55,0c0-.21.07-.4.11-.58a.66.66,0,0,0,.28-.13.35.35,0,0,0,.11-.1h-.33C12.25,3.53,12.32,3.33,12.38,3.16Zm.45,3.21c-.11,0-.42,0-.89-.07v0l0,0V6.1h0A2,2,0,0,0,12.49,6a1,1,0,0,0,.22-.1C12.74,6,12.78,6.2,12.83,6.37Zm0,0a2.53,2.53,0,0,0,.12.36l-.59-.25Zm-1.17-.2h0v.06h0l0,0-.05,0ZM4.15,8.49l0-.09.09-.18c0-.08.1-.16.14-.24a5,5,0,0,1,.92-1.11,3.08,3.08,0,0,1,.3-.24l.18-.13L6,6.4a2.38,2.38,0,0,1,.36-.18A4.49,4.49,0,0,1,8,5.81a7.13,7.13,0,0,1,2.64.3l.14,0,.1,0,.34.11.49.18.09,0h0l.12.05h0l.77.35V7h.2l.18.1,0,0h0c.23.12.45.25.67.38s.39.24.57.37a3,3,0,0,0-.33-.1l-.39-.07-.13,0,.12,0a3.14,3.14,0,0,1,.36.14,4.43,4.43,0,0,1,1.2.74l.06-.09c.19.15.38.3.55.45a4.48,4.48,0,0,0-.59-.22l-.43-.1-.15,0,.14,0a3,3,0,0,1,.4.16,5.81,5.81,0,0,1,1.33.83l0,0,.44.44,0,.06a4,4,0,0,0-.9-.31l-.36-.06-.18-.18c-.15-.13-.29-.26-.42-.36L14.85,9c-.1-.08-.19-.13-.26-.18l-.22-.15.21.15.25.18.33.27a6.78,6.78,0,0,1,.57.54H15.5l.16,0a.27.27,0,0,1,.12,0,8.85,8.85,0,0,1,.78.93l-.15,0-.2,0,.19.05.2.06c.13.18.27.38.4.6s.11.2.17.3l-.13,0,.14.05a8.51,8.51,0,0,1,.48,1l-.12,0,.13.05c.06.15.12.32.17.48s.16.57.22.87h-.3l.31.07a9,9,0,0,1,.14,1.19l-.25,0,.25.07a2.44,2.44,0,0,1,0,.27q0,.35,0,.72l-.33,0,.32.08a7.58,7.58,0,0,1-.13.81l-.3-.06.29.11a6.21,6.21,0,0,1-.26.8l-.12,0,.11,0c0,.09-.08.19-.13.28a4.14,4.14,0,0,1-.91,1.22,3.57,3.57,0,0,1-1.13.7l-.6-.09,0,0a3.58,3.58,0,0,0,.91-.8,4.1,4.1,0,0,0,.8-1.75,5.45,5.45,0,0,0,.11-1.2,2.33,2.33,0,0,0,0-.32v0c0,.07,0,.17,0,.31a5.32,5.32,0,0,1-.17,1.17,4,4,0,0,1-.83,1.65,3.41,3.41,0,0,1-.89.73,2,2,0,0,1-.33.16c-1.16-.19-2.26-.41-3.31-.66S9.1,19,8.12,18.72L8,18.58a2.8,2.8,0,0,1-.23-.29l-.08-.1.05.11c0,.08.09.19.17.33l0,0c-.36-.12-.71-.24-1-.37a8.14,8.14,0,0,1-1.44-2.57c-.13-.39-.21-.7-.26-.91l-.06-.32,0,.32a7.18,7.18,0,0,0,.19.92,8,8,0,0,0,1.1,2.4L6.19,18a5.67,5.67,0,0,1-.48-.87h0s0-.08,0-.11-.12-.3-.15-.39l0-.14,0,.15a4,4,0,0,0,.08.4v0l-.33-.17c-.15-.09-.34-.19-.54-.32A5.33,5.33,0,0,1,4.47,16l.22.09.39.13.14,0-.12-.06L4.74,16l-.34-.2a1.82,1.82,0,0,0-.07-.25c0-.15-.07-.3-.1-.45l.23.09c.17.05.31.07.4.09H5l-.13,0a2.59,2.59,0,0,1-.37-.15l-.31-.18C4.12,14.6,4.08,14.3,4,14l.17.06.36.1.13,0-.12-.05L4.26,14,4,13.86c0-.22,0-.44-.06-.64v0l.08,0,.33.12.12,0-.1-.05-.29-.18L4,13.05c0-.32,0-.6,0-.85l.19.13-.2-.23c0-.14,0-.27,0-.38v-.44l.09,0-.09-.11v0l-.42-.42v0c0-.13,0-.26.07-.39a5.05,5.05,0,0,0,.54.33,5.47,5.47,0,0,0-.48-.61c0-.16.08-.33.13-.49a.5.5,0,0,0,.2.19l.12.06h0A.61.61,0,0,1,4,9.73a.63.63,0,0,1-.08-.38h-.1l.09-.28C4,8.87,4.06,8.67,4.15,8.49ZM3.23,18.86l-.17-.09a5.56,5.56,0,0,1-.51-.29c-.18-.12-.4-.27-.63-.45,0-.24,0-.5-.07-.76l.31.2a5.57,5.57,0,0,0,.51.25l.18.07-.17-.09-.45-.31a4.4,4.4,0,0,1-.4-.31c0-.21,0-.43,0-.65a10.17,10.17,0,0,0,1.25.94A6.3,6.3,0,0,0,3.23,18.86ZM3.65,9.4c-.09.27-.17.55-.24.85l0,0h0l-.09.45h0l-.12.17.08.05c0,.16,0,.34-.07.51l-.13.15.11.08c0,.21,0,.43-.05.65L3,12.41l.08.11c0,.26,0,.51,0,.78l-.06,0,.06.06c0,.12,0,.24,0,.37l0,.47c0,.56.12,1.12.21,1.66l-.11-.08a5,5,0,0,1-.17-1c0-.25,0-.45,0-.58v-.21l0,.2c0,.09,0,.23,0,.39l-.13-.07-.39-.23c0-.14,0-.27,0-.39a3.46,3.46,0,0,1,0-.43l.36.21-.37-.28a3.33,3.33,0,0,0,0-.34v-.3l0,.29a2.54,2.54,0,0,0,0,.31l-.89-.68c0-.22,0-.41,0-.57.76.38,1.22.58,1.22.58S2.2,12.46,1.42,12v-.24l0,.23-.31-.2c0-.08,0-.16,0-.24l0,0,.07-.1.3.07v.38l0-.12c0-.06,0-.14.06-.24l.34.12h0v.13l0-.13a4.14,4.14,0,0,1,.41.18l.36.18.12.08-.1-.1-.32-.24c-.12-.08-.27-.17-.44-.26,0-.06,0-.14,0-.22l.06-.2.43.18v.08l0,.15v-.22l.34.13a3.5,3.5,0,0,0,0,.48L3,12V11.8c0-.14,0-.35,0-.62s.07-.36.12-.57h0a5.37,5.37,0,0,1,.58-1.39l0,.14h0A.06.06,0,0,0,3.65,9.4Zm.21,2.65-.47-.51c0-.16,0-.33,0-.49a4.27,4.27,0,0,0,.45.22l0,.44C3.86,11.81,3.86,11.92,3.86,12.05Zm0,1.14,0,.58a2.84,2.84,0,0,1-.52-.48c0-.17,0-.35,0-.52a2.58,2.58,0,0,0,.51.38Zm.29,2.36v.07a7,7,0,0,1-.56-.47c0-.16-.05-.32-.08-.49A2.42,2.42,0,0,0,4,15,5.35,5.35,0,0,0,4.15,15.55ZM1.47,13v0c.36.22.65.4.87.52,0,.14,0,.29,0,.46s0,.21,0,.32h0c-.22-.14-.47-.31-.76-.52C1.53,13.49,1.5,13.24,1.47,13ZM3,15.67l-.23-.18-.13-.1c-.08-.33-.15-.65-.19-.93l.36.16.15.06c0,.06,0,.12,0,.19A6.2,6.2,0,0,0,3,15.67Zm.79.49.08,0-.05.08Zm-.35.29a4.74,4.74,0,0,1-.2-.56l.1.06C3.41,16.12,3.44,16.28,3.48,16.45ZM1.86,15l.38.27c0,.16,0,.35.06.54l-.24-.22C2,15.35,1.92,15.15,1.86,15ZM2.62,16c-.07-.25-.13-.48-.18-.68l.05,0q.06.31.15.66Zm.11-.49h0l.3.2a5.69,5.69,0,0,0,.18.71l-.07,0L3,16.3A6.59,6.59,0,0,1,2.73,15.55Zm-.28-.34-.05,0c0-.15-.06-.27-.08-.39s-.06-.35-.07-.43h0l.08.05C2.37,14.64,2.4,14.92,2.45,15.21Zm-.21-.87c0,.08,0,.23,0,.44V15l-.46-.37q-.09-.35-.15-.66C1.85,14.14,2.06,14.25,2.24,14.34Zm-.71.12-.27-.24c0-.19-.07-.37-.1-.52l.29.19C1.47,14.07,1.5,14.26,1.53,14.46Zm.07.31c0,.14.06.28.1.43l-.34-.39c0-.08,0-.16,0-.24Zm3.62,2.85a5.65,5.65,0,0,1-.41-.76l.38.15.39.13a5.5,5.5,0,0,0,.27.76Zm-.43-.25A7.54,7.54,0,0,1,4,16.82c0-.14-.09-.29-.14-.44l.62.34C4.58,16.93,4.68,17.15,4.79,17.37Zm-.47-1,.06,0v0Zm0,0c-.07-.06-.28-.26-.62-.53,0-.09,0-.19-.07-.29a4.93,4.93,0,0,0,.54.33Zm-.91-2.13h0c0-.19,0-.38-.05-.57a2.18,2.18,0,0,0,.51.31c0,.26,0,.53.09.82A2.83,2.83,0,0,1,3.46,14.23Zm-.11-1.84c0-.19,0-.37,0-.56.2.15.36.26.49.34,0,.23,0,.5,0,.8A2.48,2.48,0,0,1,3.35,12.39ZM1,12.4c0-.11.05-.24.08-.4l.34.17c0,.15,0,.32,0,.53Zm1-1-.29-.13a1.93,1.93,0,0,1,.15-.39L2,11l0,.23A1.62,1.62,0,0,0,2,11.39Zm1-.82a4.54,4.54,0,0,0-.07.58v.16l-.33-.21c0-.07,0-.15.05-.24a2.15,2.15,0,0,1,.11-.37Zm-.2-.2a3.15,3.15,0,0,1,.26-.52h.11a3.61,3.61,0,0,0-.16.65Zm-.25.47v.23l-.37-.23a2.88,2.88,0,0,1,.22-.49l.21.08A3.7,3.7,0,0,0,2.54,10.84Zm.64-1-.07,0a1.88,1.88,0,0,1,.16-.23l0,0,.08-.05C3.26,9.57,3.22,9.69,3.18,9.8Zm-.38,0a3.16,3.16,0,0,0-.16.46l-.16-.1.17-.25h0l.14-.1Zm-.64.51a2.83,2.83,0,0,0-.13.42l-.12-.07a2.79,2.79,0,0,1,.16-.28Zm-.61.89-.18-.06.25-.3A2.83,2.83,0,0,0,1.55,11.22Zm-.72.89A1.12,1.12,0,0,1,.88,12v.36l-.11-.08h0Zm.06.52a.5.5,0,0,0,0,.11.32.32,0,0,1,0-.09l.45.28V13c0,.19,0,.4,0,.64l-.32-.27L1,13s0,.12,0,.35C.9,13.2.77,13.08.65,13v-.18h0a.6.6,0,0,1,0-.2s0-.05,0-.07Zm.14,1c0,.13,0,.28,0,.44l-.31-.28,0-.13h0a.82.82,0,0,1,0-.28v0A4.68,4.68,0,0,0,1,13.6Zm0,.78v.15L1,14.43l-.09-.16Zm-.41.78.13.18a2.85,2.85,0,0,0,.31.38l.13.15.31.32c0,.22,0,.44,0,.66a6.09,6.09,0,0,1-.76-.91h0C.76,15.68.71,15.41.66,15.16ZM1.6,17.1c0,.26.06.51.1.75a5.81,5.81,0,0,1-.57-.55C1.06,17,1,16.76.94,16.5A5.88,5.88,0,0,0,1.6,17.1Zm.14,1c0,.23.09.45.14.66a6.49,6.49,0,0,1-.49-.45l-.15-.59C1.41,17.88,1.58,18,1.74,18.12Zm.22,1c.08.32.16.61.24.86l0,.05c-.14-.11-.29-.22-.44-.35-.1-.32-.18-.61-.26-.88Zm.37,1.23c.11.31.21.55.28.74l.13.28a5.59,5.59,0,0,1-.56-.47c-.09-.27-.19-.55-.27-.81A4.78,4.78,0,0,0,2.33,20.35ZM3.47,22a4.31,4.31,0,0,0,.53.2l.18.06L4,22.15l-.49-.26a6.31,6.31,0,0,1-.77-.51l-.11-.29-.22-.69a5.81,5.81,0,0,0,.91.42l.56.19.2,0L3.91,21c-.13-.05-.31-.13-.53-.24a7,7,0,0,1-1-.62c0-.05,0-.1,0-.14-.06-.22-.12-.47-.17-.74.29.2.55.35.76.47s.38.2.5.26l.18.08L3.41,20,3,19.64c-.24-.18-.54-.4-.88-.69,0-.22-.08-.45-.12-.7a5.49,5.49,0,0,0,.54.31l.56.24.18.06a4.6,4.6,0,0,0,.14.51,4.32,4.32,0,0,0,.22.57l.09.2-.06-.2a5.75,5.75,0,0,1-.15-.58,6.71,6.71,0,0,1-.15-1.83l0,0,.49.28.36.19a1.8,1.8,0,0,0,.2.51,1.76,1.76,0,0,0,.13.2l0,.07s0-.11-.09-.3a2.56,2.56,0,0,1-.07-.36c.44.23.9.44,1.36.65a44.11,44.11,0,0,0,10.82,2.85v0l1.37.19c.68.09,1.41.17,2.24.25l1.13.11c.88.07,1.77.13,2.63.17h.27c1.28.06,2.57.1,3.84.1s2.57,0,3.85-.09c0,0,0,0,0,0h.24l1.26-.07,1-.07c1-.07,2-.17,2.91-.28l.21,0,1-.13.36-.05.62-.08a44.5,44.5,0,0,0,10.83-2.83c.63-.28,1.21-.56,1.75-.85a27.47,27.47,0,0,1-1.36,3.61c-.2.45-.38.79-.49,1l-.19.35.2-.33c.14-.23.33-.55.56-1a24.46,24.46,0,0,0,1.63-3.86l.14-.08.19-.11.09-.06.07,0a10.81,10.81,0,0,0,1.63-1.23c-.1.44-.2.86-.3,1.23a4.73,4.73,0,0,1-.64.5c-.22.15-.39.24-.51.31l-.19.09.19-.07a3.5,3.5,0,0,0,.54-.24,4.19,4.19,0,0,0,.54-.32c-.1.34-.19.64-.28.92-.13.1-.26.18-.37.25s-.35.21-.46.27l-.17.09.18-.06c.11,0,.28-.11.49-.21l.27-.14c0,.1-.07.2-.1.29-.11.32-.2.56-.27.75l-.28.19c0-.19.08-.35.11-.46l.07-.26-.21.74-.07,0a5.91,5.91,0,0,1-.6.33l-.21.11.22-.08a5.37,5.37,0,0,0,.62-.26h0l0,.11c-.07.23-.16.5-.26.81l-.22.09a4.07,4.07,0,0,1-.63.18l-.23.05.23,0a3.15,3.15,0,0,0,.65-.12l.15,0c-.12.38-.28.81-.47,1.29l-.22.11a5,5,0,0,1-.63.25l-.23.07.23,0a4.52,4.52,0,0,0,.65-.18l.13-.06c0,.12-.09.23-.14.36-.17.39-.37.82-.59,1.27l-.31.16a6.31,6.31,0,0,1-.73.28l-.26.07.26-.05a4.1,4.1,0,0,0,.76-.21l.19-.08c-.09.19-.2.39-.3.59l-.61.33c-.32.16-.57.28-.75.35l-.27.12.28-.09c.17-.06.43-.15.77-.29l.46-.2c-.22.39-.46.8-.73,1.23l-.31.16c-.34.16-.61.26-.79.33l-.29.1.29-.07a7.48,7.48,0,0,0,.81-.27l.17-.07c-.09.14-.17.28-.27.41-.2.31-.42.62-.65.92-.11.06-.22.1-.33.15-.32.12-.59.2-.76.25l-.28.06.27,0a6.53,6.53,0,0,0,.79-.18l.18-.06c-.3.4-.62.8-1,1.21-.16.09-.32.16-.47.23-.39.18-.71.3-.93.38l-.33.12.34-.09c.21-.06.53-.16.94-.31l.26-.11c-.25.29-.51.57-.78.86l-.33.19-.84.46-.3.16.3-.13.86-.4.06,0-.73.7c-.31.2-.62.39-.94.57l-.71.3a25.9,25.9,0,0,1-3.89,1.15c-1.28.29-2.66.53-4.11.72a63.55,63.55,0,0,1-8.52.52,63.27,63.27,0,0,1-8.53-.55c-1.5-.2-2.84-.44-4.11-.73a26.06,26.06,0,0,1-3.88-1.16l-.4-.17a17.57,17.57,0,0,1-1.62-1h0c.6.28,1.13.49,1.56.66s.74.27,1,.34l.34.11-.32-.13-.94-.4c-.56-.26-1.29-.61-2.13-1.09-.35-.35-.68-.7-1-1.05.33.14.62.25.88.34s.63.22.81.27l.29.09-.27-.11L9,29.92c-.33-.15-.74-.34-1.2-.58-.09-.1-.17-.21-.25-.31L7,28.32c.31.15.59.27.84.37s.61.24.8.3l.29.1L8.65,29c-.18-.08-.44-.19-.77-.36s-.69-.35-1.11-.6c-.3-.43-.57-.85-.8-1.24.24.09.47.18.67.24s.59.19.77.24l.28.07-.26-.09c-.17-.07-.42-.16-.74-.3s-.54-.23-.86-.39L5.52,26l-.29-.56.35.15c.61.24,1,.36,1,.36l-.9-.44-.5-.26q-.27-.57-.45-1l.21.08.61.2.21.06-.2-.08L5,24.25l-.32-.16-.09-.2c-.14-.37-.23-.61-.26-.71l.41.14.2.06-.18-.08L4.17,23a12.38,12.38,0,0,1-1.54-1,.61.61,0,0,0,0-.12l-.24-.62A6.14,6.14,0,0,0,3.47,22Zm7.12,11.79a1,1,0,0,0,0,.17,9.34,9.34,0,0,1-1.1-.65,6,6,0,0,1-.37-.65,7.44,7.44,0,0,0,.75.45q.42.24.81.42l0,.06A.6.6,0,0,0,10.59,33.76ZM8.94,32.22l-.06-.16a1.09,1.09,0,0,0,0,.12,7.44,7.44,0,0,1-1-.91l-.08.07A1.88,1.88,0,0,1,7.78,31v-.11l0,0a7.56,7.56,0,0,0,1.57,1.26,1.23,1.23,0,0,0,.29.48l.1.1C9.49,32.62,9.21,32.43,8.94,32.22ZM6.72,28.74c-.3-.33-.59-.66-.87-1q.44.26.84.45c.2.31.42.61.66.93h0ZM4.8,26.25c.35.18.68.32,1,.45.2.36.42.74.67,1.13-.33-.2-.68-.43-1.06-.7C5.2,26.85,5,26.56,4.8,26.25ZM5,25.18c-.37-.2-.81-.44-1.29-.73-.14-.26-.27-.53-.41-.81a13.15,13.15,0,0,0,1.31.59Zm-.91-2.06.15.06c0,.09.12.33.24.7l.07.18a14.53,14.53,0,0,1-1.43-.81c-.12-.25-.23-.51-.35-.77A10.16,10.16,0,0,0,4.12,23.12Zm1,2.26c.08.19.18.4.28.61l.25.46c-.35-.17-.72-.38-1.13-.62l-.08-.12-.51-.88C4.38,25.05,4.78,25.23,5.13,25.38Zm2.55,4.26,0,0h0l0,0-.22-.21-.15-.15.39.19c.21.26.43.52.67.79-.13-.1-.25-.21-.36-.31l0,0-.06-.06-.12-.2s0,0,0,0ZM8,31.74a8.22,8.22,0,0,0,1,.78H9a3.68,3.68,0,0,0,.15.49,4.8,4.8,0,0,1-.53-.47A3.64,3.64,0,0,1,8,31.74Zm32.55,4c-1.26.3-2.62.54-4,.74a59.9,59.9,0,0,1-8.4.51h-.42a62.57,62.57,0,0,1-7-.41l-1-.13c-1.48-.21-2.8-.45-4.05-.75a25.74,25.74,0,0,1-3.17-.92,1,1,0,0,1-.12-.27,1.37,1.37,0,0,1,0-.19v-.07l0,.07a.88.88,0,0,0,0,.2.68.68,0,0,0,0,.19l-.46-.18c-.34-.14-.69-.29-1.05-.46a.81.81,0,0,1-.09-.26.87.87,0,0,1,0-.2V33.5l1,.44c.52.21.93.35,1.21.45l.43.15-.41-.17c-.27-.11-.66-.28-1.16-.51A18.25,18.25,0,0,1,10,32.94h0l0,0a1.1,1.1,0,0,1-.21-.27,1.57,1.57,0,0,1-.14-.29c.48.28,1,.53,1.49.76,0,.08,0,.16.06.22a1.23,1.23,0,0,0,.12.27,2.21,2.21,0,0,1,0-.28v-.14h0a33.35,33.35,0,0,0,8.17,2.19A58.32,58.32,0,0,0,28.1,36a58.4,58.4,0,0,0,8.68-.62A37.71,37.71,0,0,0,43,34l0,0a.35.35,0,0,1,0,.12v.05l0-.05a.32.32,0,0,0,0-.14.2.2,0,0,0,0-.07l.95-.33a.94.94,0,0,1,0,.16A.71.71,0,0,1,44,34l0,.08a.55.55,0,0,0,.13-.27l.31-.08c.18-.06.43-.14.74-.26a1.3,1.3,0,0,1,0,.47,1.26,1.26,0,0,1-.17.35l-.37.16a.79.79,0,0,0,0-.2.74.74,0,0,0,0-.26.66.66,0,0,0,0-.09V34a1,1,0,0,1-.06.24.92.92,0,0,1-.18.31c-.48.19-1,.37-1.51.54a1.48,1.48,0,0,0,.07-.31,1.19,1.19,0,0,0,0-.27v0c0,.06,0,.14-.07.24a1.36,1.36,0,0,1-.25.42l-.61.18C41.53,35.47,41.06,35.59,40.55,35.7Zm4.74-1.55a.9.9,0,0,0,0-.16,1.34,1.34,0,0,0,0-.57l.05,0a7,7,0,0,0,.83-.41.28.28,0,0,1,0,.09,2.47,2.47,0,0,1-.24.75l-.46.23Zm2-1.22,0,0a2,2,0,0,0,0-.31,10.36,10.36,0,0,0,1-1,3.23,3.23,0,0,1-.68,1Z"/></svg>