<svg id="af3b1262-11df-4251-9d18-3eafd4fee8f9" data-name="Calque 1" xmlns="http://www.w3.org/2000/svg" viewBox="0 0 29.04 30.39"><defs><style>.e24f6551-78a0-440f-8c9d-9b4884096330{fill:#501e19;}</style></defs><path class="e24f6551-78a0-440f-8c9d-9b4884096330" d="M21.75,17.93a.6.6,0,0,1-.56-.39.63.63,0,0,1,.17-.66.62.62,0,0,1,.7-.05.59.59,0,0,1-.31,1.1Z"/><path class="e24f6551-78a0-440f-8c9d-9b4884096330" d="M28.2,16.74H24.42a.6.6,0,0,0,0,1.19H27.6v2.9A5.59,5.59,0,0,1,22,26.42h-9a5.59,5.59,0,0,1-5.59-5.59v-2.9H9.59v4.18A1.87,1.87,0,0,0,11.46,24a1.9,1.9,0,0,0,1.72-1.1,1.84,1.84,0,0,0,.85.2,1.88,1.88,0,0,0,1.88-1.88V17.93h3.14a.6.6,0,1,0,0-1.19H17.84a9.51,9.51,0,0,0-1.61-2.12,8.47,8.47,0,0,0-4-2.34A4,4,0,0,0,9,12.73L7.35,11.08l.6-.6a.58.58,0,0,0,0-.84L3.49,5.17a2.05,2.05,0,0,0-2.88,0v0a2,2,0,0,0,0,2.87l4.46,4.47a.58.58,0,0,0,.42.17.57.57,0,0,0,.42-.17l.61-.61,1.64,1.65a4,4,0,0,0-.45,3.17H6.88a.59.59,0,0,0-.59.6v3.49a6.79,6.79,0,0,0,6.22,6.76A2.82,2.82,0,0,0,12,29.23v.56a.59.59,0,0,0,.59.6H22.5a.6.6,0,0,0,.6-.6v-.56a2.82,2.82,0,0,0-.53-1.64,6.79,6.79,0,0,0,6.22-6.76V17.34a.6.6,0,0,0-.59-.6ZM1.44,6h0a.86.86,0,0,1,.6-.25.87.87,0,0,1,.6.25L4.19,7.55,3,8.76,1.44,7.22A.83.83,0,0,1,1.44,6Zm4,5.25L3.82,9.6,5,8.39,6.7,10.06Zm5.39,3.43a18.27,18.27,0,0,1,2.5,2H11.09A7.45,7.45,0,0,1,9.43,14,4.59,4.59,0,0,1,10.87,14.7Zm3.85,6.5a.69.69,0,0,1-1.38,0,.6.6,0,0,0-1.19,0v.91a.69.69,0,1,1-1.38,0V17.93h4Zm.67-5.74a8,8,0,0,1,1.06,1.28h-1.4c-.15-.16-.31-.32-.47-.47a18.71,18.71,0,0,0-3.37-2.75l-.3-.18a6.55,6.55,0,0,1,4.48,2.12Zm-6.62,0a10.2,10.2,0,0,0,.81,1.25H8.92A4,4,0,0,1,8.77,15.49Zm4.4,13.71a1.61,1.61,0,0,1,1.62-1.59h5.5a1.63,1.63,0,0,1,1.62,1.59Z"/><path class="e24f6551-78a0-440f-8c9d-9b4884096330" d="M16.82,7l1.81.81,3.65,3.65a2,2,0,0,0,1.45.6,2.06,2.06,0,0,0,1.46-.6l3.25-3.26a2.06,2.06,0,0,0,0-2.91L23.34.17A.61.61,0,0,0,22.92,0a.59.59,0,0,0-.42.17L16.64,6a.59.59,0,0,0-.16.52.57.57,0,0,0,.34.44Zm6.1-5.56L25.43,4l-4.92-.11ZM19.35,5l7.29.16,1,1a.87.87,0,0,1,0,1.23l-3.25,3.26a.87.87,0,0,1-1.23,0L19.39,6.89a.52.52,0,0,0-.17-.13l-1.13-.5Z"/><path class="e24f6551-78a0-440f-8c9d-9b4884096330" d="M16.53,12.26a1.61,1.61,0,0,1-1.61-1.6,4.19,4.19,0,0,1,1.17-2.28.57.57,0,0,1,.44-.2h0a.57.57,0,0,1,.43.2,4.15,4.15,0,0,1,1.17,2.28A1.6,1.6,0,0,1,16.53,12.26Zm0-2.52a2,2,0,0,0-.42.92.42.42,0,1,0,.84,0,2,2,0,0,0-.42-.92Z"/></svg>