<svg id="bc8abb92-f64a-4465-b471-5e4266d09e11" data-name="Calque 1" xmlns="http://www.w3.org/2000/svg" viewBox="0 0 49.57 48.5"><defs><style>.ae8de636-e2e4-49cb-a37a-d040daf54258{fill:#363636;}</style></defs><path class="ae8de636-e2e4-49cb-a37a-d040daf54258" d="M49.57,47.29v0l0-.09c-.11-.45-.22-.89-.32-1.22s-.17-.45-.26-.66a7.49,7.49,0,0,0-1.37-2c-.18-.19-.36-.36-.53-.51s-.2-.48-.28-.69V42c.11-1.63.21-3.11.29-4.43,0-.36,0-.71,0-1.05h0c0-.25,0-.49,0-.72v-.32l0-.2c0-.31.05-.6.06-.89s0-.38,0-.56a26.51,26.51,0,0,0-.12-3.87c-.05-.54-.11-1-.17-1.51a28,28,0,0,0-.33-2.94c-.06-.34-.11-.64-.16-.9a55.12,55.12,0,0,0-1.66-9.87,11.51,11.51,0,0,0-1.47-3.37,3.2,3.2,0,0,0-.56-.62l.07-.24q.28-.95.57-2c.39-1.45.78-3.09,1.13-4.82.1-.51.2-1,.29-1.51l.11-.57L45,1.24l0-.14L45,1V1h0l-1.13.46-.55.23L43,1.83l-.48.22c-.17,0-.37,0-.59,0a11.57,11.57,0,0,1-1.63-.35c-.64-.18-1.36-.41-2.19-.63a30.88,30.88,0,0,0-5.92-1,34.7,34.7,0,0,0-3.55,0c-.62,0-1.25.08-1.87.16L24.84.4c-2.55.33-5,.57-7.19.78s-4.22.41-5.9.61c-2.19.25-3.83.5-4.69.69l-.65-.1L6,2.31H5.82s0,0,0,0l.08.19.31.69.16.35,0,.09h.06l.06.14.08.2V4h0l.08.18c.09.22.17.44.25.65L6.83,5,7,5c.36,1,.61,1.85.8,2.56S8.11,9,8.2,9.37l-.1.07a3.25,3.25,0,0,0-.69.75A12.24,12.24,0,0,0,6,13.48,67.24,67.24,0,0,0,4,24.9l0,.32-.12.07.1.15c-.2,1.9-.35,3.72-.47,5.4l-.1.06.08.14c-.14,2-.23,3.86-.3,5.38C3.06,38.51,3,40,3.07,40.75l0,.06,0,0c0,.24,0,.37.08.37h0c0,.15-.11.32-.18.5,0,0,0,.07-.05.1l0,0h0a7.13,7.13,0,0,1-.7,1.21,5.73,5.73,0,0,1-.62.71l-.08.09L1.36,44l-.18.17L1,44.33l-1,.73,1.17.24.62.12.44.08,1.36.22a28.53,28.53,0,0,0,5.84.18,12.16,12.16,0,0,0,1.69-.22c.83.23,1.72.5,2.68.8s2.18.69,3.4,1a25.4,25.4,0,0,0,3.9.77,33.15,33.15,0,0,0,4.27.23c1.46,0,2.87-.07,4.23-.15s2.67-.17,3.92-.27a38.06,38.06,0,0,0,6.6-1l.64-.18.05.07a1.88,1.88,0,0,1,.23-.16l.19-.06c1.41.19,3.66.38,6.19.51l.8,0,.77,0h.55S49.58,47.31,49.57,47.29ZM46.93,36.47c0,.32,0,.65-.07,1l0,.27c0-.41,0-.83,0-1.27ZM46,35c-.2-.14-.38-.26-.55-.36a2.11,2.11,0,0,0,.53-.19C46,34.59,46,34.78,46,35Zm-.09-1a.14.14,0,0,0,.06.08v.18a2.23,2.23,0,0,0-.69-.15l.06-.07.33-.27.24.22Zm-1.66,0,0,.05h-.79l.37-.28,1-.67.21.14a3.44,3.44,0,0,0-.47.45,3.78,3.78,0,0,0-.25.31l0,0Zm.89-3.16-.37-.29.56-.35.29.23Zm.32.63-.56.45-.46-.23.72-.54Zm-.91-1.08-.27-.19L44,30l.56-.42c.16.11.34.24.54.4Zm.07.25.37.33-.72.62-.16-.09a4.37,4.37,0,0,1-.41-.25Zm-.3,1.14.43.27-.66.54-.32-.13-.23-.09Zm.62.39.14.08.26.17c-.23.16-.45.32-.65.48l-.15-.09-.3-.14Zm.17,1L44.87,33l.68-.43.22.17A3.37,3.37,0,0,0,45.09,33.11Zm0,.23.24.18a1.77,1.77,0,0,1-.4.07h-.2A3.75,3.75,0,0,1,45.12,33.34Zm-.57.4.18-.14.2.09a1.36,1.36,0,0,0,.46.08,1.15,1.15,0,0,0-.14.19,1,1,0,0,0-.09.13L44.38,34l-.11,0Zm1.36-.47a2.75,2.75,0,0,0-.26.22l-.06,0v0h0l-.28-.2a5.72,5.72,0,0,1,.6-.25A2.62,2.62,0,0,1,45.91,33.27Zm0-1.25-.33.22-.35-.19-.08,0,.51-.37.25.3Zm0-.88-.18.14q-.16-.16-.33-.3l.48-.37Zm0-.93L45.52,30l.23-.14C45.76,30,45.76,30.11,45.77,30.21Zm0-.66-.48.32c-.22-.15-.43-.27-.61-.37L45.3,29c.14.13.28.26.42.41Zm0-.53-.19-.16.17-.13C45.69,28.83,45.69,28.92,45.7,29Zm0-.63-.37.29-.46-.35.46-.33c.12.12.25.24.37.37ZM44.5,21.84h0l.18-.09a.67.67,0,0,0-.21,0h0l.25,0L45,22l-.54.37-.27-.22h0l0,0c.23-.2.36-.33.36-.33Zm.32,3.2-.46-.39.58-.38.34.43Zm0,.3c.11.11.22.22.33.35l-.41.32-.42-.35Zm-.64-.84c-.17-.13-.32-.25-.47-.35l-.11-.08c.23-.17.49-.34.76-.52.07.09.15.18.22.28s.13.16.19.25Zm.17-1.23c-.1-.11-.21-.21-.31-.3l.4-.25h0l.26.28ZM44,21.92l0,0,0,0-.21-.15.66-.08A1.07,1.07,0,0,0,44,21.92Zm-.06.48.16-.12.25.24-.08.05a2.51,2.51,0,0,1-.46.11h0l-.23-.15.38-.2Zm.34,1-.76.59L43,23.64l.95-.6Zm-.7.75a.52.52,0,0,0,.11.1l.42.38L43.5,25l-.44-.3-.2-.12,0,0Zm.69.62.43.42-.49.36c-.14-.11-.27-.22-.4-.31l-.12-.09Zm0,1,.4.39-.62.51-.14-.09-.44-.29Zm.58.58.4.43-.51.39-.51-.37Zm-.08,1.1.4.38-.47.37-.42-.3-.08-.05Zm.94.53-.12-.11.11-.08Zm0-.55-.32.25c-.14-.13-.29-.24-.42-.35l.49-.35.24.29A.86.86,0,0,0,45.6,27.41Zm-.07-1v0l-.16.13c-.14-.14-.28-.28-.42-.4l.41-.3.14.17Zm-.08-1-.1.08L45,25.21l.39-.26C45.43,25.12,45.44,25.28,45.45,25.45Zm-.09-1.07-.21-.24.18-.11Zm0-.67-.34.23-.2-.23-.24-.26.4-.26.37.44Zm-.14-1.43c0,.14,0,.27,0,.4l-.24.17-.24-.22a2.67,2.67,0,0,0,.42-.2l-.06-.1Zm-1.39-8.51-1.52-1.53.14-.44,0,0h0c.46.45.83.79,1.06,1S43.68,13.43,43.78,13.77Zm-.38-1.2c-.18-.24-.43-.57-.75-1l0,0-.12-.11.05-.17v0l.38.37.24.27C43.24,12.16,43.32,12.36,43.4,12.57ZM43,11.52a1,1,0,0,1,.08.18l0,0a4.52,4.52,0,0,0-.39-.57l0-.07A5.23,5.23,0,0,1,43,11.52Zm-.12-8.58-.11.15a3.52,3.52,0,0,1,.29-.2l.15-.1.26-.12.22-.09h0s0,0,0,0a6.58,6.58,0,0,0-.69.64c-.23.25-.34.4-.34.4s.14-.12.41-.32l.55-.38,0,.13a5.45,5.45,0,0,0-.86.72,4.53,4.53,0,0,0-.3.35l-.1.13.12-.1c.07-.07.19-.17.34-.29a6.41,6.41,0,0,1,.74-.48v0a3.4,3.4,0,0,0-.07.34c-.78.66-1.24,1.1-1.24,1.1s.44-.26,1.16-.73l-.06.3a7.34,7.34,0,0,0-.91.81l-.23.27-.71.37-.52.26-.77.06,1-.79L42,4.78s-.33.18-.9.54c-.38.23-.86.54-1.43.92l-.76,0c1.84-1.26,3-2.07,3-2.07S40.53,5,38.33,6.34l-.39,0c2.52-1.76,4.24-3,4.75-3.36Zm-.94.46c.22-.12.45-.23.69-.34-.66.41-2.53,1.59-5.25,3.35h-.09l.31-.22.69-.5,1.11-.81,0,0A25.55,25.55,0,0,1,41.89,3.4ZM11.83,2.47c1.68-.11,3.69-.23,5.91-.4s4.69-.38,7.24-.71l1.88-.21c.62-.08,1.22-.14,1.82-.17a33,33,0,0,1,3.44,0,36.42,36.42,0,0,1,5.79.73c.82.17,1.55.36,2.22.5a9,9,0,0,0,1.72.19c-.15.08-.31.16-.45.25l-.2.11c-.84-.11-1.64-.24-2.39-.41l-.69-.18c-.24-.06-.46-.1-.69-.14l-1.3-.21a36.3,36.3,0,0,0-4.37-.39A17.18,17.18,0,0,0,29,1.54c-.31,0-.55.1-.71.13L28,1.72l.23,0a7,7,0,0,1,.7-.11,17.43,17.43,0,0,1,2.74-.05A38.4,38.4,0,0,1,36,2c.42.06.85.14,1.3.23.22,0,.45.09.67.15l.7.19c.66.17,1.36.3,2.08.41l-.18.11a4.41,4.41,0,0,1-1.44.09c-.52-.05-1-.14-1.47-.22L37,2.86l-.62-.08-1.08-.21c-.65-.12-1.16-.19-1.51-.23l-.53,0,.52.08c.33.06.83.15,1.47.3l1.06.26L37,3l.67.12c.45.1,1,.21,1.49.28a6.26,6.26,0,0,0,.88,0L39.24,4a7.43,7.43,0,0,0-1.06-.26l-.58-.06c-.19,0-.38,0-.54,0a8.39,8.39,0,0,1-1-.13l-.81-.14a9.74,9.74,0,0,0-1.13-.13l-.3,0h-.1l.38,0c.26,0,.63.1,1.1.21l.8.19c.29.06.6.14,1,.19l.54,0c.19,0,.37.05.57.09a7.33,7.33,0,0,1,.83.22l-.55.43c-1.4-.19-2.27-.27-2.27-.27s.73.2,2,.49h0l-.33.28a10.54,10.54,0,0,0-1.16-.33c-.41-.08-.65-.1-.65-.1s.22.06.62.2.59.23,1,.42l-.13.12a16.42,16.42,0,0,0-2.27-.62,30.56,30.56,0,0,0-3.64-.5A40.93,40.93,0,0,0,27,4.25a44.59,44.59,0,0,0-4.47.39c-1.29.19-2.45.4-3.43.64l-.58-.21c2.3-.58,3.71-1,3.71-1s-1.58.26-4.22.78l-.19-.07-.73-.23a23.43,23.43,0,0,0,2.65-.52l1-.29.34-.11-.34.08-1,.21a25.93,25.93,0,0,1-3.37.41l-1.16-.32a25.24,25.24,0,0,0,3.32-.25l1-.17.35-.07-.35,0-1,.09a31.24,31.24,0,0,1-3.78.05v0c-.16,0-.34,0-.54,0-.53-.13-1.06-.24-1.57-.35,2,0,3.55,0,4.73-.06.71,0,1.26,0,1.64-.08l.57,0-.56,0c-.37,0-.91,0-1.62,0l-6-.15v.06l-1-.17L11.24,3a17.1,17.1,0,0,1,2.12-.06c1.33,0,2.49.1,3.44.06A10.82,10.82,0,0,0,19,2.69c.24-.06.42-.12.54-.16l.19,0-.18,0a5.46,5.46,0,0,1-.54.13,10.58,10.58,0,0,1-2.14.2c-.93,0-2.08-.1-3.42-.17a19.61,19.61,0,0,0-2.17,0,9.43,9.43,0,0,1-2.38.07v0l-.51-.09ZM36.58,6.31a.25.25,0,0,0-.23-.17.26.26,0,0,0-.24.36h0l-.57,0a.24.24,0,0,0,.07-.16c.11,0,.12-.17,0-.17h-.06a.24.24,0,0,0-.2-.11h-.09a.26.26,0,0,0-.16.47l-1.13.08A.23.23,0,0,0,34,6.5a.27.27,0,0,0-.25-.27h-.09a.26.26,0,0,0-.17.46L29.61,7l-2.88.22a.15.15,0,0,0,0-.07V7.05a.18.18,0,0,0-.35,0v.09a.12.12,0,0,0,0,.1h-.1l-.38,0a.17.17,0,1,0-.13,0l-.68.05a.24.24,0,0,0-.21-.16.26.26,0,1,0-.21.08.31.31,0,0,0,0,.1l-.15,0-.31-.08A.27.27,0,0,0,24.12,7,.16.16,0,0,0,24,6.78.17.17,0,0,0,23.8,7l-.06.08L23.43,7l-.54-.19a.22.22,0,0,0-.12,0l-.26-.1a.15.15,0,0,0,.11,0l.06-.06a.08.08,0,0,0,.08.11h.08a.09.09,0,0,0,0-.18h-.12a.17.17,0,0,0-.26-.22l-.09.08a.17.17,0,0,0,0,.25l-.58-.22h0V6.27A.26.26,0,0,0,21.56,6a.3.3,0,0,0-.25.16l-.13,0,0,0L21.31,6a.3.3,0,0,0,.08-.2.23.23,0,0,0,.16-.16l1.09-.12a.23.23,0,0,0,0,.18s0,.14,0,.15a.27.27,0,0,0,.17.45h0a.08.08,0,0,0,.14.06l.09-.08a.08.08,0,0,0,0-.1.08.08,0,0,0,0-.08.25.25,0,0,0-.24-.32h0a.18.18,0,0,0,.13-.3l.43,0a.19.19,0,0,0,.07.12s0,.06.07.07h.09a.25.25,0,0,0,.26-.23l.74-.06a.22.22,0,0,0,.22.15.23.23,0,0,0,.25-.18c.63,0,1.28-.08,1.95-.1,1,0,2,0,3,0a.15.15,0,0,0,.16.14.16.16,0,0,0,.17-.13h.37a.25.25,0,0,0,.24.32.25.25,0,0,0,.25-.31h.24l.44,0a.23.23,0,0,0,.12.06.18.18,0,0,0,.11,0h.16a.19.19,0,0,0,.16.13.15.15,0,0,0,.16-.12l.28,0a.13.13,0,0,0,0,.06.23.23,0,0,0,.24.23.24.24,0,0,0,.26-.25h.15l-.07.07a.26.26,0,0,0,.2.45.27.27,0,0,0,.06.12.09.09,0,0,0,.1,0h0l.17.09A.09.09,0,1,0,34.13,6h0A.27.27,0,0,0,34,5.56a.29.29,0,0,0,0-.16l.85.09a.25.25,0,0,0,.23.35h.09a.08.08,0,0,0,.08.1h.08a.09.09,0,0,0,0-.18h-.07a.27.27,0,0,0,.06-.21l.2,0a.16.16,0,0,0,.16.2h.09a.29.29,0,0,0,.1,0,.24.24,0,0,0,0,.12h0a.17.17,0,0,0,0,.34A.14.14,0,0,0,36,6.08a.09.09,0,0,0,0,0l.09,0a.26.26,0,0,0,.25-.36l.3,0a.18.18,0,0,0-.08.07h0a.09.09,0,0,0,0,.18h0a.15.15,0,0,0,.14.1.18.18,0,0,0,.12-.31l.25,0C36.89,6,36.72,6.15,36.58,6.31ZM20.79,6l-.16-.07-.2-.08.41-.06A.26.26,0,0,0,20.79,6ZM5.57,20.38l.58.22-.59-.13Zm-.12.92.17.09-.19.09A1.1,1.1,0,0,0,5.45,21.3Zm-.06.46a3.63,3.63,0,0,1,.42-.27l.92.45-.3.11-.34.15-.7-.42ZM7.11,22c.31.13.59.22.84.3l-.78.28L7,22.7l-.3-.17-.42-.24.23-.14L6.8,22l.68.3Zm-.23.69L6,23.09l-.53-.3c.22-.16.42-.29.6-.4l.54.23Zm-1.52-.67.5.24-.57.3C5.32,22.42,5.34,22.24,5.36,22.06ZM5.25,23c.18.08.34.16.5.22l-.55.25C5.22,23.28,5.23,23.12,5.25,23Zm-.09.82.79.36-.61.3-.24-.14ZM5,25v-.1l.3-.17c.34.16.63.29.88.39-.24.11-.48.24-.73.37L5,25.21Zm.33,7.85-.46-.4.48-.27.45.25.16.08Zm.19.3.29.18-.15.07-.63-.09.38-.23Zm-.21-1.22-.48-.38.63-.41.66.37Zm.1-1-.64-.47c.23-.14.45-.26.65-.39l.28.17.44.25L6,30.57Zm0-1.09-.58-.48.81-.5.39.25.34.23Zm.18-1.24L5,28.13l.85-.47.06,0,.75.36Zm.26-1.14L5.14,27l.51-.3.94.4Zm-.26-1L5,26.09l.55-.34.74.34Zm-.62-1,.28.13-.31.17Zm-.08.84.49.22-.5.26,0,0C4.86,26.64,4.87,26.48,4.89,26.33Zm-.09.84.09-.05.78.39L4.76,28h0l0,0C4.75,27.68,4.77,27.43,4.8,27.17ZM4.69,28.3l0,0c.25.14.48.27.68.4l-.79.45C4.63,28.85,4.66,28.58,4.69,28.3Zm-.12,1.2,0,0,.63.42-.66.36-.07-.05C4.52,30,4.55,29.73,4.57,29.5Zm-.11,1.12.09-.05.71.43-.61.36-.24-.21C4.43,31,4.44,30.8,4.46,30.62Zm-.12,1.26.29-.19.51.34-.45.24-.36-.33Zm0,.4.15.11-.17.09Zm0,.54.44-.25.52.36-.59.32-.3,0-.1-.08ZM3.5,39.69l.13.15-.11.08s0-.07,0-.11ZM2.41,44.56l-.16,0h-.1v0l0,0,.32.1Zm1.32.2-.86-.13-.55-.31.19-.23.51.25-.26,0,.36.09.4.19-.15-.12L5.31,45Zm2.08.09h0l.69,0h0l.56.21Zm5.87.24L11.54,45l.59.23Zm36.59,1.2h0l-.79,0-1.2-.05c.75-.37,1.18-.6,1.18-.6s-.65.19-1.73.58l-.64,0c.21-.1.41-.21.57-.3.52-.29.79-.48.79-.48s-.28.14-.82.38l-.84.34c.35-.23.65-.45.88-.63s.43-.34.55-.45l.18-.16L46.2,45l-.58.38a15,15,0,0,1-1.38.77H44a12.86,12.86,0,0,1,1.34-.8L46,45s-.25.06-.7.22a8.92,8.92,0,0,0-1.83.89h-.18c.76-.39,1.4-.7,1.88-.92l1-.46s-.36.11-1,.35c-.31.11-.7.26-1.14.44l.26-.14.6-.37a4.14,4.14,0,0,0,.4-.3c.22-.16.32-.26.3-.29s-.16,0-.41.13l-.46.22-.62.27a21.2,21.2,0,0,1-3.18,1.09c-.77,0-1.22.11-1.22.2s0,.05.07.07a38.45,38.45,0,0,1-5.07.69l-.5,0-3.57-.26,3.38.35-.56,0c-1.24.08-2.55.14-3.9.21s-2.75.13-4.18.13a34.63,34.63,0,0,1-4.13-.2,27.25,27.25,0,0,1-3.78-.69l-1.56-.42c.49.09.95.15,1.37.19a18.72,18.72,0,0,0,2.37.11l.82,0h-.81a19.05,19.05,0,0,1-2.32-.18,20.83,20.83,0,0,1-3.62-.8,22.13,22.13,0,0,1-3.09-1.26c-.31-.23-.66-.47-1-.72-1.5-1-2.8-1.69-3-1.48s0,.27.27.54l-.16-.13L6,41.86l-.24-.22.22.24.65.65c.38.35.88.8,1.51,1.29a8.1,8.1,0,0,1-1.74-.73l-.51-.29-.17-.11.15.13a5.4,5.4,0,0,0,.46.36A7.87,7.87,0,0,0,7.64,44l-.06,0,.48.25.76.41-.1,0A12.41,12.41,0,0,1,7.44,44l-.79-.44-.27-.17.25.19c.17.12.41.3.74.51s.48.29.78.44h0a17.89,17.89,0,0,1-1.71-.66l-.75-.34-.26-.13.24.15c.16.1.39.24.71.41s.65.35,1.07.54H7c-1.33-.41-2.11-.63-2.11-.63l1.62.65-.31,0c-.4-.13-.75-.24-1-.35L4.08,43.8s.35.18,1,.48l.67.29-.45.08-.26.06-1.77-.32-.63-.49.17-.26a6.61,6.61,0,0,0,.81.45c.28.13.45.19.45.19L3.7,44c-.19-.14-.44-.33-.73-.59.09-.15.16-.29.23-.43a3.75,3.75,0,0,0,.75.54l.41.19A3.78,3.78,0,0,1,4,43.43a5.6,5.6,0,0,1-.7-.73l.05-.12a10.33,10.33,0,0,1,1,.53c.31.18.48.3.48.3A4.27,4.27,0,0,0,4.43,43a8.64,8.64,0,0,0-1-.7c0-.06,0-.12,0-.17,1,.49,1.55.77,1.55.77s-.54-.4-1.49-1v0a4.92,4.92,0,0,0,.09-.68,11.57,11.57,0,0,1,1,.68c.36.27.56.44.56.44s-.16-.19-.49-.52a9.51,9.51,0,0,0-1.06-.91,1.25,1.25,0,0,0,0-.21l.15.22s0-.2-.12-.54a12.21,12.21,0,0,0,1,1c.32.28.51.42.51.42l-.43-.49c-.26-.31-.63-.75-1-1.32l.12.1a3,3,0,0,0,.32.23L4,40a5.42,5.42,0,0,0,.68.68,4,4,0,0,0,.5.35l.18.11L5.15,41c-.1-.09-.26-.22-.44-.4a5.11,5.11,0,0,1-1.1-1.73c0-.1,0-.21,0-.32a10.68,10.68,0,0,0,.81.87c.34.32.55.48.55.48s-.17-.19-.46-.55a13.93,13.93,0,0,1-.86-1.17c0-.1,0-.21,0-.31.78,1,1.3,1.54,1.3,1.54s-.43-.75-1.23-2l0,0c0-.16,0-.32,0-.48l.14.14.56.58.49.49-.4-.55L4.13,37l-.27-.35,0-.21s0-.11,0-.17a9.17,9.17,0,0,0,.87.84c.36.32.57.47.57.47s-.18-.18-.49-.54-.56-.65-.91-1.13L4,35.36c.42.3.77.58,1,.8s.58.51.58.51-.16-.21-.5-.58a12.52,12.52,0,0,0-1.08-1l.06-.59c.41.34.78.61,1.07.81.46.31.72.46.72.46l-.64-.54c-.29-.25-.68-.6-1.12-1l0-.3.34-.2c1,.62,1.58,1,1.58,1s-.39-.34-1.1-.91c.72.2,1.67.44,2.82.71a75.31,75.31,0,0,0,10.74,1.67c1.14.08,2.25.13,3.32.16l0,0-.11-.08,0,0-.1-.09-.22-.21c-.1-.11-.21-.23-.31-.36l-.13-.18c-.75,0-1.51-.08-2.29-.13-3.39-.27-6.49-.72-9-1.11l.18-.13a4,4,0,0,0-.42.09l-.92-.15.38-.23a4.22,4.22,0,0,0,.64.06H10l-.46-.1-.4-.11.46-.24a5.27,5.27,0,0,0-.52.15l-.1,0a6.28,6.28,0,0,1-.65-.26l-.11.29.38.11-.5.23-.12,0-.56-.1c.45-.29.85-.51,1.16-.68.46-.26.73-.39.73-.39s-.28.08-.77.28A13.94,13.94,0,0,0,7,33.61l-.84-.14c1.87-1.16,3-1.9,3-1.9s-1.22.62-3.24,1.72l-.28-.22L5.56,33l.66-.39.31.13-.26-.16L9.18,30.8S8,31.39,6.07,32.46l-.18-.12-.35-.25.8-.46.16.08-.13-.1,2.91-1.69L6.21,31.48l-.58-.43.44-.28c.71-.46,1.31-.86,1.82-1.17A8.23,8.23,0,0,1,9.11,29l.33-.13.12,0-.12,0-.34.1a10.3,10.3,0,0,0-1.24.55c-.47.25-1,.58-1.66,1l-.4-.32L5.59,30l.94-.55.09.07-.08-.08c1.45-.85,2.27-1.35,2.27-1.35L6.42,29.29,6.11,29l-.31-.26c1-.64,1.94-1.15,2.63-1.54l1.6-.88s-.58.26-1.62.77c-.48.24-1.07.54-1.73.89L6,27.56l.74-.41.08,0-.07,0,.63-.35L8.77,26l-1.37.65-.76.37-.82-.48.67-.39.48.21-.4-.25,1-.61L9,24.77s-.49.22-1.38.65c-.34.17-.75.37-1.2.61l-.66-.4.72-.41.48.21-.39-.25c.47-.26.89-.47,1.25-.65l1-.47.36-.16L8.82,24c-.24.08-.6.21-1.05.4s-.88.37-1.42.63l-.77-.47.61-.33.85.37-.71-.44c.46-.24.88-.44,1.24-.6l1-.44L9,23l-.37.11c-.24.08-.59.19-1,.36s-.88.34-1.42.59l-.74-.44L6,23.3a4.16,4.16,0,0,0,.45.16c.42.12.66.17.66.17l-.61-.27-.31-.15.83-.41.26.09-.21-.12.09,0,.8-.38.38.11c.44.11.69.15.69.15l-.64-.25-.23-.1h0a13.1,13.1,0,0,1-1.47-.73l-.1.2L6,21.37l0,0a2.41,2.41,0,0,1,.37-.16l.13-.05-.14,0a2.48,2.48,0,0,0-.39.09l-.15,0L5.49,21c0-.12,0-.24,0-.36a33.85,33.85,0,0,0,5.32,1.66,55.66,55.66,0,0,0,6.37,1.13c1.12.13,2.29.24,3.51.31l0-.09,0,0c-.05-.13-.11-.26-.17-.43a3.25,3.25,0,0,1-.13-.42c-1.05-.05-2.07-.13-3-.23-2.39-.23-4.53-.57-6.32-.91S7.84,21,6.85,20.75c-.31-.18-.72-.41-1.24-.65,0-.2,0-.39.07-.58,1.17.45,1.91.7,1.91.7s-.68-.4-1.87-1c0-.19.06-.37.08-.56A5.43,5.43,0,0,1,6.87,19l.37.17.12.07-.11-.09a2.91,2.91,0,0,0-.32-.24,4.11,4.11,0,0,0-1.09-.52l.09-.6a4.17,4.17,0,0,1,1,.22,4.06,4.06,0,0,1,.4.16l.13.06-.11-.09c-.08,0-.2-.14-.36-.23a3.68,3.68,0,0,0-1-.37c0-.26.08-.52.13-.78.35.13.65.22.89.29s.59.15.59.15L7,17l-.89-.43c.05-.29.1-.58.15-.85a6.38,6.38,0,0,1,.77.25l.41.19.14.07-.12-.09-.37-.26a5.28,5.28,0,0,0-.79-.39c0-.23.09-.46.14-.69a6.83,6.83,0,0,1,.74.26l.38.17.13.07-.11-.09a2.87,2.87,0,0,0-.35-.24,4.23,4.23,0,0,0-.75-.39c0-.17.07-.34.11-.5.8.32,1.3.48,1.3.48s-.45-.29-1.25-.73a.74.74,0,0,0,0-.14c0-.11,0-.21.07-.31.62.17,1,.25,1,.25s-.34-.19-.94-.49c0-.14.07-.27.1-.4.78.17,1.26.25,1.26.25s-.43-.21-1.18-.51l.15-.52a5.42,5.42,0,0,1,.68.12l.37.09a2.83,2.83,0,0,0-.32-.19,4.43,4.43,0,0,0-.65-.27c.07-.21.14-.41.21-.59a2.4,2.4,0,0,1,.81.22l.27.15.09.06-.07-.09a2.88,2.88,0,0,0-.23-.21,2.22,2.22,0,0,0-.76-.39c0-.13.1-.25.16-.37a5.53,5.53,0,0,1,1.17.07,3.81,3.81,0,0,1,.46.1,2.63,2.63,0,0,0-.42-.2,4.07,4.07,0,0,0-1.07-.26l0-.08a2.15,2.15,0,0,1,.7,0,2.09,2.09,0,0,1,.3,0,1.77,1.77,0,0,0-.27-.16,1.94,1.94,0,0,0-.55-.15l0,0,.19,0s0,0,0,0l0,0c.82.17,1.34.24,1.34.24s-.49-.21-1.32-.52h0c1.23.3,2.32.63,3.26.93a8,8,0,0,0-1.28,2.11,6,6,0,0,0-.23.65l-.07.23.09-.22c.07-.14.16-.35.3-.61a9.44,9.44,0,0,1,1.47-2l-.1-.09c.71.23,1.33.46,1.85.65s1.13.44,1.46.58l.51.21-.49-.24c-.32-.15-.79-.37-1.41-.64A42.23,42.23,0,0,0,8.37,9.19c0-.07,0-.14,0-.22,1.28.29,2.09.43,2.09.43s-.79-.31-2.12-.75c0-.17,0-.35-.07-.55.52.2,1,.33,1.29.42l.6.13L9.6,8.42c-.34-.15-.82-.37-1.4-.67a2.51,2.51,0,0,0,0-.27c0-.14-.05-.28-.08-.43,1,.33,1.57.5,1.57.5S9.05,7.22,8,6.72c0-.2-.09-.41-.15-.63.68.2,1.1.3,1.1.3s-.42-.23-1.17-.59l-.15-.54c.74.28,1.19.42,1.19.42S8.37,5.41,7.55,5a1.8,1.8,0,0,0,0-.19c0-.15-.1-.3-.16-.46.76.3,1.21.46,1.21.46S8.08,4.48,7.24,4V4l-.06-.15.64.23c.34.15.52.25.52.25A3.58,3.58,0,0,0,7.87,4a4.8,4.8,0,0,0-.8-.42L7,3.31H7l.53.16.43.15a3.84,3.84,0,0,0-.37-.24c-.1-.06-.21-.13-.35-.2l.49.1c1.43.26,3,.56,4.64.93a46.15,46.15,0,0,1,5.17,1.45l.11,0,1,.37,1.56.65c.92.39,1.86.8,2.87,1.15l.77.25.2.05A28.5,28.5,0,0,1,26,12.4c.2.55.34,1,.43,1.29l.14.45-.1-.45c-.08-.3-.19-.74-.36-1.3,0-.05,0-.11-.05-.17a2.94,2.94,0,0,1,.2-.7.55.55,0,0,1,.13-.07.63.63,0,0,0-.16,0,.65.65,0,0,0-.4.11c0-.13-.09-.26-.14-.4a7.6,7.6,0,0,0,.88-.29s-.37,0-1,0c-.05-.14-.11-.29-.17-.44a10.14,10.14,0,0,0,1-.36,11,11,0,0,0-1.13.08C25.14,9.77,25,9.4,24.8,9,26.16,8.91,27,8.79,27,8.79s-.88,0-2.35-.07l-.22-.45h0l.17,0h.2l1.6-.12,3.28-.25,6-.46s0,0,0,0,.07,0,.16,0l.3,0,1.55-.12h0l-.2.16-.12.11.13-.08a3.61,3.61,0,0,1,.39-.19h0l.52,0h.13l-.08.08a13.22,13.22,0,0,0-1.6.64l.05,0-.29.17-.09.05.1,0c.15,0,.65-.19,1.39-.38-.11.11-.22.22-.32.34-1.09.41-1.81.71-1.9.76h0l0,0h0c.08,0,.66-.16,1.55-.41l-.52.65-1.09.6s.32-.09.87-.29l-.41.6-.61.32-.5.23a4.7,4.7,0,0,0,.53-.13l.4-.12c-.13.2-.24.4-.36.6-.31.18-.57.35-.77.48s-.49.37-.49.37l.54-.27.54-.25c-.12.22-.23.45-.34.67-.83.63-1.31,1-1.31,1s.41-.21,1.11-.62c-.07.15-.13.29-.2.43-.32.28-.61.5-.83.66l-.42.31.47-.21.59-.31-.11.24a7.61,7.61,0,0,1-.89.67l-.4.23a3.57,3.57,0,0,0,.45-.13,4.53,4.53,0,0,0,.65-.31c-.06.17-.13.33-.19.48a6.78,6.78,0,0,1-.93.65c-.26.15-.41.22-.41.22a4.5,4.5,0,0,0,.45-.12,5.35,5.35,0,0,0,.72-.31c-.06.15-.11.3-.17.44-.59.41-1,.71-1,.71s.31-.11.82-.34l-.15.4a2.44,2.44,0,0,0-.49.32c-.15.12-.23.2-.23.2l.28-.11.32-.11-.07.2a1.41,1.41,0,0,0-.51.54,1.23,1.23,0,0,0-.08.22l0,.08,0-.06a1,1,0,0,1,.15-.17,1.81,1.81,0,0,1,.28-.23c-.12.33-.25.65-.37.95a1.34,1.34,0,0,1-.07.18,1.12,1.12,0,0,0-.51.27,20.22,20.22,0,0,1,0-3.8,18.39,18.39,0,0,1,.26-1.89s.08-.2,0-.27c.07-.39.16-.75.24-1.08.22-.88.45-1.55.61-2l.26-.68-.28.66c-.11.27-.25.63-.4,1.07a4.45,4.45,0,0,0-.85-1.23,3.82,3.82,0,0,0-.31-.3l-.12-.1.09.12.26.34a5.5,5.5,0,0,1,.68,1.38l.2-.08c-.07.23-.15.48-.23.76l0,.1a6.77,6.77,0,0,0-1.2-1.83A6,6,0,0,0,31,9.07l-.16-.13.13.15c.09.1.21.26.36.46a7.92,7.92,0,0,1,1,1.9l.28-.11q-.11.39-.21.84a9,9,0,0,0-1.32-1.92c-.22-.24-.41-.42-.53-.54l-.2-.17.17.19c.11.13.27.32.47.58a10.52,10.52,0,0,1,1.3,2.34c0,.21-.09.43-.13.65,0-.08-.07-.17-.11-.25v0a3,3,0,0,0-.16-.31l0-.11.1-.53-.13.51,0,.08A11.33,11.33,0,0,0,30.77,11c-.22-.27-.4-.48-.52-.61l-.19-.21.16.22c.11.15.26.36.45.65a12.87,12.87,0,0,1,1.09,2.06c0,.1,0,.2-.05.31-1-1.36-1.64-2.18-1.64-2.18s.56,1,1.57,2.61l0,.22c0,.11,0,.23,0,.35a16.8,16.8,0,0,0-.9-1.5c-.37-.55-.6-.84-.6-.84s.19.31.5.88.59,1.14.95,2c0,.13,0,.28,0,.43-.29-.5-.55-.9-.75-1.21s-.51-.71-.51-.71l.41.75c.21.41.5,1,.83,1.7a2.44,2.44,0,0,1,0,.27c-.26-.42-.5-.76-.69-1s-.48-.61-.48-.61.14.23.38.66.48.88.8,1.53a.92.92,0,0,0,0,.16,7,7,0,0,0-.54-.77,4.27,4.27,0,0,0-.35-.4l-.12-.13.1.15c.06.1.16.24.27.43a7.42,7.42,0,0,1,.67,1.38v.09a4.35,4.35,0,0,0-.36-.47,2.88,2.88,0,0,0-.29-.3l-.11-.1.09.11c0,.08.13.19.22.34a5.6,5.6,0,0,1,.53,1.18c0,.11,0,.25,0,.4a4.76,4.76,0,0,0-.37-.49,4.16,4.16,0,0,0-.33-.36s.09.14.24.42a9.62,9.62,0,0,1,.46.95v.43a3.38,3.38,0,0,0-.38-.38,2.14,2.14,0,0,0-.28-.23l.2.3a6.52,6.52,0,0,1,.49.84l.17-.11a.09.09,0,0,1,0,0v.14c0,.06,0,.11,0,.17a.41.41,0,0,1,0,.16h0l0,0,0-.06.19-.21.19-.23.26-.32.28-.34a.22.22,0,0,0,.06-.07v0l.67-.47,1.07-.78.92-.68-1,.58-1.13.69L33,19l0,0,.2-.43v0c1.26-1.09,2-1.79,2-1.79s-.67.46-1.79,1.28c.13-.3.27-.62.4-.94a18.72,18.72,0,0,1,1.56-1.47c.26-.21.47-.38.61-.48l.22-.17-.23.14-.65.42c-.35.24-.78.56-1.27,1l.06-.14c.11-.25.21-.5.32-.76a15.69,15.69,0,0,1,1.59-1.44c.44-.34.69-.51.69-.51s-.27.13-.74.42a10.33,10.33,0,0,0-1.29.91l.44-1c.85-.73,1.57-1.32,2.11-1.74l1-.77s-.38.22-1,.67c-.47.32-1.09.75-1.81,1.29l.39-.8A15.25,15.25,0,0,1,38,10.5c.3-.23.54-.4.7-.51L39,9.82l-.27.14c-.17.1-.42.24-.74.45a12.56,12.56,0,0,0-1.62,1.26c.24-.42.5-.85.78-1.27,1.87-1.56,3-2.54,3-2.54s-.92.66-2.48,1.82A10.66,10.66,0,0,1,38.86,8.3c.64-.52,1.19-.94,1.63-1.25.68-.49,1.06-.74,1.06-.74s-.37.19-1,.59l.14-.11.54-.42.28-.22,0,0s0,0,0,0h-.09l-.18,0h0L41.46,6c.27-.17.47-.31.61-.41L42,5.67l.42-.33a8.48,8.48,0,0,1,.76-.53c0,.22-.09.43-.13.64a9.37,9.37,0,0,0-.73.76c-.2.24-.3.39-.3.39l.37-.3L43,5.86c0,.17-.07.33-.11.5-.62.59-1,1-1,1s.34-.22.91-.63L42.73,7l-.1.1-.5.55-.43.48.49-.39.46-.38c0,.25-.11.49-.16.73l-.22.17-.68.54L41,9.25l.63-.38.74-.45,0,0c-.06.26-.11.5-.17.74-1,.85-1.66,1.38-1.66,1.38s.59-.36,1.58-1c-.05.26-.11.52-.17.76-.46.38-.87.68-1.18.9l-.66.46.71-.36c.28-.16.64-.36,1.05-.63l-.12.52c-1.55,1.09-2.47,1.79-2.47,1.79s.89-.51,2.39-1.43c0,.16-.07.32-.1.47s0,0-.09.09l-.28.18-.51.33c-.32.22-.58.4-.79.56-.43.31-.65.5-.62.52h0v0h.07l.17,0,.24-.08,0,0c.32.12.59.24.77.32l.29.14a1.77,1.77,0,0,0-.22-.22,5,5,0,0,0-.53-.41l0,0,.54-.26a11.23,11.23,0,0,0,1,.69s-.24-.32-.68-.82L41,13l.16-.08c.52.45.86.71.86.71s-.21-.32-.61-.84l.13-.07.3-.14.05,0h0s0,0,0,0l0-.05c.26.24.44.38.44.38s0-.1-.12-.26l0,0a.8.8,0,0,0,.22.1,1.84,1.84,0,0,1-.15-.18s-.07-.11-.11-.19h0c.37.46,1,1.16,1.71,2l.12.5,0,.15a14.85,14.85,0,0,0-1.33-1.37c-.29-.26-.53-.45-.69-.58l-.25-.2.22.21c.15.15.37.35.63.63a17.72,17.72,0,0,1,1.55,1.89l.15.79A18.94,18.94,0,0,0,42.9,15c-.3-.25-.54-.43-.7-.55L42,14.25l.22.2c.15.14.37.34.64.61a21.34,21.34,0,0,1,1.64,1.82c.06.33.11.66.16,1-.6-.61-1.14-1.09-1.56-1.45-.58-.5-.92-.75-.92-.75s.3.28.84.82,1,1.06,1.71,1.85c0,.26.08.51.11.78l-.39-.39a9.48,9.48,0,0,0-.95-.85,3.17,3.17,0,0,0-.7-.4l-.2-.07-.07,0,.07,0,.18.09a2.82,2.82,0,0,1,.64.45,8.74,8.74,0,0,1,.87.91l.61.68c0,.28.07.56.11.85-.54-.46-1-.84-1.38-1.13-.58-.44-.91-.67-.91-.67l.83.75c.38.35.9.83,1.5,1.43,0,.23.06.47.08.7l-.25,0a11.17,11.17,0,0,0-1.19-1c-.29-.21-.52-.36-.67-.46l-.24-.15.21.17c.15.11.36.28.62.51s.59.55.95.93H43.43l0-.08-.17.08h-.07l-.1-.06-.22-.12.19.14.06.05c-1,0-2.25.08-3.74.21-1.83.15-4,.4-6.4.65l-1.86.19-.05.17a3.74,3.74,0,0,1-.14.45c0,.1-.08.21-.13.35l2.3-.27c2.41-.31,4.56-.62,6.37-.86l.62-.08-.76.64s.47-.24,1.25-.71l1.7-.21c-.39.24-.72.47-1,.67a5.3,5.3,0,0,0-.91.2l-.41.15.42,0c.15,0,.32,0,.53,0l-.5.4-.2.18.22-.15.63-.42h.49v-.28c.23-.13.48-.27.76-.41l0,.06a3.05,3.05,0,0,0-.26.31,2.32,2.32,0,0,0-.17.29,2.75,2.75,0,0,1,.25-.21,4.32,4.32,0,0,1,.74-.48l-.08-.14.24-.18.52-.06v0l.23.19-.61.36L43,22.34l-.07,0,.06,0a1.18,1.18,0,0,1,.16.08c-.65.39-1.17.76-1.56,1-.56.42-.85.67-.85.67s.31-.21.9-.57c.43-.26,1-.61,1.76-1l.18.13-.21,0h-.13l.13,0,.31,0,.1.09-.94.68-.19-.13.17.14-.37.28c-.68.52-1,.82-1,.82L42.51,24l.44-.29.45.36-.55.46-.71.64-.24.23.26-.2c.15-.13.39-.31.69-.54l.18.14c.11.08.24.19.4.33l-.55.43c-.69.56-1.06.89-1.06.89l1.1-.79.64-.43.12.11.36.32-.79.58-.16-.1-.27-.15.25.17.14.11-.37.29a5.35,5.35,0,0,0-.74.67,2.75,2.75,0,0,0-.23.27l.24-.24a8.33,8.33,0,0,1,.78-.61l.44-.29c.13.09.26.2.42.33l.12.09c-1.24,1-2,1.63-2,1.63s.78-.53,2.12-1.5l.48.41-.56.44c-.35-.22-.55-.33-.55-.33s.18.13.48.38c-1.13.9-1.83,1.47-1.89,1.53h0a.18.18,0,0,0,.11.09.14.14,0,0,0,.09,0h0a.11.11,0,0,1-.08,0,.2.2,0,0,1-.12-.09c.08-.05.83-.55,2-1.4l.08.07c.12.09.24.2.38.32-1.45,1.15-2.31,1.86-2.31,1.86s.92-.61,2.49-1.7l.43.39-.67.56a6.73,6.73,0,0,0-.61-.29l.54.35c-.2.16-.38.32-.54.46l-.21-.11-.22-.12.2.14.18.13-.53.46c-.66.58-1,.92-1,.92l1.07-.82.61-.46.27.2.24.19-.9.67L43.44,31l-.21-.17.18.19.08.07-.84.68c-.35.29-.62.53-.8.69l-.27.25.28-.22c.19-.14.47-.36.84-.62l.93-.66a2.79,2.79,0,0,0,.39.31l.13.09c-1,.86-1.55,1.38-1.55,1.38l.92-.69.22.11.27.16-.38.31-.41.34a2,2,0,0,0-.29.27.55.55,0,0,0-.13.2.24.24,0,0,0,0,.08l0-.07a.58.58,0,0,1,.13-.19,3.58,3.58,0,0,1,.31-.23l.43-.3.47-.33.3.18.12.08q-.49.39-.84.69l-.42.38c-.57,0-1.21,0-1.88.06a17.07,17.07,0,0,0-4.41.6,6.31,6.31,0,0,0-1.63.16l-.5.13-.17.06.18,0,.49-.06a8.08,8.08,0,0,1,1.85.06v0a21.91,21.91,0,0,0,4.25.08,27.12,27.12,0,0,0,3.73-.4l.16.12a.4.4,0,0,0-.27.19l.28.13a.17.17,0,0,1,.09-.12.27.27,0,0,1,.12,0l.39.32v.18a.79.79,0,0,0-.41-.19v.11l-.47-.19a.39.39,0,0,0-.36,0,.07.07,0,0,0,0,.08,0,0,0,0,0,0,0,.08.08,0,0,1,0-.09.36.36,0,0,1,.3.06c.23.14.56.35.94.62,0,.11,0,.21,0,.32a6.51,6.51,0,0,0-1.09-.72,5.82,5.82,0,0,0-.56-.26l-.2-.08.18.1c.12.07.3.18.52.33a8.4,8.4,0,0,1,1.14.94c-.71-.37-1.16-.57-1.16-.57s.43.36,1.19.91c0,.15,0,.29,0,.44-.57-.42-1.07-.74-1.45-1s-.82-.47-.82-.47l.75.55c.39.29.91.7,1.53,1.24,0,.17,0,.35,0,.51v.18A7.58,7.58,0,0,0,45,37.57c-.24-.14-.43-.24-.56-.3l-.21-.1.19.12.51.36a9.39,9.39,0,0,1,1.14,1l0,.68a8.89,8.89,0,0,0-1.2-.88,6.6,6.6,0,0,0-.58-.32l-.2-.1.18.13a4.81,4.81,0,0,1,.53.38,9.76,9.76,0,0,1,1.28,1.15c0,.23,0,.45,0,.66A7.87,7.87,0,0,0,45,39.51l-.53-.3-.2-.1.18.12.48.36a9.12,9.12,0,0,1,1.23,1.18c0,.17,0,.33,0,.49l-.11-.32s0,.1,0,.28a6.61,6.61,0,0,0-.88-.6c-.2-.12-.35-.19-.46-.25l-.16-.07s.2.13.55.4a10.32,10.32,0,0,1,1,.93c0,.19,0,.35,0,.5l0,0c-.43-.31-.83-.56-1.15-.75s-.59-.32-.77-.41L44,40.8l.25.16c.17.1.41.26.71.47s.47.34.75.55t.06.15c-.32-.13-.61-.22-.84-.29l-.53-.13-.19,0,.18.06.49.2a10.93,10.93,0,0,1,1.29.67l.12.13s0,.07,0,.1c-.83-.23-1.33-.34-1.33-.34s.63.28,1.72.72l.08.1,0,.09a6.13,6.13,0,0,0-.7-.11,3.6,3.6,0,0,0-.53,0l.51.11a6.69,6.69,0,0,1,1,.36,2.33,2.33,0,0,1,.17.26C46.48,44,46,44,46,44s.53.15,1.42.33c.07.11.13.23.2.35l-.47,0a2.58,2.58,0,0,0-.47.08s.16,0,.46,0a4.07,4.07,0,0,1,.59.09c0,.09.09.19.13.28l-.15,0a2.3,2.3,0,0,0-.34.1h.34l.22,0c0,.09.08.18.11.27s.06.18.09.27l-.2.07a2,2,0,0,0-.34.18,2.41,2.41,0,0,1,.36-.07l.24,0,.06.16C48.28,46.29,48.27,46.29,48.27,46.29Zm-39.6-2-.4-.19,0-.09ZM32.24,18.49a.94.94,0,0,1,.38-.14l-.14.33a3.23,3.23,0,0,1-.15.34.36.36,0,0,1,0,.09c0-.09,0-.17,0-.24h0C32.26,18.74,32.25,18.61,32.24,18.49ZM32,13.83a.91.91,0,0,1,0-.17l.11-.05c0,.28-.08.56-.12.86,0,.12,0,.23,0,.35,0-.19,0-.37,0-.53s0-.31,0-.45h0Zm-.23,2.46c0,.13,0,.27,0,.41l-.09-.16a1.41,1.41,0,0,1,0-.2Zm-.11-.62v-.38a1.19,1.19,0,0,1,.08.2l0,0c0,.13,0,.26,0,.4A2,2,0,0,0,31.65,15.67Zm.15-.77-.12-.25q0-.27,0-.51a.66.66,0,0,0,0-.14h0l.17-.11c0,.11,0,.23,0,.36S31.82,14.67,31.8,14.9Zm0-1.37c0-.1,0-.2,0-.3l.14.35,0,.16Z"/><path class="ae8de636-e2e4-49cb-a37a-d040daf54258" d="M32.61,35l-1.4.1-1.4.08-.11.15v0l-.05.06a3.47,3.47,0,0,1-.25.29,2.09,2.09,0,0,1-.2.22l.23,0,1.86-.25c.55-.08,1-.19,1.39-.26.76-.16,1.17-.28,1.16-.35A3.31,3.31,0,0,0,32.61,35Z"/><path class="ae8de636-e2e4-49cb-a37a-d040daf54258" d="M31.75,20.72h0S31.74,20.73,31.75,20.72Z"/><path class="ae8de636-e2e4-49cb-a37a-d040daf54258" d="M33,9.76l.18-.25a1.54,1.54,0,0,1-.4-.3l-.13-.16a.79.79,0,0,0,0,.21A1,1,0,0,0,33,9.76Z"/><path class="ae8de636-e2e4-49cb-a37a-d040daf54258" d="M25,9.43l.09.3a5.1,5.1,0,0,1,1.11-.28l.43,0a3.15,3.15,0,0,0-.43-.07A3.9,3.9,0,0,0,25,9.43Z"/><path class="ae8de636-e2e4-49cb-a37a-d040daf54258" d="M16.32,10.87a12.1,12.1,0,0,0-.7-1.4c-.29-.53-1.44-3.18-1.69-3.9l.5,2.16a10.66,10.66,0,0,0,1,1.83,13.44,13.44,0,0,1,.79,1.34,5.73,5.73,0,0,1,.35.92c.05.22.07.33.07.33s0-.11,0-.33A5,5,0,0,0,16.32,10.87Z"/><path class="ae8de636-e2e4-49cb-a37a-d040daf54258" d="M12.77,6.91l-.19-.17.16.18.44.56a14.42,14.42,0,0,1,1.35,2.24l.7.88a26.77,26.77,0,0,0-2-3.17C13.06,7.19,12.88,7,12.77,6.91Z"/><path class="ae8de636-e2e4-49cb-a37a-d040daf54258" d="M17.26,10.67l.28.54a11.66,11.66,0,0,1,.65,1.54l.47.71c-.3-.65-.79-2-1-2.3S17.26,10.67,17.26,10.67Z"/><path class="ae8de636-e2e4-49cb-a37a-d040daf54258" d="M18.36,11.62l-.08-.07.06.08a2.4,2.4,0,0,1,.16.27A2.66,2.66,0,0,1,18.82,13l.56,1a9.57,9.57,0,0,0-.79-2.15A1.46,1.46,0,0,0,18.36,11.62Z"/><path class="ae8de636-e2e4-49cb-a37a-d040daf54258" d="M11.64,23.1,11.21,23c-.28-.08-1.34-.35-1.82-.53l.56.44a7,7,0,0,0,1.24.2Z"/><path class="ae8de636-e2e4-49cb-a37a-d040daf54258" d="M12.54,23.6a3.11,3.11,0,0,0,.59,0s-.71-.25-1-.41Z"/><path class="ae8de636-e2e4-49cb-a37a-d040daf54258" d="M10.93,33.8l.84.48a2,2,0,0,1,.49-.06h.2a1.15,1.15,0,0,0-.17-.11A9.13,9.13,0,0,0,10.93,33.8Z"/><path class="ae8de636-e2e4-49cb-a37a-d040daf54258" d="M38.68,23.18l.85-.17a14.19,14.19,0,0,1-2.13.14S37.88,23.19,38.68,23.18Z"/><path class="ae8de636-e2e4-49cb-a37a-d040daf54258" d="M36.08,23.66l.6-.32c-.43.13-1.34.28-1.34.28A5.79,5.79,0,0,0,36.08,23.66Z"/><path class="ae8de636-e2e4-49cb-a37a-d040daf54258" d="M42.56,33.64l0-.31a1.42,1.42,0,0,0-.62.16,1.08,1.08,0,0,0-.18.13l.21,0A1.93,1.93,0,0,1,42.56,33.64Z"/><path class="ae8de636-e2e4-49cb-a37a-d040daf54258" d="M39.45,33.81a4,4,0,0,1,.75,0l.62-.25a11.83,11.83,0,0,0-1.39.12,1.63,1.63,0,0,0-.26.13Z"/><path class="ae8de636-e2e4-49cb-a37a-d040daf54258" d="M24.79,35.67c-.05-.13-.1-.26-.16-.39s-.12-.25-.19-.37-.14-.25-.22-.36l-.13-.17L24,34.21,23.78,34a4.91,4.91,0,0,0,1.37.18,5.35,5.35,0,0,1-.79-.19L24,33.88l-.37-.16-.35-.17-.07,0-.2-.13-.12-.07a3.15,3.15,0,0,1-.27-.19,3.73,3.73,0,0,1-.3-.26,3.58,3.58,0,0,1-.26-.29l-.13-.14-.11-.16a3.62,3.62,0,0,1-.22-.32l-.18-.35c-.06-.11-.11-.23-.17-.35s-.09-.24-.14-.37-.08-.24-.11-.37,0,0,0-.05H21l.38.08a4.63,4.63,0,0,1,.75.22c.13,0,.25.1.37.15l.34.17.33.21c.11.06.21.16.31.22s.21.19.29.28a2.43,2.43,0,0,1,.26.29,3.65,3.65,0,0,1,.24.31,4,4,0,0,1,.22.34,3.9,3.9,0,0,1,.19.35c.06.12.12.24.17.36a5.34,5.34,0,0,1,.28.76,4.34,4.34,0,0,0-.15-.8c0-.14-.08-.27-.13-.4s-.09-.26-.15-.38l-.19-.38c-.07-.12-.14-.24-.22-.35l-.13-.18L24,31.55a1,1,0,0,0-.17-.19,4.91,4.91,0,0,0,1.37.18,7,7,0,0,1-.79-.19l-.38-.13-.37-.16-.36-.17-.07-.05-.19-.12L23,30.64a2.48,2.48,0,0,1-.26-.19,3.61,3.61,0,0,1-.3-.25,3.71,3.71,0,0,1-.27-.29L22,29.77l-.11-.16a3.78,3.78,0,0,1-.22-.33,3.65,3.65,0,0,1-.18-.34c-.06-.11-.11-.23-.17-.35s-.09-.25-.14-.37-.08-.25-.11-.37,0,0,0-.06h.06l.38.07a5.94,5.94,0,0,1,.75.23,3.75,3.75,0,0,1,.71.32,3,3,0,0,1,.33.21c.11.06.21.16.31.22a3.83,3.83,0,0,1,.29.28,3.58,3.58,0,0,1,.26.28,3.81,3.81,0,0,1,.24.32c.07.11.15.22.21.33a3.12,3.12,0,0,1,.2.35c.06.12.12.25.17.37a5.34,5.34,0,0,1,.28.76,4.61,4.61,0,0,0-.15-.81c0-.13-.08-.26-.13-.39s-.1-.26-.16-.39-.12-.25-.18-.37-.14-.24-.23-.36l-.12-.17-.14-.17a1.54,1.54,0,0,0-.17-.19,4.92,4.92,0,0,0,1.37.19,7,7,0,0,1-.79-.2l-.38-.13c-.13-.05-.25-.09-.37-.15l-.36-.18-.07,0-.19-.12L23,28l-.27-.19-.29-.25c-.08-.09-.2-.2-.27-.29l-.12-.15L22,27l-.21-.33a3.65,3.65,0,0,1-.18-.34c-.06-.12-.12-.24-.17-.36s-.1-.24-.14-.36l-.12-.38v-.05h.06l.38.07c.26.06.51.14.75.22l.36.15a3.84,3.84,0,0,1,.35.18l.33.2c.11.07.21.16.31.23s.21.18.29.27.17.19.26.29l.24.31a3.87,3.87,0,0,1,.21.34c.07.11.13.23.2.35l.17.36a7.08,7.08,0,0,1,.28.77,5.76,5.76,0,0,0-.15-.81c0-.13-.08-.26-.13-.39s-.1-.26-.16-.39a2.58,2.58,0,0,0-.19-.37c-.07-.12-.14-.25-.22-.36l-.12-.17-.14-.17L24.05,26a4.91,4.91,0,0,0,1.37.18,5.35,5.35,0,0,1-.79-.19l-.38-.13-.37-.16-.36-.17-.07,0a1.37,1.37,0,0,0-.2-.13l-.12-.07-.27-.19-.29-.26a2.5,2.5,0,0,1-.27-.29l-.12-.14-.12-.16a3.53,3.53,0,0,1-.21-.32,3.9,3.9,0,0,1-.19-.35,3.73,3.73,0,0,1-.16-.35c-.05-.12-.1-.24-.14-.37l-.12-.37v-.05h.05l.39.08a5.31,5.31,0,0,1,.75.22c.12,0,.24.1.36.15l.35.17.33.21c.11.06.21.16.3.22l.3.28c.09.09.17.19.26.29l.24.31.21.34a3.9,3.9,0,0,1,.19.35c.07.12.12.24.18.36s.2.5.28.76a4.36,4.36,0,0,0-.16-.8c0-.14-.08-.27-.12-.4s-.1-.26-.16-.38-.12-.25-.19-.38-.14-.24-.22-.35l-.12-.18-.14-.16c-.09-.12-.19-.2-.28-.31L23.69,23a2.71,2.71,0,0,0-.35-.24c-.12-.08-.24-.14-.37-.21l-.39-.18-.4-.14-.4-.11a3.15,3.15,0,0,0-.42-.09L20.93,22l-.31,0,.06.31c0,.15.06.28.1.42s.08.27.13.4.1.27.16.4.12.25.19.38a3.48,3.48,0,0,0,.22.36c.08.12.15.24.24.35l.25.29-.28-.08-.42-.09-.43-.05-.31,0,.06.3c0,.15.06.28.1.42s.09.27.13.41.1.26.16.39.12.26.19.38.14.25.22.36.16.24.25.35a2.26,2.26,0,0,0,.25.29l-.29-.08-.42-.08a2.79,2.79,0,0,0-.43-.06l-.3,0,.05.3c0,.16.07.29.1.43s.09.27.14.4.1.26.15.39.12.26.19.38.14.25.22.37.16.23.25.34a3.31,3.31,0,0,0,.25.3l-.29-.08A3,3,0,0,0,21.1,30l-.43,0-.31,0,.05.31c0,.15.07.28.11.42s.08.27.13.4.1.27.16.4.11.25.18.38l.22.36c.08.12.16.24.25.35l.25.29-.29-.08L21,32.65l-.43,0-.31,0,.06.3c0,.15.06.28.1.42s.08.27.13.41.1.26.16.39a2.69,2.69,0,0,0,.19.38c.06.12.14.24.21.36s.16.24.25.35a4.28,4.28,0,0,0,.29.33c.1.11.19.18.3.29s.22.18.35.25a2.16,2.16,0,0,0,.36.22c.12.07.25.12.38.18l.39.15a5.05,5.05,0,0,0,1.63.26,6.52,6.52,0,0,1-.79-.2l-.38-.13c-.13,0-.25-.09-.37-.15l-.36-.18a3.79,3.79,0,0,1-.34-.2l-.32-.23c-.11-.08-.2-.17-.3-.25s-.19-.2-.26-.29l-.12-.15-.12-.15c-.08-.11-.14-.22-.21-.33a3.72,3.72,0,0,1-.19-.34c-.06-.12-.11-.24-.16-.36s-.1-.24-.14-.36a2.78,2.78,0,0,1-.12-.38.07.07,0,0,1,0-.05h.05l.39.07a7.08,7.08,0,0,1,.75.22l.36.15c.11.06.23.11.34.18a2.63,2.63,0,0,1,.33.2c.11.07.22.16.31.23a3.84,3.84,0,0,1,.29.27,3.58,3.58,0,0,1,.26.29,3.24,3.24,0,0,1,.24.31,4,4,0,0,1,.22.34,3.9,3.9,0,0,1,.19.35l.18.36c.1.25.2.5.28.77a4.3,4.3,0,0,0-.16-.81C24.88,35.93,24.83,35.8,24.79,35.67Z"/><path class="ae8de636-e2e4-49cb-a37a-d040daf54258" d="M29.59,34.77c.08-.12.14-.25.21-.37A3.26,3.26,0,0,0,30,34c.06-.13.11-.26.16-.4a4,4,0,0,0,.13-.41l.08-.3H30a2.9,2.9,0,0,0-.43,0l-.42.05-.29.07a3.45,3.45,0,0,0,.26-.28c.1-.1.19-.22.28-.33l.24-.35c.08-.11.14-.24.21-.36s.13-.26.18-.39.11-.26.16-.39.09-.26.13-.41l.08-.3h-.31l-.44,0-.42.06-.29.06a3.44,3.44,0,0,0,.27-.27,3.92,3.92,0,0,0,.27-.33,2.71,2.71,0,0,0,.24-.35c.08-.12.15-.24.22-.37l.18-.38c.06-.13.11-.26.16-.39s.09-.27.13-.42l.08-.3h-.31l-.44,0-.42.06-.29.06a3.44,3.44,0,0,0,.27-.27c.1-.11.18-.22.27-.33s.17-.23.24-.35a3.47,3.47,0,0,0,.21-.37c.07-.13.13-.25.19-.38s.11-.26.16-.4.09-.26.13-.41l.07-.3H30.3a3,3,0,0,0-.43,0,3,3,0,0,0-.42.06,1.5,1.5,0,0,0-.29.06,2.37,2.37,0,0,0,.27-.28c.1-.1.18-.22.27-.33s.17-.23.24-.35a2.6,2.6,0,0,0,.21-.36c.07-.13.13-.26.19-.39s.11-.26.15-.39.09-.26.13-.41l.08-.3h-.31l-.43,0-.42.06-.42.09-.41.12a3.12,3.12,0,0,0-.39.15c-.13.06-.26.11-.39.18l-.37.22a3.85,3.85,0,0,0-.34.26,3.92,3.92,0,0,0-.31.28l-.15.16-.13.16c-.09.11-.16.23-.24.35s-.15.23-.22.36L26,25c0,.13-.11.26-.15.39a5.41,5.41,0,0,0-.21.79,6.16,6.16,0,0,1,.33-.74c.07-.12.13-.24.2-.35a4,4,0,0,1,.22-.34,3.71,3.71,0,0,1,.23-.32c.09-.1.17-.21.26-.3a3.57,3.57,0,0,1,.28-.27,3.76,3.76,0,0,1,.31-.25c.1-.06.21-.15.32-.21l.34-.18c.12-.06.24-.1.36-.15l.37-.13a6.91,6.91,0,0,1,.76-.17l.39,0h.06l0,0c0,.12-.09.25-.14.37a3.73,3.73,0,0,1-.16.35l-.19.35c-.06.11-.14.22-.21.33l-.23.31-.13.14-.13.14c-.08.09-.2.19-.28.27a3.19,3.19,0,0,1-.32.23,2.68,2.68,0,0,1-.28.18l-.13.06-.2.12-.07,0a2.39,2.39,0,0,1-.37.15l-.38.13-.39.11a7,7,0,0,1-.8.14A4.94,4.94,0,0,0,27,26.13a1.53,1.53,0,0,0-.18.18l-.15.15-.14.17a4.15,4.15,0,0,0-.24.34c-.08.12-.15.24-.22.36l-.18.37-.15.39a5.41,5.41,0,0,0-.21.79c.1-.25.21-.5.33-.74s.13-.24.2-.35.14-.23.22-.34.15-.21.23-.32l.26-.3.28-.27.31-.25a3.45,3.45,0,0,1,.32-.2,3.9,3.9,0,0,1,.35-.19,3.68,3.68,0,0,1,.35-.15l.37-.12a5.06,5.06,0,0,1,.77-.18l.39,0h0a.08.08,0,0,1,0,0c0,.13-.09.25-.14.37s-.1.24-.16.36-.12.23-.19.34a3,3,0,0,1-.21.33l-.23.31-.13.15-.13.13a3.57,3.57,0,0,1-.28.27c-.11.08-.2.17-.31.24l-.28.17-.13.07-.21.11-.07,0-.37.15-.38.13-.39.1a4.18,4.18,0,0,1-.8.14,4.91,4.91,0,0,0,1.38-.09l-.18.18-.15.16-.13.16c-.09.11-.17.23-.25.34s-.15.24-.21.36a2.64,2.64,0,0,0-.18.38c-.06.12-.11.25-.16.38a4.46,4.46,0,0,0-.2.8,5,5,0,0,1,.33-.75l.19-.35a3.78,3.78,0,0,1,.22-.33,2.43,2.43,0,0,1,.24-.32,1.87,1.87,0,0,1,.26-.3,3.44,3.44,0,0,1,.27-.27c.09-.09.21-.17.31-.26s.21-.14.33-.2a2.21,2.21,0,0,1,.34-.18,3.92,3.92,0,0,1,.36-.16c.12,0,.24-.09.37-.12a6.43,6.43,0,0,1,.76-.17l.39-.05h.05s0,0,0,.06l-.14.36-.17.36c-.06.11-.12.23-.19.34a3.62,3.62,0,0,1-.2.33,3.65,3.65,0,0,1-.24.31l-.12.15-.13.14c-.08.09-.21.19-.29.27s-.2.16-.31.23l-.28.17-.13.07-.2.11-.08,0c-.12.05-.24.11-.37.15l-.37.13-.39.11a7.45,7.45,0,0,1-.8.14,4.53,4.53,0,0,0,1.37-.1l-.18.18-.15.16-.13.16c-.09.11-.17.23-.25.35a3.1,3.1,0,0,0-.21.36,2.53,2.53,0,0,0-.18.37c-.06.13-.11.25-.16.38a4.46,4.46,0,0,0-.2.8,4.91,4.91,0,0,1,.33-.74,3.9,3.9,0,0,1,.19-.35,4,4,0,0,1,.22-.34l.24-.32a3.73,3.73,0,0,1,.26-.3,2.37,2.37,0,0,1,.28-.27,2,2,0,0,1,.31-.25,3,3,0,0,1,.32-.21,3.65,3.65,0,0,1,.34-.18,2.28,2.28,0,0,1,.36-.15l.37-.13a6.43,6.43,0,0,1,.76-.17l.39-.05h.06a.08.08,0,0,0,0,.05c0,.12-.09.25-.14.37a3.78,3.78,0,0,1-.17.35l-.18.34-.21.34c-.08.1-.15.21-.24.31l-.12.14-.13.14a3.71,3.71,0,0,1-.29.27,2.26,2.26,0,0,1-.31.23,2.68,2.68,0,0,1-.28.18l-.13.06-.2.12-.08,0a2.75,2.75,0,0,1-.36.15l-.38.13-.39.11a7,7,0,0,1-.8.14,4.94,4.94,0,0,0,1.38-.09,1.57,1.57,0,0,0-.19.18l-.15.15-.13.17c-.09.11-.17.22-.25.34l-.21.36c-.07.12-.12.25-.18.37a3.12,3.12,0,0,0-.15.39,4.39,4.39,0,0,0-.21.79,7,7,0,0,1,.33-.74,4,4,0,0,1,.2-.35l.21-.34.24-.32.26-.3.28-.27.31-.25a3.45,3.45,0,0,1,.32-.2l.34-.19.36-.15c.12,0,.24-.09.37-.12a4.94,4.94,0,0,1,.76-.18l.39-.05h.06s0,0,0,.05-.09.25-.14.37-.11.24-.16.35a3.9,3.9,0,0,1-.19.35l-.21.33-.23.31-.13.15-.13.13a3.71,3.71,0,0,1-.29.27,3.65,3.65,0,0,1-.31.24l-.33.2a3.9,3.9,0,0,1-.35.19l-.37.15-.38.13-.39.1a4.32,4.32,0,0,1-.8.14,4.79,4.79,0,0,0,1.64-.15,2.64,2.64,0,0,0,.4-.12l.39-.15.38-.2a3.61,3.61,0,0,0,.36-.23c.11-.1.21-.16.32-.27l.31-.3.27-.33Z"/><path class="ae8de636-e2e4-49cb-a37a-d040daf54258" d="M24.35,21.44a2.7,2.7,0,0,0,.08.41c0,.14.08.27.12.41s.09.26.15.38A5.16,5.16,0,0,0,25.59,24a6.17,6.17,0,0,1-.38-.72c-.05-.12-.11-.24-.16-.37s-.09-.25-.13-.38l-.11-.38c0-.13,0-.26-.07-.39a2.58,2.58,0,0,1,0-.39,2.54,2.54,0,0,1,0-.39c0-.12,0-.27,0-.39l0-.19,0-.19a2.24,2.24,0,0,1,.1-.37c0-.13.08-.25.13-.37s.1-.24.16-.36a3.78,3.78,0,0,1,.17-.35l.2-.34,0,0,0,0a3.79,3.79,0,0,1,.2.34,4.58,4.58,0,0,1,.33.71l.14.36c0,.13.07.25.1.38a2.5,2.5,0,0,1,.06.38,2.73,2.73,0,0,1,0,.38,2.64,2.64,0,0,1,0,.4,2.58,2.58,0,0,1,0,.39c0,.13-.05.26-.07.39s-.07.25-.11.38-.08.25-.13.38-.1.25-.16.37a5,5,0,0,1-.38.72,4.09,4.09,0,0,0,.5-.66A2.5,2.5,0,0,0,26.3,23c.06-.13.13-.25.18-.38a2.62,2.62,0,0,0,.15-.39,2.64,2.64,0,0,0,.12-.4l.05-.21,0-.21a3.15,3.15,0,0,0,0-.41c0-.16,0-.3,0-.44a3,3,0,0,0-.06-.42c0-.14-.06-.28-.09-.42s-.08-.27-.13-.41a3.2,3.2,0,0,0-.16-.39l-.18-.38c-.07-.12-.14-.25-.22-.37a3.79,3.79,0,0,0-.25-.35l-.19-.25-.18.25a2.9,2.9,0,0,0-.25.36l-.21.36c-.07.13-.13.25-.19.38s-.11.26-.16.4-.08.27-.12.4a3.15,3.15,0,0,0-.09.42,3,3,0,0,0-.06.43c0,.15,0,.27,0,.42A3.13,3.13,0,0,0,24.35,21.44Z"/><path class="ae8de636-e2e4-49cb-a37a-d040daf54258" d="M24.6,6.1a.09.09,0,0,0,0,.18C24.71,6.28,24.71,6.11,24.6,6.1Z"/><path class="ae8de636-e2e4-49cb-a37a-d040daf54258" d="M25.64,6.31a.09.09,0,0,0,0,.18A.09.09,0,0,0,25.64,6.31Z"/><path class="ae8de636-e2e4-49cb-a37a-d040daf54258" d="M24.85,6.55c-.11,0-.12.17,0,.17S25,6.55,24.85,6.55Z"/><path class="ae8de636-e2e4-49cb-a37a-d040daf54258" d="M25.31,5.87c.11,0,.11-.17,0-.18A.09.09,0,0,0,25.31,5.87Z"/><path class="ae8de636-e2e4-49cb-a37a-d040daf54258" d="M26.78,6.18v.08a.09.09,0,0,0,.18,0V6.18A.09.09,0,1,0,26.78,6.18Z"/><path class="ae8de636-e2e4-49cb-a37a-d040daf54258" d="M28.26,6.14h-.09c-.11,0-.12.17,0,.17h.09C28.36,6.32,28.37,6.14,28.26,6.14Z"/><path class="ae8de636-e2e4-49cb-a37a-d040daf54258" d="M28.62,5.63h-.09c-.11,0-.11.17,0,.17h.09C28.73,5.81,28.73,5.63,28.62,5.63Z"/><path class="ae8de636-e2e4-49cb-a37a-d040daf54258" d="M23.63,5.94a.08.08,0,0,0-.06-.13h-.09c-.06,0-.09.05-.09.09a.26.26,0,1,0,.25.06Z"/><path class="ae8de636-e2e4-49cb-a37a-d040daf54258" d="M23.52,6.61l-.17-.18a.09.09,0,0,0-.13.12l.08.08a.07.07,0,0,0,0,.1l.09.09c.07.08.18,0,.13-.1A.08.08,0,0,0,23.52,6.61Z"/><path class="ae8de636-e2e4-49cb-a37a-d040daf54258" d="M22.43,6a.09.09,0,1,0,0,.17A.09.09,0,0,0,22.43,6Z"/><path class="ae8de636-e2e4-49cb-a37a-d040daf54258" d="M22.09,5.67a.29.29,0,0,0-.18.07.08.08,0,0,0-.14,0l-.09.08a.09.09,0,0,0,.06.15s0,.09.08.09a.26.26,0,0,0,.25.27h0a.08.08,0,0,0,.09.09c.08,0,.1-.08.07-.14a.24.24,0,0,0,.11-.2V5.94A.26.26,0,0,0,22.09,5.67Z"/><path class="ae8de636-e2e4-49cb-a37a-d040daf54258" d="M34.37,6.37l-.09.08a.09.09,0,0,0,.12.13l.09-.09C34.57,6.42,34.45,6.29,34.37,6.37Z"/><path class="ae8de636-e2e4-49cb-a37a-d040daf54258" d="M34.54,5.74V5.65c0-.11-.17-.12-.17,0v.09A.09.09,0,0,0,34.54,5.74Z"/><path class="ae8de636-e2e4-49cb-a37a-d040daf54258" d="M35,6h0a.24.24,0,0,0-.24-.27.26.26,0,0,0,0,.52.22.22,0,0,0,.21-.1.07.07,0,0,0,.06,0A.09.09,0,0,0,35,6Z"/><path class="ae8de636-e2e4-49cb-a37a-d040daf54258" d="M34.78,6.35h-.09a.09.09,0,0,0,0,.18h.08A.09.09,0,0,0,34.78,6.35Z"/><path class="ae8de636-e2e4-49cb-a37a-d040daf54258" d="M35.49,5.86a.09.09,0,1,0,0,.17A.09.09,0,0,0,35.49,5.86Z"/><path class="ae8de636-e2e4-49cb-a37a-d040daf54258" d="M33.23,5.87V6a.09.09,0,0,0,.18,0V5.87C33.41,5.76,33.23,5.76,33.23,5.87Z"/><path class="ae8de636-e2e4-49cb-a37a-d040daf54258" d="M33,6.12a.09.09,0,0,0-.08.13.08.08,0,0,0,.07.13A.09.09,0,0,0,33,6.25S33,6.12,33,6.12Z"/><path class="ae8de636-e2e4-49cb-a37a-d040daf54258" d="M31.67,5.48a.17.17,0,0,0-.16-.19.18.18,0,0,0-.14.29.26.26,0,0,0,.2.41A.27.27,0,0,0,31.67,5.48Z"/><path class="ae8de636-e2e4-49cb-a37a-d040daf54258" d="M24.16,6.18a.26.26,0,0,0,0,.52A.26.26,0,0,0,24.16,6.18Z"/><path class="ae8de636-e2e4-49cb-a37a-d040daf54258" d="M32.8,5.59a.26.26,0,0,0,0,.52A.26.26,0,0,0,32.8,5.59Z"/><path class="ae8de636-e2e4-49cb-a37a-d040daf54258" d="M31.05,6.06a.17.17,0,0,0,0,.34A.17.17,0,0,0,31.05,6.06Z"/><path class="ae8de636-e2e4-49cb-a37a-d040daf54258" d="M30.8,5.7a.18.18,0,0,0,0,.35A.18.18,0,0,0,30.8,5.7Z"/><path class="ae8de636-e2e4-49cb-a37a-d040daf54258" d="M32,6.18h-.09a.18.18,0,0,0,0,.35H32A.17.17,0,0,0,32,6.18Z"/><path class="ae8de636-e2e4-49cb-a37a-d040daf54258" d="M32.28,5.49a.18.18,0,0,0,0,.35A.18.18,0,0,0,32.28,5.49Z"/><path class="ae8de636-e2e4-49cb-a37a-d040daf54258" d="M24.17,5.92a.18.18,0,0,0,0-.35A.18.18,0,0,0,24.17,5.92Z"/><path class="ae8de636-e2e4-49cb-a37a-d040daf54258" d="M24.69,5.93V6A.18.18,0,0,0,25,6V6A.18.18,0,0,0,24.69,5.93Z"/><path class="ae8de636-e2e4-49cb-a37a-d040daf54258" d="M24.54,5.41a.17.17,0,1,0,0,.34A.17.17,0,0,0,24.54,5.41Z"/><path class="ae8de636-e2e4-49cb-a37a-d040daf54258" d="M26.1,5.46a.18.18,0,0,0,0,.35A.18.18,0,0,0,26.1,5.46Z"/><path class="ae8de636-e2e4-49cb-a37a-d040daf54258" d="M27.06,5.4a.18.18,0,0,0,0,.35A.18.18,0,0,0,27.06,5.4Z"/><path class="ae8de636-e2e4-49cb-a37a-d040daf54258" d="M25.28,6.74h-.09a.18.18,0,0,0,0,.35h.09A.17.17,0,0,0,25.28,6.74Z"/><path class="ae8de636-e2e4-49cb-a37a-d040daf54258" d="M32.6,6.28a.18.18,0,0,0,0,.35A.18.18,0,0,0,32.6,6.28Z"/><path class="ae8de636-e2e4-49cb-a37a-d040daf54258" d="M27.85,5.34a.18.18,0,0,0,0,.35A.18.18,0,0,0,27.85,5.34Z"/><path class="ae8de636-e2e4-49cb-a37a-d040daf54258" d="M26.17,6.16a.17.17,0,1,0,0,.34A.17.17,0,0,0,26.17,6.16Z"/><path class="ae8de636-e2e4-49cb-a37a-d040daf54258" d="M25.5,5.35a.18.18,0,0,0,0,.35A.18.18,0,0,0,25.5,5.35Z"/></svg>