<svg id="ab33fdca-2122-4974-8a14-8585a7128cb0" data-name="Calque 1" xmlns="http://www.w3.org/2000/svg" viewBox="0 0 58.73 22.38"><defs><style>.b2045471-8f08-4a08-ab43-6c73345fdec7{fill:#363636;}</style></defs><path class="b2045471-8f08-4a08-ab43-6c73345fdec7" d="M58.58,8.74A2,2,0,0,0,58,8.27a7.28,7.28,0,0,0-1.17-.49,29.48,29.48,0,0,0-4.59-.94c-1.49-.2-2.93-.35-4.32-.47-2.31-.19-4.45-.32-6.41-.41a1.2,1.2,0,0,1,0-.19.4.4,0,0,0-.39-.39l-.52,0a.42.42,0,0,0-.23-.53c-1.12-.44-2.47-.91-2.7-2.24a.41.41,0,0,0-.37-.29,4,4,0,0,1-2.66-.57,2.82,2.82,0,0,0-1.34-.66,1.27,1.27,0,0,0-1,.4A.39.39,0,0,0,32.07,1L31.62.81a.25.25,0,0,0-.15-.05A14.41,14.41,0,0,0,29.93.38a.36.36,0,0,0-.3-.14h-.25a.29.29,0,0,0-.14,0L29,.24A.33.33,0,0,0,28.52,0l-.46.17a13.29,13.29,0,0,0-1.78.06A.31.31,0,0,0,26,.18c-.28,0-.56.06-.84.1a.48.48,0,0,0-.18,0h-.25a.34.34,0,0,0-.32.19A10.94,10.94,0,0,0,20.7,2a.38.38,0,0,0-.17.34.84.84,0,0,0-.52.81.39.39,0,0,0,.77,0c0-.1,0-.14.13-.1.31,0,.42-.25.35-.49.12-.08.25-.15.38-.22a.36.36,0,0,0,.31.16A.38.38,0,0,0,22.29,2c.29-.14.58-.26.88-.38a.4.4,0,0,0,.21.62.35.35,0,0,0,.36.3h.77a.37.37,0,0,0,.21-.06.35.35,0,0,0,.27.3h.13a1.57,1.57,0,0,0,.61,0h1.09a.39.39,0,0,0,.28-.64.29.29,0,0,0,0-.13h.18a.39.39,0,0,0,0-.77h-1A.38.38,0,0,0,26,1.8.33.33,0,0,0,25.7,2h-.61a.33.33,0,0,0-.22.08.39.39,0,0,0-.08-.2.39.39,0,0,0-.28-.64.32.32,0,0,0-.26.12l-.09-.08A12.12,12.12,0,0,1,25.64,1a.38.38,0,0,0,.22.06l.7-.05.1,0c.31,0,.63,0,.94,0A.32.32,0,0,0,28,1L28.17,1c.29,0,.57,0,.85.07a.35.35,0,0,0,.09.38l.25.25a.36.36,0,0,0,.46.05.36.36,0,0,0-.06.19v.26a.39.39,0,0,0,.77,0V1.9a.38.38,0,0,0-.59-.31.36.36,0,0,0,0-.41c.31.06.63.13.94.21a.33.33,0,0,0,.28.13h.13v.13a.38.38,0,0,0,.76.05.18.18,0,0,0,.09,0A1.26,1.26,0,0,0,32,2a.3.3,0,0,0,0,.19.36.36,0,0,0-.33-.2h-.25a.39.39,0,0,0,0,.77h.25A.37.37,0,0,0,32,2.29a.42.42,0,0,0,.34.22.35.35,0,0,0,.05.45l.52.51a.38.38,0,0,0,.64-.23.87.87,0,0,0,.83,0A.39.39,0,0,0,34,2.55c-.12.08-.18,0-.17-.14a.29.29,0,0,0-.17-.32c.63.26,1.39.8,1.63.87a2.36,2.36,0,0,0,.67.09.39.39,0,0,0,.06.33.38.38,0,0,0-.17.72l-.09,0a.39.39,0,1,0,.21.07l.7.23a.34.34,0,0,0,.46-.32h0a.31.31,0,0,0,.15-.1l0,0a.89.89,0,0,0,.08-.17,3,3,0,0,0,.69.86l.37.23h0a.13.13,0,0,0,0,.06.38.38,0,0,0-.54.34v.26a.38.38,0,0,0,.74.12l0,.09c.2.45.87.06.66-.39l0-.06.69.28a.41.41,0,0,0,.33.59h.38v0a.38.38,0,0,0,.13.74.34.34,0,0,0,.23-.09c.35.32.88-.21.53-.55a1.19,1.19,0,0,1-.09-.15l.56,0a.36.36,0,0,0-.34.37v.25a.37.37,0,0,0,.36.37s0,0,0,.07a.36.36,0,0,0-.19,0h-.25a.38.38,0,0,0,0,.76h.25a.34.34,0,0,0,.34-.22,3.25,3.25,0,0,0,1.65,1.45.71.71,0,0,0,.09.07l.09.08.18.18a.9.9,0,0,1,.16.8.38.38,0,0,0,.47.46.35.35,0,0,0,.08.4l.15.15.17.25-.76.05a.38.38,0,1,0-.6,0c-.42,0-.84,0-1.26.06l.17-.17H43a.39.39,0,0,0,0-.77h-.15a.38.38,0,0,0,0-.33l-.23-.47a.36.36,0,0,0,.25,0l.42.29c.41.29.8-.38.39-.66L43,9.15A.34.34,0,0,0,42.8,9a.35.35,0,0,0-.36-.3h-.25a.39.39,0,0,0,0,.77h.13v.13a.51.51,0,0,0,0,.13.37.37,0,0,0-.23,0,.39.39,0,0,0-.18.65l.21.42a.28.28,0,0,0,.18.16l-.4.41a.35.35,0,0,0-.1.35l-.56,0a.35.35,0,0,0,.26-.3l.36-.23c.41-.27,0-.94-.39-.67l-.23.15a.37.37,0,0,0-.35-.47H40.4a.38.38,0,0,0-.31.6,1.72,1.72,0,0,0-.52-.27.38.38,0,0,0-.31-.06h.11a.39.39,0,0,0,0-.77h-.26a.38.38,0,0,0,0,.76.36.36,0,0,0-.37.38.5.5,0,0,0,0,.12.35.35,0,0,0,.08.39.43.43,0,0,0,0,.46l-.85,0a.39.39,0,0,0-.65-.23l-.25.26-1.74,0a.5.5,0,0,0,0-.13.36.36,0,0,0-.34-.51l-.06,0-.62-.21c-.47-.16-.67.59-.21.74l.31.1c-.58,0-1.16,0-1.75,0a.39.39,0,0,0-.13-.67.32.32,0,0,0,0-.14v-.26a.39.39,0,0,0-.77,0v.26a.36.36,0,0,0,.3.36.42.42,0,0,0,.11.45H29.36l0,0a.38.38,0,0,0-.54-.54l-.26.25a.36.36,0,0,0-.1.31h-.31a.35.35,0,0,0,0-.22l-.26-.51c-.22-.44-.89,0-.66.39l.16.33h-.46a.37.37,0,0,0-.28-.38.38.38,0,1,0-.43.22.41.41,0,0,0,0,.16q-3.92-.06-7.77-.21c-1.43-.06-2.84-.15-4.25-.24a.35.35,0,0,0,.22-.33v-.26a.39.39,0,0,0-.77,0v.26a.35.35,0,0,0,.18.31l-.63,0c.19-.4.39-.8.59-1.2a.43.43,0,0,0,.32-.16l.25-.35a.34.34,0,0,0,.31-.36V9.28l.06-.07A.37.37,0,0,0,15,9.15a2.72,2.72,0,0,0,.73-.79.37.37,0,0,0,.23.31l-.14.14a.36.36,0,0,0-.08.4h-.16a.36.36,0,0,0-.36.42l-.33.17c-.43.22-.08.83.34.67a.39.39,0,0,0,.35.53h.26L16,11a.38.38,0,0,0,.74-.1v-.26a.39.39,0,0,0-.64-.28.34.34,0,0,0-.25-.1h-.11l.06,0a.3.3,0,0,0,.18-.25.39.39,0,0,0,.21-.5.44.44,0,0,0,.19-.1l.25-.26a.38.38,0,0,0-.18-.63.48.48,0,0,0,0-.29.39.39,0,0,0,.19-.1l.26-.26c.35-.35-.2-.89-.55-.54L16,7.52a.36.36,0,0,0-.11.21.38.38,0,0,0-.49-.27l.11-.3h.18a.41.41,0,0,0,.22,0l0,0,0,0a.45.45,0,0,0,.11-.19.35.35,0,0,0,.27-.4h0l.12-.18a1.63,1.63,0,0,0,.34.3c.41.27.8-.39.39-.66A.62.62,0,0,1,17,5.58h0a.39.39,0,0,0-.19-.72h-.25a.38.38,0,0,0-.37.44s0,.09,0,.14S16,5.67,16,5.8a.4.4,0,0,0-.66-.29l-.41.39s-.05.06-.08.09c-1.23.07-2.51.14-3.86.25s-2.83.24-4.32.44a28.26,28.26,0,0,0-4.6.9,6.42,6.42,0,0,0-1.17.48,1.81,1.81,0,0,0-.6.51l-.09.17C.12,8.67.06,8.61,0,8.54a.82.82,0,0,0,.08.29.33.33,0,0,1,0,.06L.09,9a.68.68,0,0,0,0,.12v.07l0,.14a.75.75,0,0,0,.1.24,2.54,2.54,0,0,0,1.16.87,11.22,11.22,0,0,0,.74,1.17,13.8,13.8,0,0,0,4,3.54,20.72,20.72,0,0,0,3.76,1.75l.06,0,.36.13.14.12h0a16.57,16.57,0,0,0,1.83,1.26,28.17,28.17,0,0,0,8.54,3.06,46.55,46.55,0,0,0,9.06.9,45.86,45.86,0,0,0,9.07-.87,28.45,28.45,0,0,0,8.54-3,17.44,17.44,0,0,0,1.88-1.29.92.92,0,0,1,.29-.16,21.69,21.69,0,0,0,4.12-1.87,14,14,0,0,0,4-3.52,11.43,11.43,0,0,0,1-1.67h0A5.05,5.05,0,0,1,58.58,8.74ZM33.08,2.41s0,.09,0,.13L33,2.47a.34.34,0,0,0-.3-.18l0,0c.08-.38.45-.35.88-.19A.44.44,0,0,0,33.08,2.41ZM15.92,7.9a.45.45,0,0,0,0-.16.28.28,0,0,0,0,.2l-.08,0Zm30.23,3.51c-.08-.13-.17-.26-.26-.38a.33.33,0,0,0-.1-.17l-.07-.07-.09-.14a.39.39,0,0,0-.46-.14h0v0a1.71,1.71,0,0,0,0-.59.36.36,0,0,0,0-.54L44.87,9a1.42,1.42,0,0,0-.31-.29l-.06-.06a.31.31,0,0,0-.17-.12,2.21,2.21,0,0,1-.27-.12h0l-.51-1s0,0,0-.07h0a.33.33,0,0,0-.27-.11h-.07a.31.31,0,0,0-.22.14l-.13-.23a.28.28,0,0,0-.25-.18.51.51,0,0,0,0-.13V6.52a.36.36,0,0,0-.25-.36c1.73.13,3.6.3,5.59.55,1.37.17,2.8.37,4.27.63a28.86,28.86,0,0,1,4.45,1.09,5.68,5.68,0,0,1,1,.47,1.5,1.5,0,0,1,.34.3l0,.06h0v.07c0,.07,0,.06,0,.05l-.06,0a29.84,29.84,0,0,0-5.11-1.37,43.65,43.65,0,0,0-5.61-.64c-.76,0-1.4,0-1.85,0h-.7l.7,0c.45,0,1.09,0,1.85.11a42.11,42.11,0,0,1,5.55.83,29.84,29.84,0,0,1,4.67,1.4l-.26.12c-.14.06-.3.11-.46.16-1.05-.3-2.2-.57-3.37-.78a41.63,41.63,0,0,0-5.6-.64c-.76,0-1.41,0-1.85,0h-.71l.71,0c.44,0,1.08,0,1.85.11a42.6,42.6,0,0,1,5.55.83c.93.2,1.85.45,2.72.71-.54.14-1.1.25-1.66.36a42.32,42.32,0,0,0-4.48-.46c-.77,0-1.41,0-1.86,0h-.7l.7,0c.45,0,1.09.05,1.85.11,1.08.09,2.41.25,3.8.49-.85.14-1.72.25-2.6.35-1.59.18-3.22.3-4.87.41A.36.36,0,0,0,46.15,11.41ZM57,11.11h0l.2-.09Zm-17.61.28,0,0a.7.7,0,0,1,.36.23c.29.39,1,0,.66-.38a2.13,2.13,0,0,0-.26-.26.34.34,0,0,0,.2.06h.41l0,0a.39.39,0,0,0-.11.64.45.45,0,0,0,.14.1h-.37l-1,0A.42.42,0,0,0,39.4,11.39Zm-25.14-3H14a.38.38,0,0,0-.2.69l-.26.34a.33.33,0,0,0-.37.19l-.76,1.54a.74.74,0,0,0,0,.14c-1.54-.12-3.07-.25-4.56-.43-.86-.11-1.7-.22-2.53-.36A44.36,44.36,0,0,1,9.69,10c.76-.06,1.4-.09,1.85-.11l.7,0h-.7c-.45,0-1.09,0-1.86,0a42,42,0,0,0-5.12.56c-.49-.1-1-.2-1.46-.32a30.43,30.43,0,0,1,3.17-.85,40.5,40.5,0,0,1,5.55-.83c.76-.07,1.4-.1,1.85-.11l.63,0a.38.38,0,0,0,0,.16Zm.06-.26s0,.07,0,.11h-.63c-.45,0-1.09,0-1.86.05A41.64,41.64,0,0,0,6.21,9a32.88,32.88,0,0,0-3.85.94c-.22-.07-.44-.15-.65-.24h0A27.91,27.91,0,0,1,6.79,8.07a42.6,42.6,0,0,1,5.55-.83c.77-.06,1.41-.09,1.85-.11h.55ZM.85,9.1h0L.86,9h0a1.46,1.46,0,0,1,.33-.28,5.68,5.68,0,0,1,1-.47A28.53,28.53,0,0,1,6.71,7.18c1.46-.25,2.9-.44,4.27-.6s2.51-.27,3.69-.36h0a.28.28,0,0,0,0,.09l0,.09s0,0,0,0a.28.28,0,0,0,.08.11h0l.05.06.1.06v0l-.18.44h-.55c-.44,0-1.08,0-1.85,0a41.63,41.63,0,0,0-5.6.64,27.71,27.71,0,0,0-5.46,1.5l-.16.07a.87.87,0,0,1-.24-.21S.84,9.11.85,9.1Zm55.89,2.8a3.07,3.07,0,0,0,.26-.25A3.07,3.07,0,0,1,56.74,11.9Zm-2.31,1c-.37.16-.76.29-1.12.41L51.23,14c-1.3.4-2.42.71-3.33,1s-1.62.42-2.1.53l-.73.18.75-.15c.49-.09,1.22-.24,2.14-.45s2.06-.49,3.36-.85l2.08-.62c.29-.09,1.44-.42,2.07-.63a13.72,13.72,0,0,1-2,1.19A19.62,19.62,0,0,1,51.3,15c-.27.1-.54.19-.83.27a1,1,0,0,0-.25.13,12.4,12.4,0,0,1-1.24.75,13.43,13.43,0,0,1-1.35.86l-.2.12h0a48.4,48.4,0,0,1-12,2.3c-1.32,0-2.34,0-3,0l-1-.05,1.07.09c.7.05,1.74.11,3.07.09a38.39,38.39,0,0,0,9.34-1.25c-.6.21-1.2.41-1.82.59a37.65,37.65,0,0,1-4.29,1,52.58,52.58,0,0,1-8.88.7A51.53,51.53,0,0,1,21,19.82a36.13,36.13,0,0,1-4.29-1c-.44-.13-.88-.27-1.31-.42a38.05,38.05,0,0,0,8.88,1.14c1.34,0,2.37,0,3.08-.09l1.07-.09-1.05.05c-.69,0-1.71.06-3,0a40.45,40.45,0,0,1-11.15-2v.08l-.53-.26-.33-.19,1.81.42c.55.11,1.09.22,1.61.3s1,.15,1.49.21c.95.11,1.83.18,2.62.23,1.57.11,2.8.12,3.63.12l.95,0h0l-.93-.06c-.81-.07-2-.17-3.57-.38-.77-.11-1.63-.24-2.58-.4-.47-.08-1-.18-1.47-.29s-1-.24-1.58-.39l-2.08-.58-.5-.16c-.5-.16-1.06-.34-1.69-.56l-.05,0,0,0a.27.27,0,0,0-.07-.08v.09h.07v0l-.07,0h0l-.17-.05A36.25,36.25,0,0,1,5,13.29l0,.05a13.09,13.09,0,0,1-1.84-1.41,12.85,12.85,0,0,0,1.11.72,4.29,4.29,0,0,0,1,.53,10.72,10.72,0,0,0,1.13.38c.73.23,1.42.43,2.08.62,1.3.36,2.43.64,3.35.85s1.65.36,2.14.45l.75.15-.73-.18c-.48-.11-1.18-.29-2.1-.53s-2-.56-3.32-1c-.65-.21-1.35-.43-2.08-.68-.37-.12-.75-.25-1.13-.41a4.22,4.22,0,0,1-.66-.35l.49.2.25.09-.24-.12-.67-.38-.26-.16.71.28c.4.14.72.23.93.29l.33.09-.31-.12L5,12.32a20,20,0,0,1-2.23-1.19h0l1.3.6c-.37-.2-.73-.43-1.09-.66l.14,0a44.91,44.91,0,0,0,4.53,1c3.45.55,7,.9,10.69,1.13s7.36.34,11.07.37,7.43-.07,11.08-.29,7.24-.53,10.69-1.06c.88-.14,1.74-.28,2.6-.45l-1.27.55a34,34,0,0,0,3.29-.89A29.54,29.54,0,0,1,51.4,13.1c-.82.26-1.47.41-1.91.51l-.67.14.69-.1c.45-.09,1.11-.21,2-.44a26.77,26.77,0,0,0,3-1c.62-.25,1.29-.55,2-.87l.11,0a17.8,17.8,0,0,1-1.84,1c-.38.17-.69.29-.89.37l-.32.12.33-.09c.22-.06.53-.15.93-.29a15.87,15.87,0,0,0,2.17-1l.18,0-.15.16A17.32,17.32,0,0,1,54.43,12.87Z"/><path class="b2045471-8f08-4a08-ab43-6c73345fdec7" d="M17.08,4.85a.35.35,0,0,0,.18,0,.36.36,0,0,0,0,.41l0,.09v0a.39.39,0,0,0,.26.54h.08a.29.29,0,0,0,.27-.11h0l.26-.25a.35.35,0,0,0,.08-.39l.1-.2a.34.34,0,0,0,.32.19.39.39,0,0,0,0-.77.43.43,0,0,0-.17,0,.36.36,0,0,0,0-.09v0a.35.35,0,0,0,.48,0L19.14,4a.36.36,0,0,0,.52,0l.25-.26a.38.38,0,0,0-.54-.54l-.25.25a.37.37,0,0,0-.52,0l-.26.26h0a.37.37,0,0,0-.43-.06l-1,.49h-.05a.32.32,0,0,0-.15.44A.34.34,0,0,0,17.08,4.85Z"/><path class="b2045471-8f08-4a08-ab43-6c73345fdec7" d="M28.1,2.8a.39.39,0,0,0,0,.77A.39.39,0,0,0,28.1,2.8Z"/><path class="b2045471-8f08-4a08-ab43-6c73345fdec7" d="M28.7,1.55a.78.78,0,0,0-1,.51c-.18.46.56.65.75.2t0,0C29,2.45,29.17,1.71,28.7,1.55Z"/><path class="b2045471-8f08-4a08-ab43-6c73345fdec7" d="M17.59,8.69a.39.39,0,0,0,0,.77h.26a.39.39,0,0,0,0-.77Z"/><path class="b2045471-8f08-4a08-ab43-6c73345fdec7" d="M18.22,8.21,18,7.64l.09-.08a.39.39,0,0,0-.42-.63.29.29,0,0,0-.11,0h-.26a.38.38,0,0,0-.35.51.39.39,0,0,0,.33.51c.06.16.11.33.17.49C17.63,8.88,18.37,8.68,18.22,8.21Z"/><path class="b2045471-8f08-4a08-ab43-6c73345fdec7" d="M19.38,5.87a.38.38,0,0,0,0-.76A.38.38,0,0,0,19.38,5.87Z"/><path class="b2045471-8f08-4a08-ab43-6c73345fdec7" d="M38.48,10.84c.48-.11.28-.85-.2-.74a.62.62,0,0,1-.73-.39.39.39,0,0,0-.48-.25h-.26a.39.39,0,0,0,0,.77H37a1.55,1.55,0,0,0,.59.52.38.38,0,0,0,0,.76.39.39,0,0,0,.22-.69A1.3,1.3,0,0,0,38.48,10.84Z"/><path class="b2045471-8f08-4a08-ab43-6c73345fdec7" d="M39.79,8.43a.35.35,0,0,0,.13.51.33.33,0,0,0-.17,0,.38.38,0,0,0,.08.73,1.42,1.42,0,0,0,.89.21.36.36,0,0,0,.19.05.37.37,0,0,0,.24-.09l0,0s0,0,0,0l.07-.11.09-.06A.42.42,0,0,0,41.29,9v-.4a.34.34,0,0,0-.3-.35.38.38,0,1,0-.69,0h-.16A.34.34,0,0,0,39.79,8.43Z"/><path class="b2045471-8f08-4a08-ab43-6c73345fdec7" d="M37.83,9.46a.39.39,0,0,0,0-.77A.39.39,0,0,0,37.83,9.46Z"/><path class="b2045471-8f08-4a08-ab43-6c73345fdec7" d="M38.19,6.58a.37.37,0,0,0-.36-.45h-.16a.39.39,0,0,0-.21.7.32.32,0,0,0,.1.21l.26.26,0,0,.06,0a.42.42,0,0,0,.15,0h0a.35.35,0,0,0,.31-.23.33.33,0,0,0-.07-.42Z"/><path class="b2045471-8f08-4a08-ab43-6c73345fdec7" d="M38.87,8l-.25-.26A.38.38,0,0,0,38,8a.42.42,0,0,0-.16,0,.39.39,0,0,0,0,.77.33.33,0,0,0,.35-.26l.15.15a.41.41,0,0,0,.18.1A.38.38,0,1,0,39,8.46.36.36,0,0,0,38.87,8Z"/><path class="b2045471-8f08-4a08-ab43-6c73345fdec7" d="M36.55,6.9a.39.39,0,0,0,0,.77A.39.39,0,0,0,36.55,6.9Z"/><path class="b2045471-8f08-4a08-ab43-6c73345fdec7" d="M39.24,7.28v.26a.31.31,0,0,0,.1.24l0,0s0,0,0,0a.38.38,0,0,0,.25.09h.25A.38.38,0,0,0,40,7.18s0,0,0,0a.38.38,0,0,0,.18-.63l-.25-.26a.39.39,0,0,0-.55.55l.15.15A.34.34,0,0,0,39.24,7.28Z"/><path class="b2045471-8f08-4a08-ab43-6c73345fdec7" d="M35.77,6l.25.25c.35.35.9-.19.55-.54l-.15-.14a.42.42,0,0,0,.17-.11l.56-.19c.46-.16.26-.9-.21-.74l-.77.26a.39.39,0,0,0-.23.52s0,0,0,0A.38.38,0,0,0,35.77,6Z"/><path class="b2045471-8f08-4a08-ab43-6c73345fdec7" d="M33.22,10a.38.38,0,0,0,0-.76A.38.38,0,0,0,33.22,10Z"/><path class="b2045471-8f08-4a08-ab43-6c73345fdec7" d="M30,11l.49-.16c-.24.46.3,1.23.83.84a.42.42,0,0,0,0-.69s0-.06,0-.08a.36.36,0,0,0-.28-.4c.09-.27-.1-.62-.44-.51l-.77.26C29.33,10.42,29.53,11.17,30,11Z"/><path class="b2045471-8f08-4a08-ab43-6c73345fdec7" d="M33.73,10.74a.39.39,0,0,0,0-.77A.39.39,0,0,0,33.73,10.74Z"/><path class="b2045471-8f08-4a08-ab43-6c73345fdec7" d="M24.51,10.74a.39.39,0,0,0,0,.77A.39.39,0,0,0,24.51,10.74Z"/><path class="b2045471-8f08-4a08-ab43-6c73345fdec7" d="M27.58,11h.26a.39.39,0,0,0,0-.77h-.26A.39.39,0,0,0,27.58,11Z"/><path class="b2045471-8f08-4a08-ab43-6c73345fdec7" d="M27.07,9h-.25a.39.39,0,0,0,0,.77h.25A.39.39,0,0,0,27.07,9Z"/><path class="b2045471-8f08-4a08-ab43-6c73345fdec7" d="M30.66,7.41a.39.39,0,0,0,0,.77A.39.39,0,0,0,30.66,7.41Z"/><path class="b2045471-8f08-4a08-ab43-6c73345fdec7" d="M32.2,9.21a.38.38,0,0,0,0,.76A.38.38,0,0,0,32.2,9.21Z"/><path class="b2045471-8f08-4a08-ab43-6c73345fdec7" d="M33.48,6.39a.39.39,0,0,0,0,.77A.39.39,0,0,0,33.48,6.39Z"/><path class="b2045471-8f08-4a08-ab43-6c73345fdec7" d="M34.5,8.69a.39.39,0,0,0,0-.77A.39.39,0,0,0,34.5,8.69Z"/><path class="b2045471-8f08-4a08-ab43-6c73345fdec7" d="M35,7.16h-.25a.38.38,0,0,0,0,.76H35A.38.38,0,0,0,35,7.16Z"/><path class="b2045471-8f08-4a08-ab43-6c73345fdec7" d="M33.89,5.08l.23.91h0a.35.35,0,0,0,.18.32l.05,0,0,0h.22l.11-.05h0l.06-.06.05-.07h0a.37.37,0,0,0,0-.26h0V5.75a.43.43,0,0,0-.1-.26l-.16-.62C34.51,4.39,33.77,4.6,33.89,5.08Z"/><path class="b2045471-8f08-4a08-ab43-6c73345fdec7" d="M34.37,3.7V4a.39.39,0,0,0,.77,0V3.7A.39.39,0,0,0,34.37,3.7Z"/></svg>