<svg id="bca27b18-9835-4d8c-af55-d69fe769a172" data-name="Calque 1" xmlns="http://www.w3.org/2000/svg" viewBox="0 0 29.65 28.27"><defs><style>.b3bca82f-7a45-4c67-8051-c064070d84c4{fill:#501e19;}</style></defs><path class="b3bca82f-7a45-4c67-8051-c064070d84c4" d="M3.43,4.28a3.56,3.56,0,0,1,1-.21.79.79,0,0,0,.68-.54A3.86,3.86,0,0,1,8.81.87,3.8,3.8,0,0,1,11.52,2a.79.79,0,0,0,1.09,0A3.86,3.86,0,0,1,19,3.53a.8.8,0,0,0,.69.54,3.86,3.86,0,0,1,.16,7.69h0a2.18,2.18,0,0,0-2,2.16v.3a.44.44,0,1,0,.87,0v-.3a1.31,1.31,0,0,1,1.18-1.3H20a4.74,4.74,0,0,0-.14-9.42,4.74,4.74,0,0,0-7.74-1.9A4.74,4.74,0,0,0,4.33,3.2a5.26,5.26,0,0,0-1.19.26A.44.44,0,0,0,2.87,4a.45.45,0,0,0,.56.26Z"/><path class="b3bca82f-7a45-4c67-8051-c064070d84c4" d="M28.53,23.73l-.14-.08a3.44,3.44,0,0,0-3.25-.1,1.34,1.34,0,0,1-.53.14v-.82a4.42,4.42,0,0,0,.56.05h0a4.45,4.45,0,0,0,0-8.9h0c-1.48,0-5.92,1.54-9.58,2.9a.77.77,0,0,0-.77-.76l-5.1,0a4.68,4.68,0,0,0-1.62.3,2.61,2.61,0,0,1-.91.16,2.53,2.53,0,0,1-.91-.17h0V13.92a2.18,2.18,0,0,0-2-2.16A3.85,3.85,0,0,1,.88,8.2a3.8,3.8,0,0,1,1-2.93.44.44,0,0,0,0-.61.42.42,0,0,0-.61,0,4.72,4.72,0,0,0,2.94,7.94,1.31,1.31,0,0,1,1.19,1.3v2.25a4.59,4.59,0,0,0-.73-.06H4.17a.8.8,0,0,0-.79.78v2.94a.77.77,0,0,0,.77.78h.55a4.62,4.62,0,0,0,1.61-.3,2.52,2.52,0,0,1,.91-.15,2.32,2.32,0,0,1,.9.17,4.79,4.79,0,0,0,1.63.31l5.09,0h0a.79.79,0,0,0,.78-.75c1.32.51,2.89,1.1,4.39,1.62H12.28a1.3,1.3,0,0,0-1.3,1.3v.86a1.27,1.27,0,0,1-.54-.14,3.38,3.38,0,0,0-1.53-.36,3.42,3.42,0,0,0-1.71.46,1.38,1.38,0,0,0,0,2.51,3.41,3.41,0,0,0,1.71.45,3.38,3.38,0,0,0,1.53-.36,1.44,1.44,0,0,1,.54-.14V27a1.3,1.3,0,0,0,1.3,1.3H14.5a.44.44,0,1,0,0-.87h-.16a.61.61,0,0,0,0-.14,1.44,1.44,0,0,0-.24-.81.68.68,0,0,1,0-.74,1.49,1.49,0,0,0,0-1.62.68.68,0,0,1,0-.74,1.44,1.44,0,0,0,.24-.81.61.61,0,0,0,0-.14h6.91a.61.61,0,0,0,0,.14,1.53,1.53,0,0,0,.23.81.59.59,0,0,1,.12.37.57.57,0,0,1-.12.37,1.56,1.56,0,0,0,0,1.63.55.55,0,0,1,.12.37.59.59,0,0,1-.12.37,1.47,1.47,0,0,0-.23.81.53.53,0,0,0,0,.13H14.94a.44.44,0,0,0-.43.44.43.43,0,0,0,.43.43h8.37a1.3,1.3,0,0,0,1.3-1.3v-.86a1.44,1.44,0,0,1,.54.14,3.38,3.38,0,0,0,1.53.36,3.41,3.41,0,0,0,1.71-.45l.14-.08a1.36,1.36,0,0,0,.67-1.18,1.33,1.33,0,0,0-.67-1.17ZM14.75,19.79l-5,0a3.75,3.75,0,0,1-1.32-.27,3.51,3.51,0,0,0-1.21-.22h0a3.53,3.53,0,0,0-1.2.21,3.67,3.67,0,0,1-1.32.25H4.24V17h.44A4,4,0,0,1,6,17.23a3.29,3.29,0,0,0,1.21.23,3.6,3.6,0,0,0,1.22-.21A3.67,3.67,0,0,1,9.76,17l5,0ZM11,25.24a2.32,2.32,0,0,0-.93.23,2.49,2.49,0,0,1-2.42-.07.52.52,0,0,1,0-1,2.49,2.49,0,0,1,2.42-.07,2.32,2.32,0,0,0,.93.23Zm2.5-2.7a.65.65,0,0,1-.11.37,1.38,1.38,0,0,0-.24.81,1.44,1.44,0,0,0,.24.81.68.68,0,0,1,0,.74,1.49,1.49,0,0,0,0,1.62.65.65,0,0,1,.11.37.57.57,0,0,1,0,.14H12.28a.43.43,0,0,1-.43-.43V22.83a.43.43,0,0,1,.43-.43h1.19a.57.57,0,0,1,0,.14Zm11.73-7.65h0a3.58,3.58,0,0,1,3.35,2.38A6,6,0,0,0,25.21,16h0a65.68,65.68,0,0,0-7.43,1.06c3.87-1.4,6.54-2.18,7.45-2.18Zm0,2h0a5.24,5.24,0,0,1,3,1.17L17.53,18A69.79,69.79,0,0,1,25.19,16.88Zm3,2a5.25,5.25,0,0,1-3,1.14,69.2,69.2,0,0,1-7.7-1.2Zm-4.42,8a.43.43,0,0,1-.43.43H22.12a.53.53,0,0,1,0-.13.62.62,0,0,1,.11-.37,1.44,1.44,0,0,0,.24-.81,1.38,1.38,0,0,0-.24-.81.66.66,0,0,1-.11-.38.65.65,0,0,1,.11-.37,1.38,1.38,0,0,0,.24-.81,1.44,1.44,0,0,0-.24-.81.62.62,0,0,1-.11-.37.57.57,0,0,1,0-.14h1.19a.43.43,0,0,1,.43.43Zm.48-5.06a1.3,1.3,0,0,0-.91-.38h-.5c-1.5-.44-3.35-1.1-5.06-1.74a63.91,63.91,0,0,0,7.43,1.14h0a6,6,0,0,0,3.35-1.22,3.59,3.59,0,0,1-3.36,2.34h0A5.09,5.09,0,0,1,24.22,21.91Zm3.87,3.41L28,25.4a2.45,2.45,0,0,1-1.27.35,2.49,2.49,0,0,1-1.14-.28,2.32,2.32,0,0,0-.93-.23v-.68a2.32,2.32,0,0,0,.93-.23,2.49,2.49,0,0,1,1.14-.28A2.45,2.45,0,0,1,28,24.4c.43.2.55.62.14.92Z"/><path class="b3bca82f-7a45-4c67-8051-c064070d84c4" d="M7.92,13.56v1.37a.43.43,0,0,0,.43.43.44.44,0,0,0,.44-.43V13.56a.44.44,0,0,0-.44-.44.44.44,0,0,0-.43.44Z"/><path class="b3bca82f-7a45-4c67-8051-c064070d84c4" d="M10.39,13.56v1.37a.44.44,0,0,0,.44.43.43.43,0,0,0,.43-.43V13.56a.44.44,0,0,0-.43-.44.44.44,0,0,0-.44.44Z"/><path class="b3bca82f-7a45-4c67-8051-c064070d84c4" d="M12.87,13.56v1.37a.44.44,0,0,0,.44.43.43.43,0,0,0,.43-.43V13.56a.44.44,0,0,0-.43-.44.44.44,0,0,0-.44.44Z"/><path class="b3bca82f-7a45-4c67-8051-c064070d84c4" d="M15.35,13.56v1.37a.43.43,0,0,0,.43.43.44.44,0,0,0,.44-.43V13.56a.44.44,0,0,0-.44-.44.44.44,0,0,0-.43.44Z"/></svg>