<svg id="a689678f-3490-48b4-82b8-1500c58c589a" data-name="Calque 1" xmlns="http://www.w3.org/2000/svg" viewBox="0 0 28.35 28.35"><defs><style>.bdab7116-59ae-4d0b-aa27-47ca8dc9f33d{fill:#501e19;}</style></defs><path class="bdab7116-59ae-4d0b-aa27-47ca8dc9f33d" d="M23.91,20.77a2.22,2.22,0,0,0-.35-2.69L19,13.52A7.93,7.93,0,0,0,25.13,11c2.62-2.62,3.49-6.69,1.17-9h0c-2.4-2.4-6.5-1.33-9,1.18a7.93,7.93,0,0,0-2.49,6.12L10.25,4.77a2.22,2.22,0,0,0-2.69-.34L3.78.65A2.21,2.21,0,0,0,.65,3.78L4.43,7.56a2.22,2.22,0,0,0,.34,2.69l5.06,5.06L1.64,22.4a3.05,3.05,0,1,0,4.3,4.31L13,18.5l5.06,5.06a2.23,2.23,0,0,0,2.69.35l3.8,3.79a2.21,2.21,0,0,0,3.13-3.13ZM25.5,2.83C25.54,4,23,6.89,22,7.9c-1.23,1.23-4,3.54-5.07,3.51,0-1.2,2.48-4,3.5-5.07S24.33,2.79,25.5,2.83Zm-1.15,7.42c-1.89,1.89-4.39,2.61-6.21,2a18.24,18.24,0,0,0,4.64-3.52A18.42,18.42,0,0,0,26.3,4.05C27,6.06,26,8.58,24.35,10.25ZM18.08,4C20,2.1,22.47,1.38,24.29,2a18.2,18.2,0,0,0-4.64,3.51,18.36,18.36,0,0,0-3.52,4.64C15.47,8.38,16.19,5.88,18.08,4ZM1.43,1.43A1.12,1.12,0,0,1,3,1.43L6.73,5.16,5.16,6.73,1.43,3A1.12,1.12,0,0,1,1.43,1.43ZM5.1,26a2,2,0,1,1-2.74-2.76l8.26-7.14,1.62,1.62Zm13.77-3.22L5.55,9.47a1.12,1.12,0,0,1,0-1.57L7.9,5.55a1.12,1.12,0,0,1,1.57,0L22.78,18.87a1.1,1.1,0,0,1,0,1.56l-2.35,2.35A1.1,1.1,0,0,1,18.87,22.78Zm8.05,4.14a1.12,1.12,0,0,1-1.57,0l-3.74-3.75,1.56-1.56,3.75,3.74A1.12,1.12,0,0,1,26.92,26.92Z"/><path class="bdab7116-59ae-4d0b-aa27-47ca8dc9f33d" d="M13.94,15a.56.56,0,1,1-.56-.55A.55.55,0,0,1,13.94,15Z"/><path class="bdab7116-59ae-4d0b-aa27-47ca8dc9f33d" d="M7.9,8.69a.55.55,0,1,0-.78.78l4.11,4.11A.55.55,0,1,0,12,12.8Z"/></svg>